G04*
G04 #@! TF.GenerationSoftware,Altium Limited,Altium Designer,20.0.13 (296)*
G04*
G04 Layer_Color=65535*
%FSLAX44Y44*%
%MOMM*%
G71*
G01*
G75*
%ADD10C,0.2000*%
%ADD11C,0.2540*%
D10*
X1420000Y800000D02*
G03*
X1420000Y800000I-220000J0D01*
G01*
X895000D02*
G03*
X895000Y800000I-220000J0D01*
G01*
D11*
X991613Y1041396D02*
X989073Y1043935D01*
X983995D01*
X981456Y1041396D01*
Y1031239D01*
X983995Y1028700D01*
X989073D01*
X991613Y1031239D01*
X1004309Y1043935D02*
X999230D01*
X996691Y1041396D01*
Y1031239D01*
X999230Y1028700D01*
X1004309D01*
X1006848Y1031239D01*
Y1041396D01*
X1004309Y1043935D01*
X1011926Y1028700D02*
Y1043935D01*
X1022083Y1028700D01*
Y1043935D01*
X1037318Y1028700D02*
X1027161D01*
X1037318Y1038857D01*
Y1041396D01*
X1034779Y1043935D01*
X1029700D01*
X1027161Y1041396D01*
X996691Y574034D02*
X986534D01*
Y566417D01*
X991613D01*
X986534D01*
Y558799D01*
X1001769Y568956D02*
Y558799D01*
Y563877D01*
X1004309Y566417D01*
X1006848Y568956D01*
X1009387D01*
X1017004Y558799D02*
X1022083D01*
X1019544D01*
Y568956D01*
X1017004D01*
X1039857Y574034D02*
Y558799D01*
X1032240D01*
X1029700Y561338D01*
Y566417D01*
X1032240Y568956D01*
X1039857D01*
X1050014Y553721D02*
X1052553D01*
X1055092Y556260D01*
Y568956D01*
X1047475D01*
X1044936Y566417D01*
Y561338D01*
X1047475Y558799D01*
X1055092D01*
X1067788D02*
X1062710D01*
X1060171Y561338D01*
Y566417D01*
X1062710Y568956D01*
X1067788D01*
X1070327Y566417D01*
Y563877D01*
X1060171D01*
X466595Y1041396D02*
X464055Y1043935D01*
X458977D01*
X456438Y1041396D01*
Y1031239D01*
X458977Y1028700D01*
X464055D01*
X466595Y1031239D01*
X479291Y1043935D02*
X474212D01*
X471673Y1041396D01*
Y1031239D01*
X474212Y1028700D01*
X479291D01*
X481830Y1031239D01*
Y1041396D01*
X479291Y1043935D01*
X486908Y1028700D02*
Y1043935D01*
X497065Y1028700D01*
Y1043935D01*
X502143Y1028700D02*
X507222D01*
X504682D01*
Y1043935D01*
X502143Y1041396D01*
X451360Y568956D02*
Y553721D01*
Y561338D01*
X461516D01*
Y568956D01*
Y553721D01*
X474212D02*
X469134D01*
X466595Y556260D01*
Y561338D01*
X469134Y563877D01*
X474212D01*
X476751Y561338D01*
Y558799D01*
X466595D01*
X484369Y563877D02*
X489447D01*
X491987Y561338D01*
Y553721D01*
X484369D01*
X481830Y556260D01*
X484369Y558799D01*
X491987D01*
X499604Y566417D02*
Y563877D01*
X497065D01*
X502143D01*
X499604D01*
Y556260D01*
X502143Y553721D01*
X509761D02*
Y563877D01*
X512300D01*
X514839Y561338D01*
Y553721D01*
Y561338D01*
X517378Y563877D01*
X519917Y561338D01*
Y553721D01*
X527535Y563877D02*
X532613D01*
X535153Y561338D01*
Y553721D01*
X527535D01*
X524996Y556260D01*
X527535Y558799D01*
X535153D01*
X542770Y566417D02*
Y563877D01*
X540231D01*
X545309D01*
X542770D01*
Y556260D01*
X545309Y553721D01*
M02*
