G04 Layer_Physical_Order=1*
G04 Layer_Color=255*
%FSLAX25Y25*%
%MOIN*%
G70*
G01*
G75*
%ADD10R,0.09843X0.09055*%
%ADD11R,0.03347X0.02756*%
%ADD12R,0.07480X0.03937*%
%ADD13R,0.03150X0.03740*%
%ADD14R,0.03937X0.02756*%
%ADD15R,0.02985X0.03197*%
%ADD16R,0.05236X0.05236*%
%ADD17R,0.03543X0.07874*%
%ADD18R,0.07874X0.03543*%
%ADD19R,0.07500X0.10984*%
%ADD20R,0.03937X0.02953*%
%ADD21R,0.05512X0.05906*%
%ADD22R,0.02362X0.05512*%
%ADD23R,0.03175X0.05151*%
%ADD24R,0.05906X0.05512*%
%ADD25R,0.03543X0.04134*%
%ADD26R,0.03740X0.02756*%
%ADD27R,0.04331X0.06299*%
%ADD28R,0.01575X0.03150*%
%ADD29R,0.02559X0.04488*%
%ADD30R,0.05512X0.04331*%
%ADD31R,0.02953X0.10630*%
%ADD32R,0.05719X0.10646*%
%ADD33R,0.03740X0.04134*%
%ADD34R,0.05512X0.06299*%
%ADD35R,0.07480X0.07480*%
%ADD36R,0.05315X0.01575*%
%ADD37R,0.04940X0.05733*%
%ADD38R,0.04152X0.05339*%
%ADD39C,0.03937*%
%ADD40C,0.07874*%
%ADD41C,0.01969*%
%ADD42C,0.00984*%
%ADD43C,0.01000*%
%ADD44C,0.02953*%
%ADD45R,0.17717X0.17717*%
%ADD46C,0.00787*%
%ADD47C,0.03937*%
%ADD48C,0.01969*%
%ADD49C,0.07874*%
%ADD50R,0.07874X0.07874*%
%ADD51R,0.09449X0.09449*%
%ADD52C,0.09449*%
%ADD53O,0.06299X0.03543*%
G36*
X307878Y472428D02*
X310247D01*
Y474409D01*
X312992D01*
Y470682D01*
X311128D01*
Y464567D01*
Y458452D01*
X312992D01*
Y456902D01*
X311128D01*
Y450787D01*
Y444672D01*
X312992D01*
Y440945D01*
X291339D01*
Y470472D01*
X292503D01*
Y464967D01*
X299822D01*
Y470472D01*
X305118D01*
Y472428D01*
X307078D01*
Y474606D01*
X307878D01*
Y472428D01*
D02*
G37*
G36*
X486314Y607193D02*
X487602Y606660D01*
X488760Y605886D01*
X489745Y604901D01*
X490518Y603743D01*
X491051Y602456D01*
X491323Y601090D01*
Y600394D01*
X491323Y403012D01*
X490830Y402930D01*
X490703Y403304D01*
X489745Y405248D01*
X488540Y407050D01*
X487111Y408680D01*
X482499Y413292D01*
X480869Y414721D01*
X479067Y415926D01*
X477123Y416884D01*
X475070Y417581D01*
X472944Y418004D01*
X470781Y418146D01*
X460902D01*
X460680Y418294D01*
Y418794D01*
X462143Y419771D01*
X463850Y421268D01*
X465347Y422976D01*
X466609Y424864D01*
X467613Y426900D01*
X468343Y429051D01*
X468786Y431278D01*
X468935Y433544D01*
X468786Y435810D01*
X468343Y438037D01*
X467613Y440187D01*
X466609Y442224D01*
X465347Y444112D01*
X463850Y445819D01*
X462143Y447316D01*
X460255Y448578D01*
X458218Y449582D01*
X456068Y450312D01*
X453841Y450755D01*
X451575Y450904D01*
X449309Y450755D01*
X447082Y450312D01*
X444931Y449582D01*
X442895Y448578D01*
X441007Y447316D01*
X439299Y445819D01*
X437802Y444112D01*
X436541Y442224D01*
X435536Y440187D01*
X434806Y438037D01*
X434363Y435810D01*
X434215Y433544D01*
X434363Y431278D01*
X434806Y429051D01*
X435536Y426900D01*
X436541Y424864D01*
X437802Y422976D01*
X439299Y421268D01*
X441007Y419771D01*
X442469Y418794D01*
Y418294D01*
X441007Y417316D01*
X439299Y415819D01*
X437802Y414112D01*
X436541Y412224D01*
X435536Y410187D01*
X434806Y408037D01*
X434363Y405810D01*
X434215Y403544D01*
X434363Y401278D01*
X434806Y399051D01*
X435536Y396900D01*
X436541Y394864D01*
X437802Y392976D01*
X439299Y391268D01*
X441007Y389771D01*
X442895Y388510D01*
X444931Y387505D01*
X445606Y387276D01*
X445684Y387224D01*
X447628Y386265D01*
X449681Y385568D01*
X451807Y385146D01*
X453970Y385004D01*
X458823D01*
Y357238D01*
X458398Y356974D01*
X458218Y357063D01*
X456068Y357793D01*
X453841Y358236D01*
X451575Y358384D01*
X449309Y358236D01*
X447082Y357793D01*
X444931Y357063D01*
X442895Y356058D01*
X441007Y354797D01*
X439299Y353300D01*
X437802Y351592D01*
X436541Y349704D01*
X435536Y347668D01*
X434806Y345517D01*
X434363Y343290D01*
X434215Y341024D01*
X434363Y338758D01*
X434806Y336531D01*
X435536Y334381D01*
X436541Y332344D01*
X437802Y330456D01*
X439299Y328749D01*
X441007Y327252D01*
X442469Y326274D01*
Y325774D01*
X441007Y324797D01*
X439299Y323300D01*
X437802Y321592D01*
X436541Y319704D01*
X435536Y317668D01*
X434806Y315517D01*
X434363Y313290D01*
X434215Y311024D01*
X434363Y308758D01*
X434806Y306531D01*
X435536Y304381D01*
X436541Y302344D01*
X437802Y300456D01*
X439299Y298749D01*
X441007Y297252D01*
X442895Y295990D01*
X444128Y295382D01*
X444011Y294882D01*
X421814D01*
X421608Y295337D01*
X422202Y296015D01*
X423406Y297817D01*
X424365Y299761D01*
X425061Y301814D01*
X425149Y302256D01*
X425701Y302464D01*
X426351Y301965D01*
X427503Y301487D01*
X428740Y301325D01*
X429977Y301487D01*
X431129Y301965D01*
X432119Y302724D01*
X432878Y303713D01*
X433355Y304866D01*
X433518Y306102D01*
X433355Y307339D01*
X432878Y308491D01*
X432119Y309481D01*
X431129Y310240D01*
X429977Y310718D01*
X428740Y310880D01*
X427503Y310718D01*
X426351Y310240D01*
X425701Y309741D01*
X425149Y309948D01*
X425061Y310391D01*
X424365Y312444D01*
X423406Y314388D01*
X422202Y316190D01*
X420773Y317820D01*
X419143Y319249D01*
X417341Y320453D01*
X415396Y321412D01*
X413344Y322109D01*
X411218Y322532D01*
X409055Y322673D01*
X406892Y322532D01*
X404766Y322109D01*
X402714Y321412D01*
X400770Y320453D01*
X398967Y319249D01*
X397338Y317820D01*
X395908Y316190D01*
X394704Y314388D01*
X393746Y312444D01*
X393049Y310391D01*
X392626Y308265D01*
X392484Y306102D01*
X392626Y303940D01*
X393049Y301814D01*
X393746Y299761D01*
X394704Y297817D01*
X395908Y296015D01*
X396502Y295337D01*
X396296Y294882D01*
X344239D01*
Y319082D01*
X346469D01*
Y321509D01*
X350381D01*
Y319476D01*
X361824D01*
Y330131D01*
X357231D01*
Y337795D01*
X357130Y338302D01*
X356843Y338733D01*
X351725Y343851D01*
X351295Y344138D01*
X350787Y344239D01*
X326927D01*
X324160Y347006D01*
Y431341D01*
X324565Y431745D01*
X353150D01*
X353657Y431846D01*
X354087Y432134D01*
X369047Y447094D01*
X369335Y447524D01*
X369436Y448032D01*
Y453137D01*
X370091D01*
Y460117D01*
X370091Y460249D01*
X370409Y460617D01*
X373832D01*
Y467729D01*
X371904D01*
Y473979D01*
X372871D01*
Y478777D01*
X371483D01*
Y481760D01*
X371711Y481935D01*
X372154Y482513D01*
X372433Y483187D01*
X372529Y483909D01*
X372433Y484632D01*
X372154Y485306D01*
X371711Y485884D01*
X371132Y486328D01*
X370459Y486607D01*
X369736Y486702D01*
X369013Y486607D01*
X368340Y486328D01*
X367761Y485884D01*
X367318Y485306D01*
X367039Y484632D01*
X366944Y483909D01*
X367039Y483187D01*
X367318Y482513D01*
X367761Y481935D01*
X368340Y481491D01*
X368832Y481287D01*
Y479130D01*
X368478Y478777D01*
X367934Y478777D01*
X367786Y478777D01*
X363349D01*
Y476552D01*
X363084Y476286D01*
X362689Y475696D01*
X362551Y475000D01*
X362551Y475000D01*
Y473410D01*
X361009D01*
X360780Y473709D01*
X360201Y474153D01*
X359528Y474432D01*
X358805Y474527D01*
X358083Y474432D01*
X357409Y474153D01*
X356831Y473709D01*
X356387Y473131D01*
X356108Y472457D01*
X356013Y471735D01*
X356108Y471012D01*
X356387Y470338D01*
X356831Y469760D01*
X357409Y469316D01*
X358083Y469037D01*
X358805Y468942D01*
X359528Y469037D01*
X360201Y469316D01*
X360780Y469760D01*
X360789Y469772D01*
X362551D01*
Y467729D01*
X362389D01*
Y460617D01*
X365812D01*
X366129Y460249D01*
X366129Y460117D01*
Y453137D01*
X366785D01*
Y448581D01*
X352601Y434396D01*
X324016D01*
X323509Y434295D01*
X323078Y434008D01*
X321897Y432827D01*
X321610Y432397D01*
X321509Y431890D01*
Y346457D01*
X321610Y345949D01*
X321897Y345519D01*
X325441Y341976D01*
X325871Y341689D01*
X326378Y341588D01*
X350238D01*
X354580Y337246D01*
Y330131D01*
X350381D01*
Y324160D01*
X346469D01*
Y326587D01*
X339357D01*
Y319082D01*
X341588D01*
Y294882D01*
X304506D01*
X302601Y295821D01*
X300549Y296518D01*
X298423Y296941D01*
X296260Y297083D01*
X294097Y296941D01*
X291971Y296518D01*
X289918Y295821D01*
X288013Y294882D01*
X284288D01*
Y370830D01*
X292169D01*
X292751Y370633D01*
X294978Y370190D01*
X297244Y370041D01*
X299510Y370190D01*
X301737Y370633D01*
X303888Y371362D01*
X305924Y372367D01*
X307812Y373628D01*
X309520Y375126D01*
X311017Y376833D01*
X312278Y378721D01*
X313283Y380758D01*
X314013Y382908D01*
X314456Y385135D01*
X314604Y387401D01*
X314456Y389667D01*
X314013Y391894D01*
X313283Y394044D01*
X312278Y396081D01*
X311017Y397969D01*
X309606Y399578D01*
X309749Y400078D01*
X314567D01*
Y434724D01*
X279921D01*
Y403972D01*
X272329D01*
X270166Y403830D01*
X268040Y403407D01*
X265988Y402711D01*
X264044Y401752D01*
X262241Y400548D01*
X260612Y399118D01*
X257170Y395677D01*
X256708Y395868D01*
X256708Y505105D01*
X260170D01*
Y506832D01*
X260814D01*
Y505105D01*
X263989D01*
Y507935D01*
X267704D01*
Y506287D01*
X274816D01*
Y508624D01*
X275873D01*
Y507763D01*
X280820D01*
Y511791D01*
X280820Y512119D01*
X280820Y512619D01*
Y516646D01*
X280582D01*
X280515Y516783D01*
X280387Y517146D01*
X280650Y517781D01*
X280745Y518504D01*
X280650Y519227D01*
X280371Y519900D01*
X279927Y520478D01*
X279349Y520922D01*
X278676Y521201D01*
X277953Y521296D01*
X277230Y521201D01*
X276557Y520922D01*
X275978Y520478D01*
X275535Y519900D01*
X275255Y519227D01*
X275160Y518504D01*
X275164Y518479D01*
X274706Y518123D01*
X267704D01*
Y516977D01*
X263989D01*
Y519304D01*
X263630D01*
Y519953D01*
X263786Y520073D01*
X264229Y520651D01*
X264508Y521324D01*
X264603Y522047D01*
X264508Y522770D01*
X264229Y523443D01*
X263786Y524022D01*
X263207Y524466D01*
X262534Y524745D01*
X261811Y524840D01*
X261088Y524745D01*
X260415Y524466D01*
X259837Y524022D01*
X259393Y523443D01*
X259114Y522770D01*
X259019Y522047D01*
X259114Y521324D01*
X259393Y520651D01*
X259837Y520073D01*
X259992Y519953D01*
Y519304D01*
X256708D01*
Y525606D01*
X256980Y526972D01*
X257513Y528260D01*
X258287Y529418D01*
X259272Y530403D01*
X260430Y531176D01*
X261717Y531709D01*
X263083Y531981D01*
X277953D01*
X277972Y531985D01*
X277992Y531982D01*
X278378Y532001D01*
X278436Y532016D01*
X278495D01*
X279252Y532166D01*
X279325Y532197D01*
X279403Y532212D01*
X280116Y532507D01*
X280182Y532551D01*
X280255Y532581D01*
X280896Y533010D01*
X280929Y533043D01*
X281890D01*
X282202Y533105D01*
X282467Y533282D01*
X282643Y533546D01*
X282705Y533858D01*
Y603639D01*
X282858Y604408D01*
X283184Y605194D01*
X283503Y605672D01*
X284003Y605520D01*
Y598019D01*
X284756D01*
Y585969D01*
X284373Y585471D01*
X284094Y584797D01*
X283999Y584075D01*
X284094Y583352D01*
X284373Y582679D01*
X284817Y582100D01*
X285395Y581657D01*
X286069Y581378D01*
X286791Y581282D01*
X287514Y581378D01*
X288188Y581657D01*
X288766Y582100D01*
X289210Y582679D01*
X289489Y583352D01*
X289584Y584075D01*
X289489Y584797D01*
X289210Y585471D01*
X288766Y586049D01*
X288394Y586335D01*
Y598019D01*
X295249D01*
Y587677D01*
X295350Y587170D01*
X295638Y586740D01*
X296938Y585439D01*
X296909Y585368D01*
X296814Y584646D01*
X296909Y583923D01*
X297188Y583250D01*
X297632Y582671D01*
X298210Y582227D01*
X298884Y581948D01*
X299606Y581853D01*
X300329Y581948D01*
X301003Y582227D01*
X301581Y582671D01*
X302025Y583250D01*
X302304Y583923D01*
X302399Y584646D01*
X302304Y585368D01*
X302025Y586042D01*
X301581Y586620D01*
X301003Y587064D01*
X300329Y587343D01*
X299606Y587438D01*
X298884Y587343D01*
X298813Y587314D01*
X297900Y588226D01*
Y593811D01*
X298400Y593844D01*
X298484Y593209D01*
X298763Y592535D01*
X299207Y591957D01*
X299785Y591513D01*
X300458Y591234D01*
X301181Y591139D01*
X301904Y591234D01*
X302577Y591513D01*
X303156Y591957D01*
X303534Y592450D01*
X303882Y592447D01*
X304078Y592385D01*
X304275Y591911D01*
X304718Y591333D01*
X305297Y590889D01*
X305970Y590610D01*
X306693Y590515D01*
X307416Y590610D01*
X308089Y590889D01*
X308667Y591333D01*
X309111Y591911D01*
X309390Y592584D01*
X309485Y593307D01*
X309390Y594030D01*
X309111Y594703D01*
X308667Y595282D01*
X308089Y595725D01*
X308018Y595755D01*
Y598019D01*
X310249D01*
Y592362D01*
X310350Y591855D01*
X310638Y591425D01*
X325604Y576459D01*
X325412Y575997D01*
X319909D01*
Y575997D01*
X319520D01*
Y575997D01*
X312684D01*
Y575997D01*
X312296D01*
Y575997D01*
X305460D01*
Y569161D01*
X305460D01*
Y568772D01*
X305460D01*
Y561936D01*
X305460D01*
Y561548D01*
X305460D01*
Y554712D01*
X312296D01*
Y554712D01*
X312684D01*
Y554712D01*
X319520D01*
Y554712D01*
X319909D01*
Y554712D01*
X326745D01*
Y561548D01*
X326745D01*
Y561936D01*
X326745D01*
Y568772D01*
X326745D01*
Y569161D01*
X326745D01*
Y574664D01*
X327207Y574856D01*
X332139Y569923D01*
Y563865D01*
X332068Y563836D01*
X331490Y563392D01*
X331046Y562814D01*
X330767Y562140D01*
X330672Y561417D01*
X330767Y560695D01*
X331046Y560021D01*
X331490Y559443D01*
X332068Y558999D01*
X332742Y558720D01*
X333465Y558625D01*
X334187Y558720D01*
X334861Y558999D01*
X335439Y559443D01*
X335883Y560021D01*
X335970Y560231D01*
X336470Y560132D01*
Y554486D01*
X332522Y550538D01*
X298425D01*
X297918Y550437D01*
X297488Y550150D01*
X295638Y548299D01*
X295350Y547869D01*
X295249Y547362D01*
Y540564D01*
X284003D01*
Y533663D01*
X283950Y533609D01*
X283555Y533019D01*
X283417Y532323D01*
X283417Y532323D01*
Y518824D01*
X282455D01*
Y511885D01*
X283417D01*
Y511147D01*
X281668D01*
Y505894D01*
X277199Y501426D01*
X276503D01*
X276384Y501581D01*
X275806Y502025D01*
X275132Y502304D01*
X274410Y502399D01*
X273687Y502304D01*
X273013Y502025D01*
X272435Y501581D01*
X271991Y501003D01*
X271712Y500329D01*
X271617Y499606D01*
X271712Y498884D01*
X271991Y498210D01*
X272435Y497632D01*
X273013Y497188D01*
X273687Y496909D01*
X274410Y496814D01*
X275132Y496909D01*
X275806Y497188D01*
X276384Y497632D01*
X276503Y497787D01*
X277953D01*
X277953Y497787D01*
X278649Y497926D01*
X279239Y498320D01*
X284733Y503814D01*
X288546D01*
Y502469D01*
X288641Y501747D01*
X288920Y501073D01*
X289364Y500495D01*
X291940Y497919D01*
X291749Y497457D01*
X289870D01*
Y494488D01*
Y491520D01*
X293378D01*
Y486114D01*
X293416Y485822D01*
X293086Y485446D01*
X289102D01*
X288878Y485490D01*
X288068D01*
X287947Y485611D01*
X287194Y486114D01*
X286306Y486290D01*
X281320D01*
X280912Y486750D01*
X280918Y486995D01*
D01*
X281035Y487447D01*
X281044Y487466D01*
X281139Y488189D01*
Y488583D01*
X281044Y489305D01*
X280918Y489608D01*
Y494895D01*
X274985D01*
X274803Y494918D01*
X267717D01*
X266994Y494823D01*
X266320Y494544D01*
X265742Y494101D01*
X265488Y493770D01*
X265042Y493585D01*
X264505Y493173D01*
X264092Y492635D01*
X263833Y492010D01*
X263745Y491339D01*
X263833Y490667D01*
X264092Y490042D01*
X264505Y489504D01*
X264924Y489182D01*
Y487611D01*
X263176D01*
Y478531D01*
X263176D01*
Y478162D01*
X263176D01*
Y469082D01*
X264924D01*
Y467511D01*
X264505Y467188D01*
X264092Y466651D01*
X263833Y466026D01*
X263745Y465354D01*
X263833Y464683D01*
X264092Y464057D01*
X264505Y463520D01*
X265042Y463108D01*
X265489Y462923D01*
X265742Y462593D01*
X266320Y462149D01*
X266994Y461870D01*
X267717Y461775D01*
X274803D01*
X274984Y461798D01*
X280918D01*
Y467085D01*
X281044Y467388D01*
X281139Y468110D01*
Y468504D01*
X281044Y469227D01*
X280918Y469530D01*
Y469698D01*
X280849D01*
X280765Y469900D01*
X280321Y470478D01*
X279743Y470922D01*
X279705Y470938D01*
X279505Y471562D01*
X279555Y471641D01*
X281705D01*
Y476527D01*
X282430D01*
X283359Y475598D01*
X283359Y475597D01*
X283949Y475203D01*
X284322Y475129D01*
X284490Y474909D01*
X285069Y474466D01*
X285742Y474187D01*
X286465Y474091D01*
X287188Y474187D01*
X287861Y474466D01*
X288439Y474909D01*
X288883Y475488D01*
X289162Y476161D01*
X289257Y476884D01*
X289162Y477607D01*
X288883Y478280D01*
X288439Y478858D01*
X287861Y479302D01*
X287604Y479409D01*
X287703Y479909D01*
X293910D01*
Y483717D01*
X294410Y483924D01*
X296052Y482282D01*
Y480724D01*
X295852D01*
Y478846D01*
X301789D01*
Y480724D01*
X301589D01*
Y483297D01*
X301611Y483465D01*
X301589Y483632D01*
Y483749D01*
X302089Y483956D01*
X304710Y481336D01*
Y476168D01*
Y473118D01*
X304541Y473005D01*
X304364Y472741D01*
X304302Y472428D01*
Y471288D01*
X299822D01*
X299510Y471226D01*
X299245Y471049D01*
X299068Y470785D01*
X299049Y470690D01*
X293275D01*
X293256Y470785D01*
X293080Y471049D01*
X292815Y471226D01*
X292503Y471288D01*
X291339D01*
X291026Y471226D01*
X290798Y471074D01*
X290640Y471005D01*
X290322Y470890D01*
X290100Y470890D01*
X287015D01*
Y464567D01*
Y458244D01*
X290023D01*
X290374Y458244D01*
X290523Y457805D01*
Y440945D01*
X290585Y440633D01*
X290762Y440368D01*
X291026Y440191D01*
X291339Y440129D01*
X312992D01*
X313304Y440191D01*
X313569Y440368D01*
X313746Y440633D01*
X313808Y440945D01*
Y444672D01*
X313746Y444985D01*
X313569Y445249D01*
X313304Y445426D01*
X313005Y445486D01*
Y456089D01*
X313304Y456149D01*
X313569Y456326D01*
X313746Y456590D01*
X313808Y456902D01*
Y458452D01*
X313746Y458764D01*
X313569Y459029D01*
X313304Y459206D01*
X313005Y459265D01*
Y469869D01*
X313304Y469928D01*
X313569Y470105D01*
X313746Y470370D01*
X313808Y470682D01*
Y474409D01*
X313746Y474722D01*
X313569Y474986D01*
X313304Y475163D01*
X312992Y475225D01*
X310247D01*
Y476527D01*
X313059D01*
X313059Y476527D01*
X313755Y476666D01*
X314345Y477060D01*
X315245Y477960D01*
X321772D01*
Y490544D01*
X315622D01*
X315441Y490568D01*
X314855D01*
X313390Y492033D01*
X312812Y492477D01*
X312138Y492756D01*
X311415Y492851D01*
X310643D01*
Y493024D01*
X305302D01*
X305302Y493024D01*
X304934D01*
Y493024D01*
X304802Y493024D01*
X299594D01*
Y490946D01*
X299567Y490880D01*
X299471Y490157D01*
X299567Y489435D01*
X299570Y489427D01*
Y487737D01*
X299332Y487554D01*
X299086Y487473D01*
X298962Y487566D01*
Y494845D01*
X323520D01*
X331771Y486595D01*
Y481909D01*
X321156Y471294D01*
X320712Y470715D01*
X320433Y470042D01*
X320338Y469319D01*
Y464567D01*
Y450787D01*
X320433Y450065D01*
X320712Y449391D01*
X320854Y449206D01*
Y444672D01*
X325406D01*
Y449206D01*
X325548Y449391D01*
X325827Y450065D01*
X325922Y450787D01*
Y464567D01*
Y468162D01*
X335720Y477960D01*
X340871D01*
Y481460D01*
X344672D01*
Y480696D01*
X352178D01*
Y484056D01*
X378352Y510230D01*
X378796Y510809D01*
X379075Y511482D01*
X379170Y512205D01*
Y527754D01*
X379670Y527923D01*
X379955Y527553D01*
X380533Y527109D01*
X381206Y526830D01*
X381929Y526735D01*
X382652Y526830D01*
X383325Y527109D01*
X383904Y527553D01*
X384347Y528131D01*
X384377Y528202D01*
X386208D01*
Y525775D01*
X393320D01*
Y533280D01*
X386208D01*
Y530853D01*
X384377D01*
X384347Y530924D01*
X383904Y531502D01*
X383325Y531946D01*
X382652Y532225D01*
X381929Y532320D01*
X381206Y532225D01*
X380533Y531946D01*
X379955Y531502D01*
X379670Y531132D01*
X379170Y531301D01*
Y542985D01*
X379670Y543187D01*
X380100Y542857D01*
X380773Y542578D01*
X381496Y542483D01*
X382219Y542578D01*
X382892Y542857D01*
X383471Y543301D01*
X383914Y543879D01*
X383944Y543950D01*
X386011D01*
Y541326D01*
X391942D01*
Y549225D01*
X386011D01*
Y546601D01*
X383944D01*
X383914Y546672D01*
X383471Y547250D01*
X382892Y547694D01*
X382219Y547973D01*
X381496Y548068D01*
X380773Y547973D01*
X380100Y547694D01*
X379670Y547364D01*
X379170Y547566D01*
Y559513D01*
X386683Y567025D01*
X387298Y567106D01*
X387971Y567385D01*
X388549Y567829D01*
X388760Y568103D01*
X389390D01*
X389600Y567829D01*
X390179Y567385D01*
X390852Y567106D01*
X391575Y567011D01*
X392298Y567106D01*
X392971Y567385D01*
X393549Y567829D01*
X393760Y568103D01*
X394390D01*
X394600Y567829D01*
X395179Y567385D01*
X395852Y567106D01*
X396575Y567011D01*
X397298Y567106D01*
X397971Y567385D01*
X398549Y567829D01*
X398760Y568103D01*
X399390D01*
X399600Y567829D01*
X400179Y567385D01*
X400852Y567106D01*
X401575Y567011D01*
X402297Y567106D01*
X402971Y567385D01*
X403549Y567829D01*
X403760Y568103D01*
X404390D01*
X404600Y567829D01*
X405179Y567385D01*
X405852Y567106D01*
X406575Y567011D01*
X407298Y567106D01*
X407971Y567385D01*
X408549Y567829D01*
X408993Y568407D01*
X409272Y569080D01*
X409367Y569803D01*
X409272Y570526D01*
X408993Y571199D01*
X408549Y571778D01*
X408275Y571988D01*
Y572618D01*
X408549Y572829D01*
X408993Y573407D01*
X409272Y574080D01*
X409367Y574803D01*
X409272Y575526D01*
X408993Y576199D01*
X408549Y576778D01*
X407971Y577221D01*
X407298Y577500D01*
X406575Y577596D01*
X405852Y577500D01*
X405179Y577221D01*
X404600Y576778D01*
X404390Y576503D01*
X403760D01*
X403549Y576778D01*
X402971Y577221D01*
X402622Y577366D01*
Y577436D01*
X402521Y577940D01*
X402236Y578368D01*
X396521Y584082D01*
X396094Y584368D01*
X395871Y584412D01*
X392407Y587876D01*
X392568Y588349D01*
X392691Y588366D01*
X393365Y588645D01*
X393943Y589088D01*
X394153Y589363D01*
X394783D01*
X394994Y589088D01*
X395572Y588645D01*
X396246Y588366D01*
X396969Y588271D01*
X397691Y588366D01*
X398365Y588645D01*
X398943Y589088D01*
X399153Y589363D01*
X399783D01*
X399994Y589088D01*
X400572Y588645D01*
X401246Y588366D01*
X401968Y588271D01*
X402691Y588366D01*
X403365Y588645D01*
X403943Y589088D01*
X404387Y589667D01*
X404666Y590340D01*
X404761Y591063D01*
X404666Y591786D01*
X404387Y592459D01*
X403943Y593038D01*
X403669Y593248D01*
Y593878D01*
X403943Y594089D01*
X404387Y594667D01*
X404666Y595340D01*
X404761Y596063D01*
X404666Y596786D01*
X404387Y597459D01*
X403943Y598037D01*
X403365Y598481D01*
X403294Y598511D01*
Y600394D01*
X403193Y600901D01*
X402906Y601331D01*
X398181Y606055D01*
X397751Y606343D01*
X397244Y606444D01*
X385830D01*
X385323Y606343D01*
X384893Y606055D01*
X380557Y601719D01*
X371345D01*
X371316Y601790D01*
X370872Y602368D01*
X370294Y602812D01*
X369620Y603091D01*
X368898Y603186D01*
X368175Y603091D01*
X367501Y602812D01*
X366923Y602368D01*
X366479Y601790D01*
X366200Y601116D01*
X366105Y600394D01*
X366200Y599671D01*
X366479Y598997D01*
X366726Y598676D01*
X366480Y598176D01*
X358029D01*
X354147Y602059D01*
Y607465D01*
X484252Y607465D01*
X484948D01*
X486314Y607193D01*
D02*
G37*
%LPC*%
G36*
X310328Y450387D02*
X308452D01*
Y444672D01*
X310328D01*
Y450387D01*
D02*
G37*
G36*
Y456902D02*
X308452D01*
Y451187D01*
X310328D01*
Y456902D01*
D02*
G37*
G36*
Y470682D02*
X308452D01*
Y464967D01*
X310328D01*
Y470682D01*
D02*
G37*
G36*
X295762Y464167D02*
X292503D01*
Y458444D01*
X295762D01*
Y464167D01*
D02*
G37*
G36*
X299822D02*
X296562D01*
Y458444D01*
X299822D01*
Y464167D01*
D02*
G37*
G36*
X310328D02*
X308452D01*
Y458452D01*
X310328D01*
Y464167D01*
D02*
G37*
G36*
X372138Y416429D02*
X366717D01*
Y411402D01*
X372138D01*
Y416429D01*
D02*
G37*
G36*
X378559D02*
X373138D01*
Y411402D01*
X378559D01*
Y416429D01*
D02*
G37*
G36*
X372138Y422457D02*
X366717D01*
Y417429D01*
X372138D01*
Y422457D01*
D02*
G37*
G36*
X330815Y401567D02*
Y397153D01*
X335229D01*
X335125Y397942D01*
X334627Y399143D01*
X333836Y400175D01*
X332805Y400966D01*
X331604Y401464D01*
X330815Y401567D01*
D02*
G37*
G36*
X335229Y396153D02*
X330815D01*
Y391740D01*
X331604Y391844D01*
X332805Y392341D01*
X333836Y393132D01*
X334627Y394164D01*
X335125Y395365D01*
X335229Y396153D01*
D02*
G37*
G36*
X409055Y413225D02*
X406892Y413083D01*
X404766Y412660D01*
X402714Y411963D01*
X400770Y411004D01*
X398967Y409800D01*
X397338Y408371D01*
X395908Y406741D01*
X394704Y404939D01*
X393746Y402995D01*
X393049Y400942D01*
X392626Y398816D01*
X392484Y396654D01*
X392626Y394491D01*
X393049Y392365D01*
X393746Y390312D01*
X394704Y388368D01*
X395908Y386566D01*
X397338Y384936D01*
X398967Y383507D01*
X400770Y382303D01*
X401100Y382140D01*
Y381640D01*
X400770Y381477D01*
X398967Y380273D01*
X397338Y378843D01*
X395908Y377214D01*
X394704Y375411D01*
X393746Y373467D01*
X393049Y371415D01*
X392626Y369289D01*
X392484Y367126D01*
X392626Y364963D01*
X393049Y362837D01*
X393746Y360785D01*
X394704Y358840D01*
X395908Y357038D01*
X397338Y355409D01*
X398967Y353979D01*
X400770Y352775D01*
X402714Y351816D01*
X404766Y351120D01*
X406892Y350697D01*
X409055Y350555D01*
X411218Y350697D01*
X413344Y351120D01*
X415396Y351816D01*
X417341Y352775D01*
X419143Y353979D01*
X420773Y355409D01*
X422202Y357038D01*
X423406Y358840D01*
X424365Y360785D01*
X425061Y362837D01*
X425149Y363280D01*
X425701Y363487D01*
X426351Y362988D01*
X427503Y362511D01*
X428740Y362348D01*
X429977Y362511D01*
X431129Y362988D01*
X432119Y363748D01*
X432878Y364737D01*
X433355Y365889D01*
X433518Y367126D01*
X433355Y368363D01*
X432878Y369515D01*
X432119Y370504D01*
X431129Y371264D01*
X429977Y371741D01*
X428740Y371904D01*
X427503Y371741D01*
X426351Y371264D01*
X425701Y370764D01*
X425149Y370972D01*
X425061Y371415D01*
X424365Y373467D01*
X423406Y375411D01*
X422202Y377214D01*
X420773Y378843D01*
X419143Y380273D01*
X417341Y381477D01*
X417010Y381640D01*
Y382140D01*
X417341Y382303D01*
X419143Y383507D01*
X420773Y384936D01*
X422202Y386566D01*
X423406Y388368D01*
X424365Y390312D01*
X425061Y392365D01*
X425149Y392808D01*
X425701Y393015D01*
X426351Y392516D01*
X427503Y392038D01*
X428740Y391876D01*
X429977Y392038D01*
X431129Y392516D01*
X432119Y393275D01*
X432878Y394265D01*
X433355Y395417D01*
X433518Y396654D01*
X433355Y397890D01*
X432878Y399043D01*
X432119Y400032D01*
X431129Y400791D01*
X429977Y401269D01*
X428740Y401431D01*
X427503Y401269D01*
X426351Y400791D01*
X425701Y400292D01*
X425149Y400499D01*
X425061Y400942D01*
X424365Y402995D01*
X423406Y404939D01*
X422202Y406741D01*
X420773Y408371D01*
X419143Y409800D01*
X417341Y411004D01*
X415396Y411963D01*
X413344Y412660D01*
X411218Y413083D01*
X409055Y413225D01*
D02*
G37*
G36*
X329815Y401567D02*
X329026Y401464D01*
X327825Y400966D01*
X326794Y400175D01*
X326002Y399143D01*
X325505Y397942D01*
X325401Y397153D01*
X329815D01*
Y401567D01*
D02*
G37*
G36*
X378559Y422457D02*
X373138D01*
Y417429D01*
X378559D01*
Y422457D01*
D02*
G37*
G36*
X351194Y458969D02*
X345657D01*
Y456544D01*
X339889D01*
X339770Y456699D01*
X339192Y457143D01*
X338518Y457422D01*
X337795Y457517D01*
X337073Y457422D01*
X336399Y457143D01*
X335821Y456699D01*
X335377Y456121D01*
X335098Y455447D01*
X335003Y454724D01*
X335098Y454002D01*
X335377Y453328D01*
X335821Y452750D01*
X336399Y452306D01*
X337073Y452027D01*
X337795Y451932D01*
X338518Y452027D01*
X339192Y452306D01*
X339770Y452750D01*
X339889Y452905D01*
X346457D01*
X346457Y452905D01*
X347153Y453044D01*
X347743Y453438D01*
X348722Y454417D01*
X351194D01*
Y458969D01*
D02*
G37*
G36*
X344012Y427870D02*
X341740D01*
Y425303D01*
X344012D01*
Y427870D01*
D02*
G37*
G36*
X286015Y464067D02*
X282655D01*
Y458244D01*
X286015D01*
Y464067D01*
D02*
G37*
G36*
X340740Y427870D02*
X338468D01*
Y427670D01*
X333354D01*
Y423799D01*
X331746Y422191D01*
X331460Y421764D01*
X331360Y421260D01*
Y418714D01*
X329121D01*
Y411208D01*
X336233D01*
Y418714D01*
X333995D01*
Y420714D01*
X335217Y421936D01*
X338468D01*
Y421736D01*
X340740D01*
Y424803D01*
Y427870D01*
D02*
G37*
G36*
X344012Y424303D02*
X341740D01*
Y421736D01*
X344012D01*
Y424303D01*
D02*
G37*
G36*
X372532Y324303D02*
X367110D01*
Y319276D01*
X372532D01*
Y324303D01*
D02*
G37*
G36*
X296260Y319542D02*
X295023Y319379D01*
X293871Y318902D01*
X292881Y318142D01*
X292122Y317153D01*
X291645Y316000D01*
X291482Y314764D01*
X291645Y313527D01*
X292122Y312375D01*
X292881Y311385D01*
X293871Y310626D01*
X295023Y310149D01*
X296260Y309986D01*
X297497Y310149D01*
X298649Y310626D01*
X299638Y311385D01*
X300398Y312375D01*
X300875Y313527D01*
X301038Y314764D01*
X300875Y316000D01*
X300398Y317153D01*
X299638Y318142D01*
X298649Y318902D01*
X297497Y319379D01*
X296260Y319542D01*
D02*
G37*
G36*
X372532Y330331D02*
X367110D01*
Y325303D01*
X372532D01*
Y330331D01*
D02*
G37*
G36*
X378953Y324303D02*
X373532D01*
Y319276D01*
X378953D01*
Y324303D01*
D02*
G37*
G36*
X335229Y305602D02*
X330815D01*
Y301189D01*
X331604Y301292D01*
X332805Y301790D01*
X333836Y302581D01*
X334627Y303613D01*
X335125Y304814D01*
X335229Y305602D01*
D02*
G37*
G36*
X329815D02*
X325401D01*
X325505Y304814D01*
X326002Y303613D01*
X326794Y302581D01*
X327825Y301790D01*
X329026Y301292D01*
X329815Y301189D01*
Y305602D01*
D02*
G37*
G36*
X330815Y311016D02*
Y306602D01*
X335229D01*
X335125Y307391D01*
X334627Y308592D01*
X333836Y309624D01*
X332805Y310415D01*
X331604Y310912D01*
X330815Y311016D01*
D02*
G37*
G36*
X329815D02*
X329026Y310912D01*
X327825Y310415D01*
X326794Y309624D01*
X326002Y308592D01*
X325505Y307391D01*
X325401Y306602D01*
X329815D01*
Y311016D01*
D02*
G37*
G36*
X297244Y362973D02*
X295802Y362783D01*
X294458Y362227D01*
X293304Y361341D01*
X292419Y360187D01*
X292338Y359994D01*
X292122Y359712D01*
X291645Y358559D01*
X291482Y357323D01*
X291645Y356086D01*
X292122Y354934D01*
X292881Y353944D01*
X293007Y353848D01*
X293304Y353461D01*
X294458Y352575D01*
X295802Y352019D01*
X297244Y351829D01*
X298686Y352019D01*
X300030Y352575D01*
X301184Y353461D01*
X302070Y354615D01*
X302626Y355959D01*
X302816Y357401D01*
X302626Y358843D01*
X302070Y360187D01*
X301184Y361341D01*
X300030Y362227D01*
X298686Y362783D01*
X297244Y362973D01*
D02*
G37*
G36*
X342437Y333775D02*
X340165D01*
Y331209D01*
X342437D01*
Y333775D01*
D02*
G37*
G36*
X329815Y396153D02*
X325401D01*
X325505Y395365D01*
X326002Y394164D01*
X326794Y393132D01*
X327825Y392341D01*
X329026Y391844D01*
X329815Y391740D01*
Y396153D01*
D02*
G37*
G36*
X457099Y379068D02*
X446050D01*
Y368019D01*
X457099D01*
Y379068D01*
D02*
G37*
G36*
X339165Y333775D02*
X336894D01*
Y333576D01*
X331779D01*
Y329838D01*
X330165Y328225D01*
X329878Y327795D01*
X329777Y327287D01*
Y326587D01*
X327547D01*
Y319082D01*
X334658D01*
Y326587D01*
X332984D01*
X332777Y327087D01*
X333531Y327842D01*
X336894D01*
Y327642D01*
X339165D01*
Y330709D01*
Y333775D01*
D02*
G37*
G36*
X378953Y330331D02*
X373532D01*
Y325303D01*
X378953D01*
Y330331D01*
D02*
G37*
G36*
X296260Y337652D02*
X295023Y337489D01*
X293871Y337012D01*
X292881Y336252D01*
X292122Y335263D01*
X291645Y334111D01*
X291482Y332874D01*
X291645Y331637D01*
X292122Y330485D01*
X292881Y329496D01*
X293871Y328736D01*
X295023Y328259D01*
X296260Y328096D01*
X297497Y328259D01*
X298649Y328736D01*
X299638Y329496D01*
X300398Y330485D01*
X300875Y331637D01*
X301038Y332874D01*
X300875Y334111D01*
X300398Y335263D01*
X299638Y336252D01*
X298649Y337012D01*
X297497Y337489D01*
X296260Y337652D01*
D02*
G37*
G36*
X342437Y330209D02*
X340165D01*
Y327642D01*
X342437D01*
Y330209D01*
D02*
G37*
G36*
X405131Y533280D02*
X398019D01*
Y525775D01*
X405131D01*
Y528202D01*
X407649D01*
Y526152D01*
X412424D01*
Y532903D01*
X407649D01*
Y530853D01*
X405131D01*
Y533280D01*
D02*
G37*
G36*
X416832Y558208D02*
X416110Y558112D01*
X415436Y557833D01*
X414858Y557390D01*
X414414Y556811D01*
X414135Y556138D01*
X414040Y555415D01*
X414135Y554692D01*
X414414Y554019D01*
X414858Y553441D01*
X414917Y553396D01*
Y548651D01*
X414348D01*
Y541900D01*
X414917D01*
Y532903D01*
X414348D01*
Y526152D01*
X419123D01*
Y532903D01*
X418555D01*
Y541900D01*
X419123D01*
Y548651D01*
X418555D01*
Y553247D01*
X418807Y553441D01*
X419251Y554019D01*
X419530Y554692D01*
X419625Y555415D01*
X419530Y556138D01*
X419251Y556811D01*
X418807Y557390D01*
X418229Y557833D01*
X417555Y558112D01*
X416832Y558208D01*
D02*
G37*
G36*
X451075Y534618D02*
X445851D01*
Y529394D01*
X451075D01*
Y534618D01*
D02*
G37*
G36*
X451575Y510218D02*
X450133Y510028D01*
X448789Y509471D01*
X447635Y508586D01*
X446749Y507432D01*
X446193Y506088D01*
X446003Y504646D01*
X446193Y503203D01*
X446749Y501860D01*
X447635Y500706D01*
X448789Y499820D01*
X450133Y499263D01*
X451575Y499074D01*
X453017Y499263D01*
X454361Y499820D01*
X455515Y500706D01*
X456400Y501860D01*
X456957Y503203D01*
X457147Y504646D01*
X456957Y506088D01*
X456400Y507432D01*
X455515Y508586D01*
X454361Y509471D01*
X453017Y510028D01*
X451575Y510218D01*
D02*
G37*
G36*
X433514Y499987D02*
X432791Y499892D01*
X432118Y499613D01*
X431539Y499169D01*
X431096Y498591D01*
X430817Y497918D01*
X430721Y497195D01*
X430817Y496472D01*
X431096Y495799D01*
X431539Y495220D01*
X432118Y494777D01*
X432237Y494727D01*
Y486922D01*
X431217D01*
Y487122D01*
X429142D01*
Y484252D01*
Y481382D01*
X431217D01*
Y481582D01*
X435938D01*
Y482927D01*
X446307D01*
X446749Y481860D01*
X447635Y480706D01*
X448789Y479820D01*
X450133Y479263D01*
X451575Y479074D01*
X453017Y479263D01*
X454361Y479820D01*
X455515Y480706D01*
X456400Y481860D01*
X456957Y483204D01*
X457147Y484646D01*
X456957Y486088D01*
X456400Y487432D01*
X455515Y488586D01*
X454361Y489471D01*
X453017Y490028D01*
X451575Y490218D01*
X450133Y490028D01*
X448789Y489471D01*
X447635Y488586D01*
X446749Y487432D01*
X446193Y486088D01*
X446126Y485577D01*
X435938D01*
Y486922D01*
X434888D01*
Y494768D01*
X434910Y494777D01*
X435488Y495220D01*
X435932Y495799D01*
X436211Y496472D01*
X436306Y497195D01*
X436211Y497918D01*
X435932Y498591D01*
X435488Y499169D01*
X434910Y499613D01*
X434236Y499892D01*
X433514Y499987D01*
D02*
G37*
G36*
X288870Y493988D02*
X284630D01*
Y491520D01*
X288870D01*
Y493988D01*
D02*
G37*
G36*
Y497457D02*
X284630D01*
Y494988D01*
X288870D01*
Y497457D01*
D02*
G37*
G36*
X457299Y534618D02*
X452075D01*
Y529394D01*
X457299D01*
Y534618D01*
D02*
G37*
G36*
X428142Y557988D02*
X426067D01*
Y555618D01*
X428142D01*
Y557988D01*
D02*
G37*
G36*
X451575Y560690D02*
X450133Y560500D01*
X448789Y559944D01*
X447635Y559058D01*
X446749Y557904D01*
X446193Y556560D01*
X446177Y556444D01*
X435938D01*
Y557788D01*
X431217D01*
Y557988D01*
X429142D01*
Y555118D01*
Y552248D01*
X431217D01*
Y552448D01*
X432237D01*
Y550549D01*
X432118Y550499D01*
X431539Y550055D01*
X431096Y549477D01*
X430817Y548803D01*
X430721Y548081D01*
X430817Y547358D01*
X431096Y546685D01*
X431539Y546106D01*
X432118Y545662D01*
X432791Y545384D01*
X433514Y545288D01*
X434236Y545384D01*
X434910Y545662D01*
X435488Y546106D01*
X435932Y546685D01*
X436211Y547358D01*
X436306Y548081D01*
X436211Y548803D01*
X435932Y549477D01*
X435488Y550055D01*
X434910Y550499D01*
X434888Y550508D01*
Y552448D01*
X435938D01*
Y553793D01*
X446177D01*
X446193Y553676D01*
X446749Y552332D01*
X447635Y551178D01*
X448789Y550293D01*
X450133Y549736D01*
X451575Y549546D01*
X453017Y549736D01*
X454361Y550293D01*
X455515Y551178D01*
X456400Y552332D01*
X456957Y553676D01*
X457147Y555118D01*
X456957Y556560D01*
X456400Y557904D01*
X455515Y559058D01*
X454361Y559944D01*
X453017Y560500D01*
X451575Y560690D01*
D02*
G37*
G36*
Y580690D02*
X450133Y580500D01*
X448789Y579944D01*
X447635Y579058D01*
X446749Y577904D01*
X446193Y576560D01*
X446003Y575118D01*
X446193Y573676D01*
X446749Y572332D01*
X447635Y571178D01*
X448789Y570293D01*
X450133Y569736D01*
X451575Y569546D01*
X453017Y569736D01*
X454361Y570293D01*
X455515Y571178D01*
X456400Y572332D01*
X456957Y573676D01*
X457147Y575118D01*
X456957Y576560D01*
X456400Y577904D01*
X455515Y579058D01*
X454361Y579944D01*
X453017Y580500D01*
X451575Y580690D01*
D02*
G37*
G36*
X428142Y554618D02*
X426067D01*
Y552248D01*
X428142D01*
Y554618D01*
D02*
G37*
G36*
X451075Y540843D02*
X445851D01*
Y535618D01*
X451075D01*
Y540843D01*
D02*
G37*
G36*
X457299D02*
X452075D01*
Y535618D01*
X457299D01*
Y540843D01*
D02*
G37*
G36*
X405328Y549225D02*
X399397D01*
Y541326D01*
X405328D01*
Y543950D01*
X407649D01*
Y541900D01*
X412424D01*
Y548651D01*
X407649D01*
Y546601D01*
X405328D01*
Y549225D01*
D02*
G37*
G36*
X428142Y487122D02*
X426067D01*
Y484752D01*
X428142D01*
Y487122D01*
D02*
G37*
G36*
X457299Y464146D02*
X452075D01*
Y458921D01*
X457299D01*
Y464146D01*
D02*
G37*
G36*
X352178Y475997D02*
X344672D01*
Y468885D01*
X345633D01*
Y462598D01*
X345657Y462417D01*
Y460322D01*
X346844D01*
X347029Y460180D01*
X347703Y459901D01*
X348425Y459806D01*
X349148Y459901D01*
X349821Y460180D01*
X350006Y460322D01*
X351194D01*
Y462417D01*
X351218Y462598D01*
Y468885D01*
X352178D01*
Y475997D01*
D02*
G37*
G36*
X451075Y464146D02*
X445851D01*
Y458921D01*
X451075D01*
Y464146D01*
D02*
G37*
G36*
X286015Y470890D02*
X282655D01*
Y465067D01*
X286015D01*
Y470890D01*
D02*
G37*
G36*
X301789Y477846D02*
X295852D01*
Y475969D01*
Y475106D01*
X301789D01*
Y475969D01*
Y477846D01*
D02*
G37*
G36*
X388295Y487044D02*
X387572Y486949D01*
X386899Y486670D01*
X386321Y486227D01*
X385877Y485648D01*
X385598Y484975D01*
X385503Y484252D01*
X385598Y483529D01*
X385877Y482856D01*
X386321Y482277D01*
X386899Y481834D01*
X386970Y481804D01*
Y479130D01*
X386616Y478777D01*
X385651Y478777D01*
X385503Y478777D01*
X381066D01*
Y476552D01*
X380800Y476286D01*
X380406Y475696D01*
X380267Y475000D01*
X380267Y475000D01*
Y473185D01*
X378726D01*
X378496Y473484D01*
X377918Y473928D01*
X377244Y474207D01*
X376522Y474302D01*
X375799Y474207D01*
X375126Y473928D01*
X374547Y473484D01*
X374103Y472906D01*
X373824Y472232D01*
X373729Y471510D01*
X373824Y470787D01*
X374103Y470114D01*
X374547Y469535D01*
X375126Y469092D01*
X375799Y468813D01*
X376522Y468717D01*
X377244Y468813D01*
X377918Y469092D01*
X378496Y469535D01*
X378505Y469547D01*
X380267D01*
Y467926D01*
X380105D01*
Y460814D01*
X383137D01*
X383604Y460726D01*
X383604Y460726D01*
D01*
X383846Y460446D01*
X383846Y460314D01*
X383846Y460306D01*
Y453334D01*
X384501D01*
Y443462D01*
X381734Y440696D01*
X369291D01*
X368784Y440595D01*
X368354Y440307D01*
X354771Y426725D01*
X354484Y426295D01*
X354383Y425787D01*
Y422257D01*
X349987D01*
Y416286D01*
X348044D01*
Y418714D01*
X340932D01*
Y411208D01*
X343163D01*
Y376927D01*
X335514Y369278D01*
X335052Y369469D01*
Y371863D01*
X325578D01*
Y362389D01*
X335052D01*
Y365800D01*
X335236D01*
X335743Y365901D01*
X336173Y366189D01*
X345426Y375441D01*
X345713Y375871D01*
X345814Y376378D01*
Y411208D01*
X348044D01*
Y413635D01*
X349987D01*
Y411601D01*
X361430D01*
Y420829D01*
X361455Y420957D01*
Y421350D01*
X361430Y421478D01*
Y422257D01*
X361088D01*
X361067Y422288D01*
X360637Y422575D01*
X360130Y422676D01*
X359623Y422575D01*
X359193Y422288D01*
X359172Y422257D01*
X357034D01*
Y425238D01*
X369840Y438045D01*
X382283D01*
X382791Y438145D01*
X383221Y438433D01*
X386764Y441976D01*
X387051Y442406D01*
X387152Y442913D01*
Y453334D01*
X387808D01*
X387808Y460306D01*
D01*
X387808Y460446D01*
X388049Y460726D01*
X388049D01*
X388049Y460726D01*
X388516Y460814D01*
X391548D01*
Y467926D01*
X389621D01*
Y473979D01*
X390588D01*
Y478777D01*
X389621D01*
Y481804D01*
X389691Y481834D01*
X390270Y482277D01*
X390714Y482856D01*
X390992Y483529D01*
X391088Y484252D01*
X390992Y484975D01*
X390714Y485648D01*
X390270Y486227D01*
X389691Y486670D01*
X389018Y486949D01*
X388295Y487044D01*
D02*
G37*
G36*
X428142Y483752D02*
X426067D01*
Y481382D01*
X428142D01*
Y483752D01*
D02*
G37*
G36*
X301789Y474106D02*
X299321D01*
Y472228D01*
X301789D01*
Y474106D01*
D02*
G37*
G36*
X451075Y470370D02*
X445851D01*
Y465146D01*
X451075D01*
Y470370D01*
D02*
G37*
G36*
X457299D02*
X452075D01*
Y465146D01*
X457299D01*
Y470370D01*
D02*
G37*
G36*
X298321Y474106D02*
X295852D01*
Y472228D01*
X298321D01*
Y474106D01*
D02*
G37*
%LPD*%
D10*
X372638Y416929D02*
D03*
X355709D02*
D03*
X373032Y324803D02*
D03*
X356102D02*
D03*
D11*
X278346Y514468D02*
D03*
Y509941D02*
D03*
D12*
X289370Y482677D02*
D03*
Y494488D02*
D03*
D13*
X428642Y555118D02*
D03*
X433563D02*
D03*
X428642Y484252D02*
D03*
X433563D02*
D03*
D14*
X307478Y474606D02*
D03*
Y478346D02*
D03*
Y482087D02*
D03*
X298821Y474606D02*
D03*
Y478346D02*
D03*
Y482087D02*
D03*
D15*
X365642Y476378D02*
D03*
X370579D02*
D03*
X383358Y476378D02*
D03*
X388295D02*
D03*
D16*
X323327Y572579D02*
D03*
Y565354D02*
D03*
Y558130D02*
D03*
X316102Y572579D02*
D03*
Y565354D02*
D03*
Y558130D02*
D03*
X308878Y572579D02*
D03*
Y565354D02*
D03*
Y558130D02*
D03*
D17*
X286575Y602756D02*
D03*
X291575D02*
D03*
X296575D02*
D03*
X301575D02*
D03*
X306575D02*
D03*
X311575D02*
D03*
X316575D02*
D03*
X321575D02*
D03*
X326575D02*
D03*
X331575D02*
D03*
X336575D02*
D03*
X341575D02*
D03*
X346575D02*
D03*
X351575D02*
D03*
Y535827D02*
D03*
X346575D02*
D03*
X341575D02*
D03*
X336575D02*
D03*
X331575D02*
D03*
X326575D02*
D03*
X321575D02*
D03*
X316575D02*
D03*
X311575D02*
D03*
X306575D02*
D03*
X301575D02*
D03*
X296575D02*
D03*
X291575D02*
D03*
X286575D02*
D03*
D18*
X355512Y591791D02*
D03*
Y586791D02*
D03*
Y581791D02*
D03*
Y576791D02*
D03*
Y571791D02*
D03*
Y566791D02*
D03*
Y561791D02*
D03*
Y556791D02*
D03*
Y551791D02*
D03*
Y546791D02*
D03*
D19*
X336321Y484252D02*
D03*
X317222D02*
D03*
D20*
X348425Y456693D02*
D03*
Y462598D02*
D03*
D21*
X344488Y414961D02*
D03*
X332677D02*
D03*
X401575Y529528D02*
D03*
X389764D02*
D03*
X342913Y322835D02*
D03*
X331102D02*
D03*
D22*
X371850Y464173D02*
D03*
X364370D02*
D03*
X368110Y456693D02*
D03*
X385827Y456890D02*
D03*
X382086Y464370D02*
D03*
X389567D02*
D03*
D23*
X410036Y529528D02*
D03*
X416736D02*
D03*
X410036Y545275D02*
D03*
X416736D02*
D03*
D24*
X348425Y472441D02*
D03*
Y484252D02*
D03*
D25*
X334350Y330709D02*
D03*
X339665D02*
D03*
X335925Y424803D02*
D03*
X341240D02*
D03*
D26*
X300000Y512106D02*
D03*
Y506791D02*
D03*
D27*
X402362Y545275D02*
D03*
X388976D02*
D03*
D28*
X262402Y507480D02*
D03*
Y516929D02*
D03*
D29*
X258090Y516260D02*
D03*
Y508150D02*
D03*
D30*
X271260Y515158D02*
D03*
Y509252D02*
D03*
X307874Y506496D02*
D03*
Y512402D02*
D03*
D31*
X310728Y464567D02*
D03*
X323130D02*
D03*
X310728Y450787D02*
D03*
X323130D02*
D03*
D32*
X296162Y464567D02*
D03*
X286515D02*
D03*
D33*
X307972Y490157D02*
D03*
X302264D02*
D03*
D34*
X277362Y465748D02*
D03*
Y490945D02*
D03*
D35*
X267717Y473622D02*
D03*
Y483071D02*
D03*
D36*
X278248Y473228D02*
D03*
Y475787D02*
D03*
Y478346D02*
D03*
Y480905D02*
D03*
Y483465D02*
D03*
D37*
X284938Y507480D02*
D03*
X291440D02*
D03*
D38*
X285332Y515354D02*
D03*
X291046D02*
D03*
D39*
X348425Y462598D02*
Y472441D01*
X307972Y490157D02*
X308071Y490059D01*
X311415D01*
X313699Y487776D01*
X315441D01*
X317222Y485994D01*
Y484252D02*
Y485994D01*
X302264Y490157D02*
X302362Y490059D01*
Y487633D02*
Y490059D01*
Y487633D02*
X307302Y482693D01*
X307478D01*
X267717Y464567D02*
Y474409D01*
Y482283D01*
Y492126D01*
X278346Y488189D02*
Y488583D01*
X274803Y492126D02*
X278346Y488583D01*
X267717Y492126D02*
X274803D01*
X267717Y464567D02*
X274803D01*
X278346Y468110D01*
Y468504D01*
X291339Y506791D02*
X300000D01*
X324677Y497638D02*
X336321Y485994D01*
Y484252D02*
Y485994D01*
X296170Y497638D02*
X324677D01*
X296170Y486114D02*
Y497638D01*
Y486114D02*
X298819Y483465D01*
X291339Y502469D02*
X296170Y497638D01*
X296170D01*
X349410Y485039D02*
Y485236D01*
X348622Y484252D02*
X349410Y485039D01*
X323130Y469319D02*
X336321Y482510D01*
Y484252D01*
X323130Y464567D02*
Y469319D01*
Y450787D02*
Y464567D01*
X336321Y484252D02*
X348425D01*
X348622D01*
X291575Y534055D02*
Y535827D01*
X291142Y533622D02*
X291575Y534055D01*
X291142Y515354D02*
Y533622D01*
Y507480D02*
Y515354D01*
Y507480D02*
X291339Y507283D01*
Y502469D02*
Y506791D01*
Y507283D01*
X349410Y485236D02*
X376378Y512205D01*
Y560669D01*
X385512Y569803D01*
X386575D01*
D40*
X296260Y357323D02*
X296260Y357323D01*
X451575Y311024D02*
X475394D01*
X452001Y403543D02*
X453970Y401575D01*
X451575Y403543D02*
X452001D01*
X267717Y382788D02*
X272329Y387401D01*
X297244D01*
X470781Y401575D02*
X475394Y396962D01*
Y311024D02*
Y396962D01*
X453970Y401575D02*
X470781D01*
X267717Y247132D02*
X272329Y242520D01*
X267717Y247132D02*
Y382788D01*
X272329Y242520D02*
X470781D01*
X475394Y247132D01*
Y311024D01*
D41*
X307478Y478346D02*
X313059D01*
X317222Y482510D01*
Y484252D01*
X278346Y473228D02*
Y475787D01*
Y478346D01*
X285236Y507480D02*
Y515354D01*
X278346Y478346D02*
Y479921D01*
X365642Y476272D02*
Y476378D01*
X364370Y475000D02*
X365642Y476272D01*
X383358Y476272D02*
Y476378D01*
X382086Y475000D02*
X383358Y476272D01*
X376665Y471366D02*
X382086D01*
Y464370D02*
Y471366D01*
Y475000D01*
X358949Y471591D02*
X364370D01*
X416736Y529528D02*
Y545275D01*
Y555318D01*
X261417Y516339D02*
X261614Y516535D01*
X262992Y515158D02*
X270472D01*
X261614Y516929D02*
X261811Y517126D01*
Y522047D01*
X274410Y499606D02*
X277953D01*
X285236Y506890D01*
Y507480D01*
X278346Y478346D02*
X283183D01*
X284646Y476884D01*
X286465D01*
X307874Y506496D02*
X316732D01*
X364370Y464173D02*
Y471591D01*
Y475000D01*
X376378Y471654D02*
X376522Y471510D01*
X376665Y471366D01*
X416736Y555318D02*
X416832Y555415D01*
X416929Y555512D01*
X286575Y533661D02*
Y535827D01*
X285236Y532323D02*
X286575Y533661D01*
X285236Y515354D02*
Y532323D01*
X277559Y518110D02*
X277953Y518504D01*
X277559Y514468D02*
Y518110D01*
X355512Y546791D02*
X364901D01*
X286575Y584291D02*
Y602756D01*
X261614Y516535D02*
X262992Y515158D01*
X258090Y516339D02*
X261417D01*
X261614Y516535D02*
Y516929D01*
X286575Y584291D02*
X287008Y583858D01*
X316732Y506496D02*
X316929Y506299D01*
X364901Y546791D02*
X364931Y546821D01*
X364961Y546850D01*
X346457Y454724D02*
X348425Y456693D01*
X337795Y454724D02*
X346457D01*
X331496Y544488D02*
X331535Y544449D01*
Y535866D02*
Y544449D01*
Y535866D02*
X331575Y535827D01*
D42*
X335925Y424508D02*
Y424803D01*
X332677Y421260D02*
X335925Y424508D01*
X332677Y414961D02*
Y421260D01*
X257303Y508150D02*
X261319D01*
X261614Y508268D02*
X262598Y509252D01*
X270472D01*
X271161Y509941D02*
X277559D01*
X270472Y509252D02*
X271161Y509941D01*
X345276Y548819D02*
X351575Y542520D01*
X345276Y548819D02*
Y594278D01*
X345852Y594855D01*
X351575Y535827D02*
Y542520D01*
X360657Y594855D02*
X366647Y588865D01*
X345852Y594855D02*
X360657D01*
X389555Y588865D02*
X395270Y583151D01*
X395589D01*
X401304Y577436D01*
Y576137D02*
Y577436D01*
Y576137D02*
X401575Y575866D01*
X366647Y588865D02*
X389555D01*
D43*
X353740Y414961D02*
X355709Y416929D01*
X344488Y414961D02*
X353740D01*
X344488Y376378D02*
Y414961D01*
X335236Y367126D02*
X344488Y376378D01*
X342913Y322835D02*
X353740D01*
X334350Y330413D02*
Y330709D01*
X333079Y329142D02*
X334350Y330413D01*
X332957Y329142D02*
X333079D01*
X331102Y327287D02*
X332957Y329142D01*
X331102Y322835D02*
Y327287D01*
X360130Y420957D02*
Y421350D01*
X342913Y283268D02*
Y322835D01*
X336220Y276575D02*
X342913Y283268D01*
X300000Y512106D02*
X307578D01*
X307874Y512402D01*
X371850Y464173D02*
Y465748D01*
X370579Y467020D02*
X371850Y465748D01*
X389567Y464370D02*
Y465945D01*
X388295Y467217D02*
X389567Y465945D01*
X388295Y467217D02*
Y476378D01*
X353150Y433071D02*
X368110Y448032D01*
Y456693D01*
X324016Y433071D02*
X353150D01*
X326378Y342913D02*
X350787D01*
X355906Y337795D01*
Y325000D02*
Y337795D01*
X355709Y416929D02*
Y425787D01*
X369291Y439370D01*
X382283D01*
X385827Y442913D01*
Y456890D01*
X402362Y545275D02*
X410036D01*
X401575Y529528D02*
X410036D01*
X433563Y484252D02*
X452756D01*
X433563Y484252D02*
X433563Y484252D01*
X433563Y555118D02*
X452756D01*
X433563Y555118D02*
X433563Y555118D01*
X296575Y515531D02*
Y535827D01*
Y515531D02*
X298630Y513476D01*
Y512984D02*
Y513476D01*
Y512984D02*
X299508Y512106D01*
X300000D01*
X381102Y529528D02*
X381102Y529528D01*
X381496Y545275D02*
X388976D01*
X306693Y593307D02*
Y602638D01*
X306575Y602756D02*
X306693Y602638D01*
X301181Y593932D02*
Y602362D01*
X301575Y602756D01*
X296575Y587677D02*
X299606Y584646D01*
X296575Y587677D02*
Y602756D01*
X363779Y526772D02*
X370079Y533071D01*
X347161Y526772D02*
X363779D01*
X346575Y527357D02*
X347161Y526772D01*
X346575Y527357D02*
Y535827D01*
X355512Y586791D02*
X388248D01*
X396575Y578465D01*
X370079Y533071D02*
Y562520D01*
X383425Y575866D01*
X367323Y569291D02*
X380040Y582009D01*
X388031D01*
X391575Y578465D01*
X364173Y551575D02*
X367323Y554724D01*
Y569291D01*
X355728Y551575D02*
X364173D01*
X355512Y551791D02*
X355728Y551575D01*
X311575Y592362D02*
Y602756D01*
X333465Y561417D02*
Y570472D01*
X311575Y592362D02*
X333465Y570472D01*
X381102Y529528D02*
X381929D01*
X389764D01*
X296575Y535827D02*
Y547362D01*
X298425Y549213D01*
X351575Y602756D02*
X357480Y596850D01*
X385830Y605118D02*
X397244D01*
X381106Y600394D02*
X385830Y605118D01*
X368898Y600394D02*
X381106D01*
X397244Y605118D02*
X401968Y600394D01*
X433563Y548130D02*
Y555118D01*
Y484252D02*
Y497146D01*
X388295Y476378D02*
Y484252D01*
X321575Y523307D02*
Y535827D01*
X326575Y525787D02*
Y535827D01*
X321575Y523307D02*
X321614Y523268D01*
X321654Y523228D01*
X370579Y467020D02*
Y476378D01*
X326575Y525787D02*
X327953Y524409D01*
Y518898D02*
Y524409D01*
X370157Y476799D02*
Y483488D01*
Y476799D02*
X370579Y476378D01*
X369736Y483909D02*
X370157Y483488D01*
X336575Y524055D02*
Y535827D01*
Y524055D02*
X338189Y522441D01*
X341575Y527323D02*
X347244Y521654D01*
X341575Y527323D02*
Y535827D01*
X433465Y497244D02*
X433563Y497146D01*
X433465Y548032D02*
X433514Y548081D01*
X433563Y548130D01*
X396575Y575866D02*
Y578465D01*
X391575Y575866D02*
Y578465D01*
X383425Y575866D02*
X386575D01*
X357480Y596850D02*
X381898D01*
X401968Y597126D02*
Y600394D01*
X390102Y593307D02*
X391283Y592126D01*
X391968D01*
X385441Y593307D02*
X390102D01*
X381898Y596850D02*
X385441Y593307D01*
X330315Y276575D02*
X336220D01*
X353740Y322835D02*
X355906Y325000D01*
X330315Y367126D02*
X335236D01*
X322835Y346457D02*
Y431890D01*
X324016Y433071D01*
X322835Y346457D02*
X326378Y342913D01*
X337795Y553937D02*
Y592126D01*
X298425Y549213D02*
X333071D01*
X337795Y553937D01*
D44*
X286306Y483969D02*
X287106Y483169D01*
X288878D02*
X289370Y482677D01*
X287106Y483169D02*
X288878D01*
X280772Y483969D02*
X286306D01*
D45*
X316122Y565354D02*
D03*
D46*
X287008Y608268D02*
X286009Y608169D01*
X285049Y607878D01*
X284164Y607405D01*
X283389Y606769D01*
X282752Y605993D01*
X282279Y605108D01*
X281988Y604148D01*
X281890Y603150D01*
X277953Y532784D02*
X278972Y532918D01*
X279921Y533312D01*
X280737Y533937D01*
X281362Y534753D01*
X281756Y535702D01*
X281890Y536721D01*
X263780Y532784D02*
X262752Y532717D01*
X261742Y532516D01*
X260766Y532185D01*
X259843Y531729D01*
X258986Y531157D01*
X258212Y530478D01*
X257533Y529703D01*
X256961Y528847D01*
X256505Y527923D01*
X256174Y526948D01*
X255973Y525938D01*
X255906Y524910D01*
X255905Y226378D02*
X255973Y225350D01*
X256174Y224340D01*
X256505Y223365D01*
X256960Y222441D01*
X257533Y221585D01*
X258212Y220810D01*
X258986Y220131D01*
X259842Y219559D01*
X260766Y219103D01*
X261742Y218772D01*
X262752Y218571D01*
X263779Y218504D01*
X484252D02*
X485280Y218571D01*
X486290Y218772D01*
X487265Y219103D01*
X488189Y219559D01*
X489045Y220131D01*
X489820Y220810D01*
X490499Y221585D01*
X491071Y222441D01*
X491527Y223365D01*
X491858Y224340D01*
X492059Y225350D01*
X492126Y226378D01*
X492126Y600394D02*
X492059Y601421D01*
X491858Y602432D01*
X491527Y603407D01*
X491071Y604331D01*
X490499Y605187D01*
X489820Y605962D01*
X489045Y606641D01*
X488189Y607213D01*
X487265Y607668D01*
X486290Y608000D01*
X485280Y608200D01*
X484252Y608268D01*
X255905Y226378D02*
X255905Y524910D01*
X287008Y608268D02*
X484252Y608268D01*
X281890Y536684D02*
Y603150D01*
X263780Y532784D02*
X277953D01*
X492126Y226378D02*
X492126Y600394D01*
X263779Y218504D02*
X484252D01*
D47*
X406575Y574803D02*
D03*
X401575D02*
D03*
X406575Y569803D02*
D03*
X401575D02*
D03*
X396575Y574803D02*
D03*
X391575D02*
D03*
X396575Y569803D02*
D03*
X391575D02*
D03*
X386575Y574803D02*
D03*
Y569803D02*
D03*
X391968Y591063D02*
D03*
X396969D02*
D03*
X391968Y596063D02*
D03*
X396969D02*
D03*
X401968Y591063D02*
D03*
Y596063D02*
D03*
X295336Y450078D02*
D03*
Y455984D02*
D03*
X304331Y455905D02*
D03*
Y462205D02*
D03*
Y467717D02*
D03*
Y450000D02*
D03*
X376522Y471510D02*
D03*
X358805Y471735D02*
D03*
X416832Y555415D02*
D03*
X261811Y522047D02*
D03*
X274410Y499606D02*
D03*
X286465Y476884D02*
D03*
X316831Y506398D02*
D03*
X381496Y545275D02*
D03*
X381929Y529528D02*
D03*
X306693Y593307D02*
D03*
X301181Y593932D02*
D03*
X299606Y584646D02*
D03*
X333465Y561417D02*
D03*
X337795Y592126D02*
D03*
X368898Y600394D02*
D03*
X433514Y548081D02*
D03*
Y497195D02*
D03*
X388295Y484252D02*
D03*
X321614Y523268D02*
D03*
X327953Y518898D02*
D03*
X369736Y483909D02*
D03*
X347244Y521654D02*
D03*
X338189Y522441D02*
D03*
X277953Y518504D02*
D03*
X364931Y546821D02*
D03*
X286791Y584075D02*
D03*
X337795Y454724D02*
D03*
X331496Y544882D02*
D03*
D48*
X323327Y568966D02*
D03*
Y561742D02*
D03*
X319714Y572579D02*
D03*
Y565354D02*
D03*
Y558130D02*
D03*
X316102Y568966D02*
D03*
Y561742D02*
D03*
X312490Y572579D02*
D03*
Y565354D02*
D03*
Y558130D02*
D03*
X308878Y568966D02*
D03*
Y561742D02*
D03*
D49*
X296260Y262402D02*
D03*
Y280512D02*
D03*
X428740Y306102D02*
D03*
Y276575D02*
D03*
X409055Y306102D02*
D03*
Y276575D02*
D03*
X330315Y306102D02*
D03*
X428740Y396654D02*
D03*
Y367126D02*
D03*
X409055Y396654D02*
D03*
Y367126D02*
D03*
X330315Y396654D02*
D03*
X296260Y314764D02*
D03*
Y332874D02*
D03*
D50*
X330315Y276575D02*
D03*
Y367126D02*
D03*
D51*
X297244Y417401D02*
D03*
X451575Y535118D02*
D03*
Y464646D02*
D03*
X451575Y373544D02*
D03*
Y281024D02*
D03*
D52*
X297244Y387401D02*
D03*
Y357401D02*
D03*
X451575Y555118D02*
D03*
Y575118D02*
D03*
Y484646D02*
D03*
Y504646D02*
D03*
X451575Y433544D02*
D03*
Y403544D02*
D03*
Y341024D02*
D03*
Y311024D02*
D03*
D53*
X267717Y491339D02*
D03*
Y465354D02*
D03*
M02*
