G04*
G04 #@! TF.GenerationSoftware,Altium Limited,Altium Designer,20.0.13 (296)*
G04*
G04 Layer_Color=16711935*
%FSLAX25Y25*%
%MOIN*%
G70*
G01*
G75*
%ADD11C,0.00787*%
%ADD12C,0.00500*%
%ADD21C,0.00394*%
%ADD22C,0.00781*%
D11*
X287008Y608268D02*
X286009Y608169D01*
X285049Y607878D01*
X284164Y607405D01*
X283389Y606769D01*
X282752Y605993D01*
X282279Y605108D01*
X281988Y604148D01*
X281890Y603150D01*
X277953Y532784D02*
X278972Y532918D01*
X279921Y533312D01*
X280737Y533937D01*
X281362Y534753D01*
X281756Y535702D01*
X281890Y536721D01*
X263780Y532784D02*
X262752Y532717D01*
X261742Y532516D01*
X260766Y532185D01*
X259843Y531729D01*
X258986Y531157D01*
X258212Y530478D01*
X257533Y529703D01*
X256961Y528847D01*
X256505Y527923D01*
X256174Y526948D01*
X255973Y525938D01*
X255906Y524910D01*
X255905Y226378D02*
X255973Y225350D01*
X256174Y224340D01*
X256505Y223365D01*
X256960Y222441D01*
X257533Y221585D01*
X258212Y220810D01*
X258986Y220131D01*
X259842Y219559D01*
X260766Y219103D01*
X261742Y218772D01*
X262752Y218571D01*
X263779Y218504D01*
X484252D02*
X485280Y218571D01*
X486290Y218772D01*
X487265Y219103D01*
X488189Y219559D01*
X489045Y220131D01*
X489820Y220810D01*
X490499Y221585D01*
X491071Y222441D01*
X491527Y223365D01*
X491858Y224340D01*
X492059Y225350D01*
X492126Y226378D01*
X492126Y600394D02*
X492059Y601421D01*
X491858Y602432D01*
X491527Y603407D01*
X491071Y604331D01*
X490499Y605187D01*
X489820Y605962D01*
X489045Y606641D01*
X488189Y607213D01*
X487265Y607668D01*
X486290Y608000D01*
X485280Y608200D01*
X484252Y608268D01*
X287008Y529921D02*
X286220D01*
X287008D01*
X286220D01*
X287008D01*
X255905Y226378D02*
X255905Y524910D01*
X287008Y608268D02*
X484252Y608268D01*
X281890Y536684D02*
Y603150D01*
X263780Y532784D02*
X277953D01*
X492126Y226378D02*
X492126Y600394D01*
X320866Y406890D02*
X435039D01*
Y356890D02*
Y406890D01*
X320866Y356890D02*
X435039D01*
X320866D02*
Y406890D01*
Y316339D02*
X435039D01*
Y266339D02*
Y316339D01*
X320866Y266339D02*
X435039D01*
X320866D02*
Y316339D01*
X263779Y218504D02*
X484252D01*
X287008Y608268D02*
X286009Y608169D01*
X285049Y607878D01*
X284164Y607405D01*
X283389Y606769D01*
X282752Y605993D01*
X282279Y605108D01*
X281988Y604148D01*
X281890Y603150D01*
X277953Y532784D02*
X278972Y532918D01*
X279921Y533312D01*
X280737Y533937D01*
X281362Y534753D01*
X281756Y535702D01*
X281890Y536721D01*
X263780Y532784D02*
X262752Y532717D01*
X261742Y532516D01*
X260766Y532185D01*
X259843Y531729D01*
X258986Y531157D01*
X258212Y530478D01*
X257533Y529703D01*
X256961Y528847D01*
X256505Y527923D01*
X256174Y526948D01*
X255973Y525938D01*
X255906Y524910D01*
X255905Y226378D02*
X255973Y225350D01*
X256174Y224340D01*
X256505Y223365D01*
X256960Y222441D01*
X257533Y221585D01*
X258212Y220810D01*
X258986Y220131D01*
X259842Y219559D01*
X260766Y219103D01*
X261742Y218772D01*
X262752Y218571D01*
X263779Y218504D01*
X484252D02*
X485280Y218571D01*
X486290Y218772D01*
X487265Y219103D01*
X488189Y219559D01*
X489045Y220131D01*
X489820Y220810D01*
X490499Y221585D01*
X491071Y222441D01*
X491527Y223365D01*
X491858Y224340D01*
X492059Y225350D01*
X492126Y226378D01*
X492126Y600394D02*
X492059Y601421D01*
X491858Y602432D01*
X491527Y603407D01*
X491071Y604331D01*
X490499Y605187D01*
X489820Y605962D01*
X489045Y606641D01*
X488189Y607213D01*
X487265Y607668D01*
X486290Y608000D01*
X485280Y608200D01*
X484252Y608268D01*
X287008Y529921D02*
X286220D01*
X287008D01*
X286220D01*
X287008D01*
X255905Y226378D02*
X255905Y524910D01*
X287008Y608268D02*
X484252Y608268D01*
X281890Y536684D02*
Y603150D01*
X263780Y532784D02*
X277953D01*
X492126Y226378D02*
X492126Y600394D01*
X320866Y406890D02*
X435039D01*
Y356890D02*
Y406890D01*
X320866Y356890D02*
X435039D01*
X320866D02*
Y406890D01*
Y316339D02*
X435039D01*
Y266339D02*
Y316339D01*
X320866Y266339D02*
X435039D01*
X320866D02*
Y316339D01*
X263779Y218504D02*
X484252D01*
D12*
X257087Y533858D02*
Y604724D01*
X281890D01*
X357480D01*
Y533858D02*
Y604724D01*
X281890Y533858D02*
X357480D01*
X257087D02*
X281890D01*
Y604724D01*
X257087Y533858D02*
Y604724D01*
X281890D01*
X357480D01*
Y533858D02*
Y604724D01*
X281890Y533858D02*
X357480D01*
X257087D02*
X281890D01*
Y604724D01*
X257087Y533858D02*
Y604724D01*
X281890D01*
X357480D01*
Y533858D02*
Y604724D01*
X281890Y533858D02*
X357480D01*
X257087D02*
X281890D01*
Y604724D01*
X257087Y533858D02*
Y604724D01*
X281890D01*
X357480D01*
Y533858D02*
Y604724D01*
X281890Y533858D02*
X357480D01*
X257087D02*
X281890D01*
Y604724D01*
D21*
X490945Y266063D02*
Y355984D01*
X443701D02*
X490945D01*
X443701Y266063D02*
Y355984D01*
Y266063D02*
X490945D01*
Y358583D02*
Y448504D01*
X443701D02*
X490945D01*
X443701Y358583D02*
Y448504D01*
Y358583D02*
X490945D01*
X443701Y450709D02*
Y518583D01*
Y450709D02*
X490945D01*
Y518583D01*
X443701D02*
X490945D01*
X443701Y521181D02*
Y589055D01*
Y521181D02*
X490945D01*
Y589055D01*
X443701D02*
X490945D01*
X278937Y462874D02*
Y493819D01*
X259055D02*
X278937D01*
X259055Y462874D02*
Y493819D01*
Y462874D02*
X278937D01*
X309843Y445276D02*
X324016D01*
X309843Y456299D02*
X324016D01*
Y445276D02*
Y456299D01*
X309843Y445276D02*
Y456299D01*
X301772Y491929D02*
X308465D01*
X301772Y488386D02*
X308465D01*
X301772D02*
Y491929D01*
X308465Y488386D02*
Y491929D01*
X257874Y432362D02*
X305118D01*
Y342441D02*
Y432362D01*
X257874Y342441D02*
X305118D01*
X257874D02*
Y432362D01*
X356073Y317677D02*
X373061D01*
Y331929D01*
X356073D02*
X373061D01*
X356073Y317677D02*
Y331929D01*
X305020Y513779D02*
X310728D01*
X305020Y505118D02*
X310728D01*
Y513779D01*
X305020Y505118D02*
Y513779D01*
X309843Y459055D02*
X324016D01*
X309843Y470079D02*
X324016D01*
Y459055D02*
Y470079D01*
X309843Y459055D02*
Y470079D01*
X268406Y507874D02*
Y516535D01*
X274114Y507874D02*
Y516535D01*
X268406Y507874D02*
X274114D01*
X268406Y516535D02*
X274114D01*
X388976Y548819D02*
X402362D01*
X388976Y541732D02*
X402362D01*
X388976D02*
Y548819D01*
X402362Y541732D02*
Y548819D01*
X335335Y422933D02*
X341831D01*
X335335Y426673D02*
X341831D01*
Y422933D02*
Y426673D01*
X335335Y422933D02*
Y426673D01*
X330709Y326181D02*
X343307D01*
X330709Y319488D02*
X343307D01*
X330709D02*
Y326181D01*
X343307Y319488D02*
Y326181D01*
X379921Y463386D02*
X391732D01*
X379921Y457874D02*
X391732D01*
Y463386D01*
X379921Y457874D02*
Y463386D01*
X333760Y328839D02*
X340256D01*
X333760Y332579D02*
X340256D01*
Y328839D02*
Y332579D01*
X333760Y328839D02*
Y332579D01*
X351772Y472047D02*
Y484646D01*
X345079Y472047D02*
Y484646D01*
X351772D01*
X345079Y472047D02*
X351772D01*
X362205Y457677D02*
Y463189D01*
X374016Y457677D02*
Y463189D01*
X362205Y457677D02*
X374016D01*
X362205Y463189D02*
X374016D01*
X388602Y586870D02*
X405138D01*
X388602D02*
Y600256D01*
X405138D01*
Y586870D02*
Y600256D01*
X389370Y532874D02*
X401968D01*
X389370Y526181D02*
X401968D01*
X389370D02*
Y532874D01*
X401968Y526181D02*
Y532874D01*
X332283Y418307D02*
X344882D01*
X332283Y411614D02*
X344882D01*
X332283D02*
Y418307D01*
X344882Y411614D02*
Y418307D01*
X427854Y482382D02*
X434350D01*
X427854Y486122D02*
X434350D01*
Y482382D02*
Y486122D01*
X427854Y482382D02*
Y486122D01*
Y553248D02*
X434350D01*
X427854Y556988D02*
X434350D01*
Y553248D02*
Y556988D01*
X427854Y553248D02*
Y556988D01*
X384075Y578996D02*
X409075D01*
Y565610D02*
Y578996D01*
X384075Y565610D02*
X409075D01*
X384075D02*
Y578996D01*
X276476Y508957D02*
X280217D01*
X276476Y515453D02*
X280217D01*
X276476Y508957D02*
Y515453D01*
X280217Y508957D02*
Y515453D01*
X355679Y409803D02*
X372667D01*
Y424055D01*
X355679D02*
X372667D01*
X355679Y409803D02*
Y424055D01*
X490945Y266063D02*
Y355984D01*
X443701D02*
X490945D01*
X443701Y266063D02*
Y355984D01*
Y266063D02*
X490945D01*
Y358583D02*
Y448504D01*
X443701D02*
X490945D01*
X443701Y358583D02*
Y448504D01*
Y358583D02*
X490945D01*
X443701Y450709D02*
Y518583D01*
Y450709D02*
X490945D01*
Y518583D01*
X443701D02*
X490945D01*
X443701Y521181D02*
Y589055D01*
Y521181D02*
X490945D01*
Y589055D01*
X443701D02*
X490945D01*
X278937Y462874D02*
Y493819D01*
X259055D02*
X278937D01*
X259055Y462874D02*
Y493819D01*
Y462874D02*
X278937D01*
X309843Y445276D02*
X324016D01*
X309843Y456299D02*
X324016D01*
Y445276D02*
Y456299D01*
X309843Y445276D02*
Y456299D01*
X301772Y491929D02*
X308465D01*
X301772Y488386D02*
X308465D01*
X301772D02*
Y491929D01*
X308465Y488386D02*
Y491929D01*
X257874Y432362D02*
X305118D01*
Y342441D02*
Y432362D01*
X257874Y342441D02*
X305118D01*
X257874D02*
Y432362D01*
X356073Y317677D02*
X373061D01*
Y331929D01*
X356073D02*
X373061D01*
X356073Y317677D02*
Y331929D01*
X305020Y513779D02*
X310728D01*
X305020Y505118D02*
X310728D01*
Y513779D01*
X305020Y505118D02*
Y513779D01*
X309843Y459055D02*
X324016D01*
X309843Y470079D02*
X324016D01*
Y459055D02*
Y470079D01*
X309843Y459055D02*
Y470079D01*
X268406Y507874D02*
Y516535D01*
X274114Y507874D02*
Y516535D01*
X268406Y507874D02*
X274114D01*
X268406Y516535D02*
X274114D01*
X388976Y548819D02*
X402362D01*
X388976Y541732D02*
X402362D01*
X388976D02*
Y548819D01*
X402362Y541732D02*
Y548819D01*
X335335Y422933D02*
X341831D01*
X335335Y426673D02*
X341831D01*
Y422933D02*
Y426673D01*
X335335Y422933D02*
Y426673D01*
X330709Y326181D02*
X343307D01*
X330709Y319488D02*
X343307D01*
X330709D02*
Y326181D01*
X343307Y319488D02*
Y326181D01*
X379921Y463386D02*
X391732D01*
X379921Y457874D02*
X391732D01*
Y463386D01*
X379921Y457874D02*
Y463386D01*
X333760Y328839D02*
X340256D01*
X333760Y332579D02*
X340256D01*
Y328839D02*
Y332579D01*
X333760Y328839D02*
Y332579D01*
X351772Y472047D02*
Y484646D01*
X345079Y472047D02*
Y484646D01*
X351772D01*
X345079Y472047D02*
X351772D01*
X362205Y457677D02*
Y463189D01*
X374016Y457677D02*
Y463189D01*
X362205Y457677D02*
X374016D01*
X362205Y463189D02*
X374016D01*
X388602Y586870D02*
X405138D01*
X388602D02*
Y600256D01*
X405138D01*
Y586870D02*
Y600256D01*
X389370Y532874D02*
X401968D01*
X389370Y526181D02*
X401968D01*
X389370D02*
Y532874D01*
X401968Y526181D02*
Y532874D01*
X332283Y418307D02*
X344882D01*
X332283Y411614D02*
X344882D01*
X332283D02*
Y418307D01*
X344882Y411614D02*
Y418307D01*
X427854Y482382D02*
X434350D01*
X427854Y486122D02*
X434350D01*
Y482382D02*
Y486122D01*
X427854Y482382D02*
Y486122D01*
Y553248D02*
X434350D01*
X427854Y556988D02*
X434350D01*
Y553248D02*
Y556988D01*
X427854Y553248D02*
Y556988D01*
X384075Y578996D02*
X409075D01*
Y565610D02*
Y578996D01*
X384075Y565610D02*
X409075D01*
X384075D02*
Y578996D01*
X276476Y508957D02*
X280217D01*
X276476Y515453D02*
X280217D01*
X276476Y508957D02*
Y515453D01*
X280217Y508957D02*
Y515453D01*
X355679Y409803D02*
X372667D01*
Y424055D01*
X355679D02*
X372667D01*
X355679Y409803D02*
Y424055D01*
D22*
X272835Y551292D02*
X265454Y548481D01*
X272835Y545669D01*
X270374Y546724D02*
Y550238D01*
X265454Y553014D02*
X272835D01*
X265454D02*
X272835Y557935D01*
X265454D02*
X272835D01*
X265454Y562433D02*
X272835D01*
X265454Y559973D02*
Y564893D01*
Y570341D02*
Y565772D01*
X272835D01*
Y570341D01*
X268969Y565772D02*
Y568583D01*
X265454Y571571D02*
X272835D01*
X265454D02*
X272835Y576491D01*
X265454D02*
X272835D01*
X265454Y578529D02*
X272835D01*
X265454D02*
X272835Y583449D01*
X265454D02*
X272835D01*
Y591111D02*
X265454Y588299D01*
X272835Y585488D01*
X270374Y586542D02*
Y590057D01*
X272835Y551292D02*
X265454Y548481D01*
X272835Y545669D01*
X270374Y546724D02*
Y550238D01*
X265454Y553014D02*
X272835D01*
X265454D02*
X272835Y557935D01*
X265454D02*
X272835D01*
X265454Y562433D02*
X272835D01*
X265454Y559973D02*
Y564893D01*
Y570341D02*
Y565772D01*
X272835D01*
Y570341D01*
X268969Y565772D02*
Y568583D01*
X265454Y571571D02*
X272835D01*
X265454D02*
X272835Y576491D01*
X265454D02*
X272835D01*
X265454Y578529D02*
X272835D01*
X265454D02*
X272835Y583449D01*
X265454D02*
X272835D01*
Y591111D02*
X265454Y588299D01*
X272835Y585488D01*
X270374Y586542D02*
Y590057D01*
X272835Y551292D02*
X265454Y548481D01*
X272835Y545669D01*
X270374Y546724D02*
Y550238D01*
X265454Y553014D02*
X272835D01*
X265454D02*
X272835Y557935D01*
X265454D02*
X272835D01*
X265454Y562433D02*
X272835D01*
X265454Y559973D02*
Y564893D01*
Y570341D02*
Y565772D01*
X272835D01*
Y570341D01*
X268969Y565772D02*
Y568583D01*
X265454Y571571D02*
X272835D01*
X265454D02*
X272835Y576491D01*
X265454D02*
X272835D01*
X265454Y578529D02*
X272835D01*
X265454D02*
X272835Y583449D01*
X265454D02*
X272835D01*
Y591111D02*
X265454Y588299D01*
X272835Y585488D01*
X270374Y586542D02*
Y590057D01*
X272835Y551292D02*
X265454Y548481D01*
X272835Y545669D01*
X270374Y546724D02*
Y550238D01*
X265454Y553014D02*
X272835D01*
X265454D02*
X272835Y557935D01*
X265454D02*
X272835D01*
X265454Y562433D02*
X272835D01*
X265454Y559973D02*
Y564893D01*
Y570341D02*
Y565772D01*
X272835D01*
Y570341D01*
X268969Y565772D02*
Y568583D01*
X265454Y571571D02*
X272835D01*
X265454D02*
X272835Y576491D01*
X265454D02*
X272835D01*
X265454Y578529D02*
X272835D01*
X265454D02*
X272835Y583449D01*
X265454D02*
X272835D01*
Y591111D02*
X265454Y588299D01*
X272835Y585488D01*
X270374Y586542D02*
Y590057D01*
M02*
