M48
;Layer_Color=9474304
;FILE_FORMAT=2:5
INCH,TZ
;TYPE=PLATED
T1F00S00C0.01181
T2F00S00C0.01968
T4F00S00C0.02756
T5F00S00C0.05118
T6F00S00C0.06299
%
T01
X319714Y558130
Y565354
Y572579
X316102Y568966
Y561742
X323327
Y568966
X312490Y572579
Y565354
Y558130
X308878Y561742
Y568966
T02
X295336Y450078
Y455984
X304331Y455905
Y450000
Y462205
Y467717
X337795Y454724
X358805Y471735
X376522Y471510
X369736Y483909
X388295Y484252
X381929Y529528
X381496Y545275
X364931Y546821
X331496Y544882
X333465Y561417
X337795Y592126
X368898Y600394
X416832Y555415
X433514Y548081
Y497195
X347244Y521654
X338189Y522441
X327953Y518898
X321614Y523268
X316831Y506398
X274410Y499606
X277953Y518504
X261811Y522047
X286465Y476884
X286791Y584075
X299606Y584646
X301181Y593932
X306693Y593307
T04
X386575Y569803
X391575
Y574803
X396575
X401575
X406575
Y569803
X401575
X396575
X386575Y574803
X391968Y591063
X396969
Y596063
X391968
X401968
Y591063
T05
X330315Y276575
Y306102
X409055
X428740
Y276575
X409055
X296260Y280512
Y262402
Y314764
Y332874
X330315Y367126
Y396654
X409055
X428740
Y367126
X409055
T06
X451575Y281024
Y311024
X297244Y357401
Y387401
Y417401
X451575Y403544
Y433544
X451575Y464646
X451575Y373544
Y341024
X451575Y484646
Y504646
Y535118
Y555118
Y575118
M30
