G04 Layer_Color=65535*
%FSLAX25Y25*%
%MOIN*%
G70*
G01*
G75*
%ADD42C,0.00984*%
%ADD43C,0.01000*%
%ADD46C,0.00787*%
%ADD54C,0.00500*%
%ADD55C,0.00591*%
%ADD56C,0.00600*%
%ADD57R,0.00803X0.05118*%
%ADD58R,0.00803X0.05118*%
%ADD59R,0.05118X0.00803*%
%ADD60R,0.00803X0.05118*%
%ADD61R,0.02165X0.05512*%
D42*
X380217Y416929D02*
X379478Y417355D01*
Y416503D01*
X380217Y416929D01*
X330807Y264272D02*
X330069Y264698D01*
Y263845D01*
X330807Y264272D01*
Y354823D02*
X330069Y355249D01*
Y354397D01*
X330807Y354823D01*
X375689Y464173D02*
X374951Y464600D01*
Y463747D01*
X375689Y464173D01*
X393406Y464370D02*
X392667Y464796D01*
Y463944D01*
X393406Y464370D01*
X380610Y324803D02*
X379872Y325229D01*
Y324377D01*
X380610Y324803D01*
X283661Y483465D02*
X282923Y483891D01*
Y483038D01*
X283661Y483465D01*
D43*
X401372Y333133D02*
Y327134D01*
Y330134D01*
X405371D01*
Y333133D01*
Y327134D01*
X410369D02*
X408370D01*
X407371Y328134D01*
Y330134D01*
X408370Y331133D01*
X410369D01*
X411369Y330134D01*
Y329134D01*
X407371D01*
X414368Y331133D02*
X416368D01*
X417367Y330134D01*
Y327134D01*
X414368D01*
X413369Y328134D01*
X414368Y329134D01*
X417367D01*
X420366Y332133D02*
Y331133D01*
X419367D01*
X421366D01*
X420366D01*
Y328134D01*
X421366Y327134D01*
X424365Y325135D02*
Y331133D01*
X427364D01*
X428364Y330134D01*
Y328134D01*
X427364Y327134D01*
X424365D01*
X431363Y331133D02*
X433362D01*
X434362Y330134D01*
Y327134D01*
X431363D01*
X430363Y328134D01*
X431363Y329134D01*
X434362D01*
X440360Y333133D02*
Y327134D01*
X437361D01*
X436361Y328134D01*
Y330134D01*
X437361Y331133D01*
X440360D01*
X413095Y424471D02*
X409096D01*
Y421472D01*
X411095D01*
X409096D01*
Y418473D01*
X415094Y422472D02*
Y418473D01*
Y420472D01*
X416094Y421472D01*
X417093Y422472D01*
X418093D01*
X421092Y418473D02*
X423091D01*
X422092D01*
Y422472D01*
X421092D01*
X430089Y424471D02*
Y418473D01*
X427090D01*
X426090Y419473D01*
Y421472D01*
X427090Y422472D01*
X430089D01*
X434088Y416474D02*
X435087D01*
X436087Y417473D01*
Y422472D01*
X433088D01*
X432089Y421472D01*
Y419473D01*
X433088Y418473D01*
X436087D01*
X441085D02*
X439086D01*
X438087Y419473D01*
Y421472D01*
X439086Y422472D01*
X441085D01*
X442085Y421472D01*
Y420472D01*
X438087D01*
X502409Y332037D02*
X498410D01*
Y329038D01*
X500410D01*
X498410D01*
Y326039D01*
X504409D02*
X506408D01*
X505408D01*
Y332037D01*
X504409Y331038D01*
D46*
X387362Y560303D02*
X386818Y561052D01*
X385938Y560766D01*
Y559840D01*
X386818Y559554D01*
X387362Y560303D01*
X299606Y485236D02*
X298819D01*
X299606D01*
X287008Y529921D02*
X286220D01*
X287008D01*
X402756Y605563D02*
X402212Y606312D01*
X401332Y606026D01*
Y605100D01*
X402212Y604814D01*
X402756Y605563D01*
X394075Y564303D02*
X399075D01*
X394075Y562303D02*
Y564303D01*
X399075Y562303D02*
Y564303D01*
X421476Y562264D02*
Y582343D01*
X371673Y562264D02*
Y582343D01*
X421476D01*
X371673Y562264D02*
X421476D01*
X285827Y486122D02*
Y491043D01*
X292913Y486122D02*
Y491043D01*
X302165Y484252D02*
X304134D01*
X302165Y472441D02*
X304134D01*
X364149Y473031D02*
X372071D01*
X364149Y479724D02*
X372071D01*
X316075Y491220D02*
Y494949D01*
Y473555D02*
Y477283D01*
Y473555D02*
X337469D01*
Y491220D02*
Y494949D01*
Y473555D02*
Y477283D01*
X316075Y494949D02*
X337469D01*
X301673Y280315D02*
X307953D01*
X284567D02*
X290846D01*
X284567Y262598D02*
Y280315D01*
X301673Y262598D02*
X307953D01*
X284567D02*
X290846D01*
X307953D02*
Y280315D01*
X320866Y266339D02*
Y316339D01*
Y266339D02*
X435039D01*
Y316339D01*
X320866D02*
X435039D01*
X344882Y456496D02*
Y462795D01*
X351969Y456496D02*
Y462795D01*
X336221Y412401D02*
X340551D01*
X336221Y417520D02*
X340551D01*
Y412401D02*
Y417520D01*
X320866Y356890D02*
Y406890D01*
Y356890D02*
X435039D01*
Y406890D01*
X320866D02*
X435039D01*
X393307Y526968D02*
X397638D01*
X393307Y532087D02*
X397638D01*
Y526968D02*
Y532087D01*
X376299Y583524D02*
Y603602D01*
X417638Y583524D02*
Y603602D01*
X376299Y583524D02*
X417638D01*
X376299Y603602D02*
X417638D01*
X394468Y601563D02*
X399468D01*
Y603563D01*
X394468Y601563D02*
Y603563D01*
X374016Y457677D02*
Y460040D01*
X370866Y457677D02*
X374016D01*
X362205D02*
Y460040D01*
Y457677D02*
X365354D01*
X413100Y531988D02*
X413672D01*
X413100Y527067D02*
X413672D01*
X284567Y314961D02*
Y332677D01*
X301673D02*
X307953D01*
X284567D02*
X290846D01*
X307953Y314961D02*
Y332677D01*
X301673Y314961D02*
X307953D01*
X284567D02*
X290846D01*
X345866Y476378D02*
Y480709D01*
X350984Y476378D02*
Y480709D01*
X345866Y476378D02*
X350984D01*
X303346Y506299D02*
Y512598D01*
X296654Y506299D02*
Y512598D01*
X381866Y473031D02*
X389788D01*
X381866Y479724D02*
X389788D01*
X379921Y457874D02*
X383071D01*
X379921D02*
Y460236D01*
X388583Y457874D02*
X391732D01*
Y460236D01*
X334646Y320276D02*
X338976D01*
X334646Y325394D02*
X338976D01*
Y320276D02*
Y325394D01*
X413100Y547736D02*
X413672D01*
X413100Y542815D02*
X413672D01*
X393110Y542520D02*
X398228D01*
X393110Y548032D02*
X398228D01*
Y542520D02*
Y548032D01*
X313780Y469488D02*
X320079D01*
X313780Y459646D02*
X320079D01*
X257874Y432362D02*
X305118D01*
Y342441D02*
Y432362D01*
X257874Y342441D02*
X305118D01*
X257874D02*
Y432362D01*
X290555Y470079D02*
X292122D01*
X290555Y459055D02*
X292122D01*
X313780Y455709D02*
X320079D01*
X313780Y445866D02*
X320079D01*
X271346Y462874D02*
X273031D01*
X259055D02*
X263043D01*
X259055D02*
Y493819D01*
X271346D02*
X273031D01*
X259055D02*
X263043D01*
X282468Y503039D02*
X293910D01*
X282468Y511922D02*
X293910D01*
X283256Y510925D02*
X293122D01*
X283256Y519783D02*
X293122D01*
X443701Y521181D02*
Y589055D01*
Y521181D02*
X490945D01*
Y589055D01*
X443701D02*
X490945D01*
X443701Y450709D02*
Y518583D01*
Y450709D02*
X490945D01*
Y518583D01*
X443701D02*
X490945D01*
Y358583D02*
Y448504D01*
X443701D02*
X490945D01*
X443701Y358583D02*
Y448504D01*
Y358583D02*
X490945D01*
Y266063D02*
Y355984D01*
X443701D02*
X490945D01*
X443701Y266063D02*
Y355984D01*
Y266063D02*
X490945D01*
X287008Y608268D02*
X286009Y608169D01*
X285049Y607878D01*
X284164Y607405D01*
X283389Y606769D01*
X282752Y605993D01*
X282279Y605108D01*
X281988Y604148D01*
X281890Y603150D01*
X277953Y532784D02*
X278972Y532918D01*
X279921Y533312D01*
X280737Y533937D01*
X281362Y534753D01*
X281756Y535702D01*
X281890Y536721D01*
X263780Y532784D02*
X262752Y532717D01*
X261742Y532516D01*
X260766Y532185D01*
X259843Y531729D01*
X258986Y531157D01*
X258212Y530478D01*
X257533Y529703D01*
X256961Y528847D01*
X256505Y527923D01*
X256174Y526948D01*
X255973Y525938D01*
X255906Y524910D01*
X255905Y226378D02*
X255973Y225350D01*
X256174Y224340D01*
X256505Y223365D01*
X256960Y222441D01*
X257533Y221585D01*
X258212Y220810D01*
X258986Y220131D01*
X259842Y219559D01*
X260766Y219103D01*
X261742Y218772D01*
X262752Y218571D01*
X263779Y218504D01*
X484252D02*
X485280Y218571D01*
X486290Y218772D01*
X487265Y219103D01*
X488189Y219559D01*
X489045Y220131D01*
X489820Y220810D01*
X490499Y221585D01*
X491071Y222441D01*
X491527Y223365D01*
X491858Y224340D01*
X492059Y225350D01*
X492126Y226378D01*
X492126Y600394D02*
X492059Y601421D01*
X491858Y602432D01*
X491527Y603407D01*
X491071Y604331D01*
X490499Y605187D01*
X489820Y605962D01*
X489045Y606641D01*
X488189Y607213D01*
X487265Y607668D01*
X486290Y608000D01*
X485280Y608200D01*
X484252Y608268D01*
X255905Y226378D02*
X255905Y524910D01*
X287008Y608268D02*
X484252Y608268D01*
X281890Y536684D02*
Y603150D01*
X263780Y532784D02*
X277953D01*
X492126Y226378D02*
X492126Y600394D01*
X263779Y218504D02*
X484252D01*
D54*
X354921Y604724D02*
X357480D01*
Y595079D02*
Y604724D01*
Y533858D02*
Y543504D01*
X354921Y533858D02*
X357480D01*
D55*
X305512Y498162D02*
X304856Y498818D01*
X303544D01*
X302888Y498162D01*
Y495539D01*
X303544Y494882D01*
X304856D01*
X305512Y495539D01*
X306824Y494882D02*
X308136D01*
X307480D01*
Y498818D01*
X306824Y498162D01*
X328084Y469028D02*
X327428Y469684D01*
X326116D01*
X325460Y469028D01*
Y466405D01*
X326116Y465749D01*
X327428D01*
X328084Y466405D01*
X332020Y465749D02*
X329396D01*
X332020Y468372D01*
Y469028D01*
X331364Y469684D01*
X330052D01*
X329396Y469028D01*
X328084Y455249D02*
X327428Y455905D01*
X326116D01*
X325460Y455249D01*
Y452625D01*
X326116Y451969D01*
X327428D01*
X328084Y452625D01*
X329396Y455249D02*
X330052Y455905D01*
X331364D01*
X332020Y455249D01*
Y454593D01*
X331364Y453937D01*
X330708D01*
X331364D01*
X332020Y453281D01*
Y452625D01*
X331364Y451969D01*
X330052D01*
X329396Y452625D01*
X285958Y456824D02*
X285302Y457480D01*
X283990D01*
X283334Y456824D01*
Y454200D01*
X283990Y453544D01*
X285302D01*
X285958Y454200D01*
X289238Y453544D02*
Y457480D01*
X287270Y455512D01*
X289894D01*
X287270Y501443D02*
X286746Y501968D01*
X285696D01*
X285172Y501443D01*
Y499344D01*
X285696Y498819D01*
X286746D01*
X287270Y499344D01*
X290419Y501968D02*
X288320D01*
Y500394D01*
X289370Y500918D01*
X289894D01*
X290419Y500394D01*
Y499344D01*
X289894Y498819D01*
X288845D01*
X288320Y499344D01*
X287139Y524540D02*
X286483Y525196D01*
X285172D01*
X284516Y524540D01*
Y521916D01*
X285172Y521260D01*
X286483D01*
X287139Y521916D01*
X291075Y525196D02*
X289763Y524540D01*
X288451Y523228D01*
Y521916D01*
X289107Y521260D01*
X290419D01*
X291075Y521916D01*
Y522572D01*
X290419Y523228D01*
X288451D01*
X314305Y514304D02*
X313649Y514960D01*
X312337D01*
X311681Y514304D01*
Y511680D01*
X312337Y511024D01*
X313649D01*
X314305Y511680D01*
X315617Y514960D02*
X318240D01*
Y514304D01*
X315617Y511680D01*
Y511024D01*
X415227Y512468D02*
Y515091D01*
X416539Y516403D01*
X417851Y515091D01*
Y512468D01*
Y514435D01*
X415227D01*
X419163Y512468D02*
Y515091D01*
X419819D01*
X420475Y514435D01*
Y512468D01*
Y514435D01*
X421131Y515091D01*
X421787Y514435D01*
Y512468D01*
X423099Y516403D02*
Y512468D01*
X425067D01*
X425723Y513124D01*
Y513779D01*
Y514435D01*
X425067Y515091D01*
X423099D01*
X427035Y516403D02*
X429658D01*
X428346D01*
Y512468D01*
X432938D02*
X431626D01*
X430970Y513124D01*
Y514435D01*
X431626Y515091D01*
X432938D01*
X433594Y514435D01*
Y513779D01*
X430970D01*
X434906Y512468D02*
Y515091D01*
X435562D01*
X436218Y514435D01*
Y512468D01*
Y514435D01*
X436874Y515091D01*
X437530Y514435D01*
Y512468D01*
X438842Y511156D02*
Y515091D01*
X440810D01*
X441466Y514435D01*
Y513124D01*
X440810Y512468D01*
X438842D01*
X439239Y457875D02*
X438583Y457219D01*
Y455907D01*
X439239Y455252D01*
X441863D01*
X442519Y455907D01*
Y457219D01*
X441863Y457875D01*
X438583Y461155D02*
Y459843D01*
X439239Y459187D01*
X441863D01*
X442519Y459843D01*
Y461155D01*
X441863Y461811D01*
X439239D01*
X438583Y461155D01*
X442519Y463123D02*
X438583D01*
X442519Y465747D01*
X438583D01*
X442519Y467059D02*
Y468371D01*
Y467715D01*
X438583D01*
X439239Y467059D01*
X444756Y595537D02*
Y591602D01*
X446723D01*
X447379Y592257D01*
Y592913D01*
X446723Y593569D01*
X444756D01*
X446723D01*
X447379Y594225D01*
Y594881D01*
X446723Y595537D01*
X444756D01*
X450659Y591602D02*
X449347D01*
X448691Y592257D01*
Y593569D01*
X449347Y594225D01*
X450659D01*
X451315Y593569D01*
Y592913D01*
X448691D01*
X454595Y591602D02*
X453283D01*
X452627Y592257D01*
Y593569D01*
X453283Y594225D01*
X454595D01*
X455251Y593569D01*
Y592913D01*
X452627D01*
X456563Y594225D02*
Y591602D01*
Y592913D01*
X457219Y593569D01*
X457875Y594225D01*
X458531D01*
X460499Y595537D02*
X463122D01*
X461810D01*
Y591602D01*
X466402D02*
X465090D01*
X464434Y592257D01*
Y593569D01*
X465090Y594225D01*
X466402D01*
X467058Y593569D01*
Y592913D01*
X464434D01*
X468370Y591602D02*
Y594225D01*
X469026D01*
X469682Y593569D01*
Y591602D01*
Y593569D01*
X470338Y594225D01*
X470994Y593569D01*
Y591602D01*
X472306Y590290D02*
Y594225D01*
X474274D01*
X474930Y593569D01*
Y592257D01*
X474274Y591602D01*
X472306D01*
X438846Y576117D02*
X438190Y575461D01*
Y574149D01*
X438846Y573493D01*
X441469D01*
X442125Y574149D01*
Y575461D01*
X441469Y576117D01*
X438190Y579397D02*
Y578085D01*
X438846Y577429D01*
X441469D01*
X442125Y578085D01*
Y579397D01*
X441469Y580053D01*
X438846D01*
X438190Y579397D01*
X442125Y581365D02*
X438190D01*
X442125Y583988D01*
X438190D01*
X442125Y587924D02*
Y585300D01*
X439501Y587924D01*
X438846D01*
X438190Y587268D01*
Y585956D01*
X438846Y585300D01*
X263125Y440288D02*
X262469Y440944D01*
X261157D01*
X260501Y440288D01*
Y437665D01*
X261157Y437008D01*
X262469D01*
X263125Y437665D01*
X266405Y440944D02*
X265093D01*
X264437Y440288D01*
Y437665D01*
X265093Y437008D01*
X266405D01*
X267061Y437665D01*
Y440288D01*
X266405Y440944D01*
X268373Y437008D02*
Y440944D01*
X270996Y437008D01*
Y440944D01*
X272308Y440288D02*
X272964Y440944D01*
X274276D01*
X274932Y440288D01*
Y439632D01*
X274276Y438976D01*
X273620D01*
X274276D01*
X274932Y438320D01*
Y437665D01*
X274276Y437008D01*
X272964D01*
X272308Y437665D01*
X438058Y339503D02*
X437402Y338847D01*
Y337535D01*
X438058Y336879D01*
X440682D01*
X441338Y337535D01*
Y338847D01*
X440682Y339503D01*
X437402Y342783D02*
Y341471D01*
X438058Y340815D01*
X440682D01*
X441338Y341471D01*
Y342783D01*
X440682Y343439D01*
X438058D01*
X437402Y342783D01*
X441338Y344750D02*
X437402D01*
X441338Y347374D01*
X437402D01*
X441338Y350654D02*
X437402D01*
X439370Y348686D01*
Y351310D01*
X438846Y433597D02*
X438190Y432941D01*
Y431629D01*
X438846Y430973D01*
X441469D01*
X442125Y431629D01*
Y432941D01*
X441469Y433597D01*
X438190Y436877D02*
Y435565D01*
X438846Y434909D01*
X441469D01*
X442125Y435565D01*
Y436877D01*
X441469Y437533D01*
X438846D01*
X438190Y436877D01*
X442125Y438845D02*
X438190D01*
X442125Y441469D01*
X438190D01*
Y445404D02*
Y442781D01*
X440158D01*
X439501Y444093D01*
Y444748D01*
X440158Y445404D01*
X441469D01*
X442125Y444748D01*
Y443437D01*
X441469Y442781D01*
X360893Y337795D02*
Y333859D01*
X362861D01*
X363517Y334515D01*
Y337139D01*
X362861Y337795D01*
X360893D01*
X367453Y333859D02*
X364829D01*
X367453Y336483D01*
Y337139D01*
X366797Y337795D01*
X365485D01*
X364829Y337139D01*
X359319Y430314D02*
Y426379D01*
X361286D01*
X361943Y427035D01*
Y429658D01*
X361286Y430314D01*
X359319D01*
X363254Y429658D02*
X363910Y430314D01*
X365222D01*
X365878Y429658D01*
Y429002D01*
X365222Y428346D01*
X364566D01*
X365222D01*
X365878Y427691D01*
Y427035D01*
X365222Y426379D01*
X363910D01*
X363254Y427035D01*
X422835Y601968D02*
X421523D01*
X422179D01*
Y598688D01*
X421523Y598032D01*
X420867D01*
X420211Y598688D01*
X424147Y598032D02*
X425458D01*
X424802D01*
Y601968D01*
X424147Y601312D01*
X427297Y576771D02*
X425985D01*
X426641D01*
Y573491D01*
X425985Y572835D01*
X425329D01*
X424673Y573491D01*
X431233Y572835D02*
X428609D01*
X431233Y575459D01*
Y576115D01*
X430577Y576771D01*
X429265D01*
X428609Y576115D01*
X331628Y500393D02*
Y496457D01*
X334252D01*
X335564D02*
X336876D01*
X336220D01*
Y500393D01*
X335564Y499737D01*
X353544Y472968D02*
X357480D01*
Y475592D01*
X353544Y479528D02*
Y476904D01*
X357480D01*
Y479528D01*
X355512Y476904D02*
Y478216D01*
X353544Y480839D02*
X357480D01*
Y482807D01*
X356824Y483463D01*
X354200D01*
X353544Y482807D01*
Y480839D01*
X357480Y484775D02*
Y486087D01*
Y485431D01*
X353544D01*
X354200Y484775D01*
X376378Y453019D02*
Y455643D01*
X375722Y456299D01*
X374410D01*
X373754Y455643D01*
Y453019D01*
X374410Y452363D01*
X375722D01*
X375066Y453675D02*
X376378Y452363D01*
X375722D02*
X376378Y453019D01*
X377690Y452363D02*
X379002D01*
X378346D01*
Y456299D01*
X377690Y455643D01*
X396194Y454987D02*
Y457611D01*
X395538Y458267D01*
X394227D01*
X393571Y457611D01*
Y454987D01*
X394227Y454331D01*
X395538D01*
X394882Y455643D02*
X396194Y454331D01*
X395538D02*
X396194Y454987D01*
X400130Y454331D02*
X397506D01*
X400130Y456955D01*
Y457611D01*
X399474Y458267D01*
X398162D01*
X397506Y457611D01*
X337927Y458268D02*
Y462204D01*
X339895D01*
X340551Y461548D01*
Y460236D01*
X339895Y459580D01*
X337927D01*
X339239D02*
X340551Y458268D01*
X341863D02*
X343175D01*
X342519D01*
Y462204D01*
X341863Y461548D01*
X364830Y481497D02*
Y485432D01*
X366798D01*
X367454Y484776D01*
Y483465D01*
X366798Y482809D01*
X364830D01*
X366142D02*
X367454Y481497D01*
X368766Y484776D02*
X369422Y485432D01*
X370734D01*
X371390Y484776D01*
Y484121D01*
X370734Y483465D01*
X370078D01*
X370734D01*
X371390Y482809D01*
Y482153D01*
X370734Y481497D01*
X369422D01*
X368766Y482153D01*
X382547Y481497D02*
Y485432D01*
X384515D01*
X385171Y484776D01*
Y483465D01*
X384515Y482809D01*
X382547D01*
X383859D02*
X385171Y481497D01*
X389107Y485432D02*
X386483D01*
Y483465D01*
X387795Y484121D01*
X388451D01*
X389107Y483465D01*
Y482153D01*
X388451Y481497D01*
X387139D01*
X386483Y482153D01*
X318897Y287535D02*
X314961D01*
Y289503D01*
X315617Y290159D01*
X316929D01*
X317585Y289503D01*
Y287535D01*
Y288847D02*
X318897Y290159D01*
X314961Y291471D02*
X318897D01*
Y294094D01*
X314961Y295406D02*
X315617D01*
X316929Y296718D01*
X315617Y298030D01*
X314961D01*
X316929Y296718D02*
X318897D01*
Y299342D02*
Y300654D01*
Y299998D01*
X314961D01*
X315617Y299342D01*
X290290Y477165D02*
Y473885D01*
X290946Y473229D01*
X292257D01*
X292913Y473885D01*
Y477165D01*
X294225Y473229D02*
X295537D01*
X294881D01*
Y477165D01*
X294225Y476509D01*
X262862Y531102D02*
Y527822D01*
X263518Y527166D01*
X264830D01*
X265486Y527822D01*
Y531102D01*
X269422Y527166D02*
X266798D01*
X269422Y529790D01*
Y530446D01*
X268766Y531102D01*
X267454D01*
X266798Y530446D01*
X278872Y272834D02*
X276248D01*
Y270866D01*
X277560D01*
X276248D01*
Y268898D01*
X280184Y272178D02*
X280839Y272834D01*
X282151D01*
X282807Y272178D01*
Y271522D01*
X282151Y270866D01*
X281495D01*
X282151D01*
X282807Y270210D01*
Y269554D01*
X282151Y268898D01*
X280839D01*
X280184Y269554D01*
X312863Y324802D02*
Y320867D01*
X315487D01*
X319423Y324802D02*
X316799D01*
Y320867D01*
X319423D01*
X316799Y322835D02*
X318111D01*
X320735Y324802D02*
Y320867D01*
X322703D01*
X323358Y321523D01*
Y324147D01*
X322703Y324802D01*
X320735D01*
X327294Y320867D02*
X324670D01*
X327294Y323491D01*
Y324147D01*
X326638Y324802D01*
X325326D01*
X324670Y324147D01*
X313257Y416141D02*
Y412205D01*
X315881D01*
X319816Y416141D02*
X317193D01*
Y412205D01*
X319816D01*
X317193Y414173D02*
X318505D01*
X321128Y416141D02*
Y412205D01*
X323096D01*
X323752Y412861D01*
Y415485D01*
X323096Y416141D01*
X321128D01*
X325064Y415485D02*
X325720Y416141D01*
X327032D01*
X327688Y415485D01*
Y414829D01*
X327032Y414173D01*
X326376D01*
X327032D01*
X327688Y413517D01*
Y412861D01*
X327032Y412205D01*
X325720D01*
X325064Y412861D01*
X388454Y554724D02*
Y550788D01*
X391078D01*
X395013Y554724D02*
X392389D01*
Y550788D01*
X395013D01*
X392389Y552756D02*
X393701D01*
X396325Y554724D02*
Y550788D01*
X398293D01*
X398949Y551444D01*
Y554068D01*
X398293Y554724D01*
X396325D01*
X402229Y550788D02*
Y554724D01*
X400261Y552756D01*
X402885D01*
X388454Y538582D02*
Y534646D01*
X391078D01*
X395013Y538582D02*
X392389D01*
Y534646D01*
X395013D01*
X392389Y536614D02*
X393701D01*
X396325Y538582D02*
Y534646D01*
X398293D01*
X398949Y535302D01*
Y537926D01*
X398293Y538582D01*
X396325D01*
X402885D02*
X400261D01*
Y536614D01*
X401573Y537270D01*
X402229D01*
X402885Y536614D01*
Y535302D01*
X402229Y534646D01*
X400917D01*
X400261Y535302D01*
X428216Y488583D02*
Y492519D01*
X430184D01*
X430840Y491863D01*
Y490551D01*
X430184Y489895D01*
X428216D01*
X429528D02*
X430840Y488583D01*
X434776Y492519D02*
X433464Y491863D01*
X432152Y490551D01*
Y489239D01*
X432808Y488583D01*
X434120D01*
X434776Y489239D01*
Y489895D01*
X434120Y490551D01*
X432152D01*
X408138Y549607D02*
Y553543D01*
X410105D01*
X410761Y552887D01*
Y551575D01*
X410105Y550919D01*
X408138D01*
X409449D02*
X410761Y549607D01*
X412073Y550263D02*
X412729Y549607D01*
X414041D01*
X414697Y550263D01*
Y552887D01*
X414041Y553543D01*
X412729D01*
X412073Y552887D01*
Y552231D01*
X412729Y551575D01*
X414697D01*
X408466Y534253D02*
Y538188D01*
X410434D01*
X411090Y537532D01*
Y536221D01*
X410434Y535565D01*
X408466D01*
X409778D02*
X411090Y534253D01*
X412402D02*
X413714D01*
X413058D01*
Y538188D01*
X412402Y537532D01*
X415682D02*
X416338Y538188D01*
X417650D01*
X418305Y537532D01*
Y534909D01*
X417650Y534253D01*
X416338D01*
X415682Y534909D01*
Y537532D01*
X334122Y335434D02*
Y339369D01*
X336090D01*
X336746Y338714D01*
Y337402D01*
X336090Y336746D01*
X334122D01*
X335434D02*
X336746Y335434D01*
X340681D02*
X338057D01*
X340681Y338057D01*
Y338714D01*
X340025Y339369D01*
X338714D01*
X338057Y338714D01*
X335697Y429922D02*
Y433858D01*
X337665D01*
X338320Y433202D01*
Y431890D01*
X337665Y431234D01*
X335697D01*
X337009D02*
X338320Y429922D01*
X341600D02*
Y433858D01*
X339632Y431890D01*
X342256D01*
X302362Y515618D02*
X298426D01*
Y517586D01*
X299082Y518242D01*
X300394D01*
X301050Y517586D01*
Y515618D01*
Y516930D02*
X302362Y518242D01*
X299082Y519554D02*
X298426Y520210D01*
Y521522D01*
X299082Y522177D01*
X299738D01*
X300394Y521522D01*
X301050Y522177D01*
X301706D01*
X302362Y521522D01*
Y520210D01*
X301706Y519554D01*
X301050D01*
X300394Y520210D01*
X299738Y519554D01*
X299082D01*
X300394Y520210D02*
Y521522D01*
X260763Y459580D02*
X260107Y460236D01*
X258795D01*
X258139Y459580D01*
Y456956D01*
X258795Y456300D01*
X260107D01*
X260763Y456956D01*
X264042Y460236D02*
X262731D01*
X262074Y459580D01*
Y456956D01*
X262731Y456300D01*
X264042D01*
X264698Y456956D01*
Y459580D01*
X264042Y460236D01*
X266010Y456300D02*
Y460236D01*
X268634Y456300D01*
Y460236D01*
X272570D02*
X271258Y459580D01*
X269946Y458268D01*
Y456956D01*
X270602Y456300D01*
X271914D01*
X272570Y456956D01*
Y457612D01*
X271914Y458268D01*
X269946D01*
X428610Y559056D02*
Y562992D01*
X430578D01*
X431234Y562335D01*
Y561024D01*
X430578Y560368D01*
X428610D01*
X429922D02*
X431234Y559056D01*
X432546Y562992D02*
X435170D01*
Y562335D01*
X432546Y559712D01*
Y559056D01*
X318897Y378414D02*
X314961D01*
Y380382D01*
X315617Y381038D01*
X316929D01*
X317585Y380382D01*
Y378414D01*
Y379726D02*
X318897Y381038D01*
X314961Y382350D02*
X318897D01*
Y384974D01*
X314961Y386286D02*
X315617D01*
X316929Y387598D01*
X315617Y388910D01*
X314961D01*
X316929Y387598D02*
X318897D01*
Y392845D02*
Y390222D01*
X316273Y392845D01*
X315617D01*
X314961Y392190D01*
Y390878D01*
X315617Y390222D01*
X276903Y325590D02*
X274279D01*
Y323622D01*
X275591D01*
X274279D01*
Y321654D01*
X280839D02*
X278215D01*
X280839Y324278D01*
Y324934D01*
X280183Y325590D01*
X278871D01*
X278215Y324934D01*
X269948Y520998D02*
X269292Y520342D01*
Y519030D01*
X269948Y518374D01*
X272572D01*
X273228Y519030D01*
Y520342D01*
X272572Y520998D01*
X269948Y522309D02*
X269292Y522965D01*
Y524277D01*
X269948Y524933D01*
X270604D01*
X271260Y524277D01*
X271916Y524933D01*
X272572D01*
X273228Y524277D01*
Y522965D01*
X272572Y522309D01*
X271916D01*
X271260Y522965D01*
X270604Y522309D01*
X269948D01*
X271260Y522965D02*
Y524277D01*
X294489Y493963D02*
Y491864D01*
X296063D01*
Y492914D01*
Y491864D01*
X297637D01*
Y496587D02*
X294489D01*
X296063Y495013D01*
Y497112D01*
X279921Y521721D02*
X275985D01*
Y523688D01*
X276641Y524344D01*
X277953D01*
X278609Y523688D01*
Y521721D01*
Y523032D02*
X279921Y524344D01*
Y525656D02*
Y526968D01*
Y526312D01*
X275985D01*
X276641Y525656D01*
X279921Y528936D02*
Y530248D01*
Y529592D01*
X275985D01*
X276641Y528936D01*
X261024Y503674D02*
X260368Y504330D01*
X259056D01*
X258400Y503674D01*
Y503018D01*
X259056Y502362D01*
X260368D01*
X261024Y501706D01*
Y501050D01*
X260368Y500394D01*
X259056D01*
X258400Y501050D01*
X262335Y500394D02*
X263647D01*
X262991D01*
Y504330D01*
X262335Y503674D01*
D56*
X413637Y569457D02*
X413447Y568886D01*
X413066Y568505D01*
X412495Y568315D01*
X412304D01*
X411733Y568505D01*
X411352Y568886D01*
X411161Y569457D01*
Y569648D01*
X411352Y570219D01*
X411733Y570600D01*
X412304Y570790D01*
X412495D01*
X413066Y570600D01*
X413447Y570219D01*
X413637Y569457D01*
Y568505D01*
X413447Y567553D01*
X413066Y566982D01*
X412495Y566791D01*
X412114D01*
X411542Y566982D01*
X411352Y567363D01*
X411161Y577115D02*
X411542Y577306D01*
X412114Y577877D01*
Y573878D01*
X415237Y577877D02*
X414665Y577687D01*
X414285Y577115D01*
X414094Y576163D01*
Y575592D01*
X414285Y574640D01*
X414665Y574068D01*
X415237Y573878D01*
X415618D01*
X416189Y574068D01*
X416570Y574640D01*
X416760Y575592D01*
Y576163D01*
X416570Y577115D01*
X416189Y577687D01*
X415618Y577877D01*
X415237D01*
X380807Y570029D02*
X381188Y570219D01*
X381759Y570790D01*
Y566791D01*
X379423Y576925D02*
Y577115D01*
X379613Y577496D01*
X379804Y577687D01*
X380185Y577877D01*
X380946D01*
X381327Y577687D01*
X381518Y577496D01*
X381708Y577115D01*
Y576734D01*
X381518Y576354D01*
X381137Y575782D01*
X379232Y573878D01*
X381898D01*
X385183Y595064D02*
X387088D01*
X387278Y596778D01*
X387088Y596587D01*
X386516Y596397D01*
X385945D01*
X385374Y596587D01*
X384993Y596968D01*
X384803Y597540D01*
Y597920D01*
X384993Y598492D01*
X385374Y598873D01*
X385945Y599063D01*
X386516D01*
X387088Y598873D01*
X387278Y598682D01*
X387469Y598301D01*
X385183Y588635D02*
X385374Y588254D01*
X385945Y588064D01*
X386326D01*
X386897Y588254D01*
X387278Y588826D01*
X387469Y589778D01*
Y590730D01*
X387278Y591492D01*
X386897Y591873D01*
X386326Y592063D01*
X386136D01*
X385564Y591873D01*
X385183Y591492D01*
X384993Y590920D01*
Y590730D01*
X385183Y590159D01*
X385564Y589778D01*
X386136Y589587D01*
X386326D01*
X386897Y589778D01*
X387278Y590159D01*
X387469Y590730D01*
X407969Y595825D02*
X407588Y595635D01*
X407016Y595064D01*
Y599063D01*
X408778Y589016D02*
Y588826D01*
X408588Y588445D01*
X408397Y588254D01*
X408016Y588064D01*
X407255D01*
X406874Y588254D01*
X406683Y588445D01*
X406493Y588826D01*
Y589206D01*
X406683Y589587D01*
X407064Y590159D01*
X408969Y592063D01*
X406302D01*
D57*
X339984Y415020D02*
D03*
D58*
X397071Y529587D02*
D03*
D59*
X348484Y476945D02*
D03*
D60*
X338409Y322894D02*
D03*
D61*
X397146Y545276D02*
D03*
M02*
