G04 Layer_Color=255*
%FSLAX25Y25*%
%MOIN*%
G70*
G01*
G75*
%ADD46C,0.00787*%
%ADD47C,0.03937*%
%ADD48C,0.01969*%
%ADD49C,0.07874*%
%ADD50R,0.07874X0.07874*%
%ADD51R,0.09449X0.09449*%
%ADD52C,0.09449*%
%ADD53O,0.06299X0.03543*%
D46*
X287008Y608268D02*
X286009Y608169D01*
X285049Y607878D01*
X284164Y607405D01*
X283389Y606769D01*
X282752Y605993D01*
X282279Y605108D01*
X281988Y604148D01*
X281890Y603150D01*
X277953Y532784D02*
X278972Y532918D01*
X279921Y533312D01*
X280737Y533937D01*
X281362Y534753D01*
X281756Y535702D01*
X281890Y536721D01*
X263780Y532784D02*
X262752Y532717D01*
X261742Y532516D01*
X260766Y532185D01*
X259843Y531729D01*
X258986Y531157D01*
X258212Y530478D01*
X257533Y529703D01*
X256961Y528847D01*
X256505Y527923D01*
X256174Y526948D01*
X255973Y525938D01*
X255906Y524910D01*
X255905Y226378D02*
X255973Y225350D01*
X256174Y224340D01*
X256505Y223365D01*
X256960Y222441D01*
X257533Y221585D01*
X258212Y220810D01*
X258986Y220131D01*
X259842Y219559D01*
X260766Y219103D01*
X261742Y218772D01*
X262752Y218571D01*
X263779Y218504D01*
X484252D02*
X485280Y218571D01*
X486290Y218772D01*
X487265Y219103D01*
X488189Y219559D01*
X489045Y220131D01*
X489820Y220810D01*
X490499Y221585D01*
X491071Y222441D01*
X491527Y223365D01*
X491858Y224340D01*
X492059Y225350D01*
X492126Y226378D01*
X492126Y600394D02*
X492059Y601421D01*
X491858Y602432D01*
X491527Y603407D01*
X491071Y604331D01*
X490499Y605187D01*
X489820Y605962D01*
X489045Y606641D01*
X488189Y607213D01*
X487265Y607668D01*
X486290Y608000D01*
X485280Y608200D01*
X484252Y608268D01*
X255905Y226378D02*
X255905Y524910D01*
X287008Y608268D02*
X484252Y608268D01*
X281890Y536684D02*
Y603150D01*
X263780Y532784D02*
X277953D01*
X492126Y226378D02*
X492126Y600394D01*
X263779Y218504D02*
X484252D01*
D47*
X406575Y574803D02*
D03*
X401575D02*
D03*
X406575Y569803D02*
D03*
X401575D02*
D03*
X396575Y574803D02*
D03*
X391575D02*
D03*
X396575Y569803D02*
D03*
X391575D02*
D03*
X386575Y574803D02*
D03*
Y569803D02*
D03*
X391968Y591063D02*
D03*
X396969D02*
D03*
X391968Y596063D02*
D03*
X396969D02*
D03*
X401968Y591063D02*
D03*
Y596063D02*
D03*
D48*
X323327Y568966D02*
D03*
Y561742D02*
D03*
X319714Y572579D02*
D03*
Y565354D02*
D03*
Y558130D02*
D03*
X316102Y568966D02*
D03*
Y561742D02*
D03*
X312490Y572579D02*
D03*
Y565354D02*
D03*
Y558130D02*
D03*
X308878Y568966D02*
D03*
Y561742D02*
D03*
D49*
X296260Y262402D02*
D03*
Y280512D02*
D03*
X428740Y306102D02*
D03*
Y276575D02*
D03*
X409055Y306102D02*
D03*
Y276575D02*
D03*
X330315Y306102D02*
D03*
X428740Y396654D02*
D03*
Y367126D02*
D03*
X409055Y396654D02*
D03*
Y367126D02*
D03*
X330315Y396654D02*
D03*
X296260Y314764D02*
D03*
Y332874D02*
D03*
D50*
X330315Y276575D02*
D03*
Y367126D02*
D03*
D51*
X297244Y417401D02*
D03*
X451575Y535118D02*
D03*
Y464646D02*
D03*
X451575Y373544D02*
D03*
Y281024D02*
D03*
D52*
X297244Y387401D02*
D03*
Y357401D02*
D03*
X451575Y555118D02*
D03*
Y575118D02*
D03*
Y484646D02*
D03*
Y504646D02*
D03*
X451575Y433544D02*
D03*
Y403544D02*
D03*
Y341024D02*
D03*
Y311024D02*
D03*
D53*
X267717Y491339D02*
D03*
Y465354D02*
D03*
M02*
