G04 Layer_Physical_Order=2*
G04 Layer_Color=16711680*
%FSLAX25Y25*%
%MOIN*%
G70*
G01*
G75*
%ADD39C,0.03937*%
%ADD40C,0.07874*%
%ADD41C,0.01969*%
%ADD43C,0.01000*%
%ADD46C,0.00787*%
%ADD47C,0.03937*%
%ADD48C,0.01969*%
%ADD49C,0.07874*%
%ADD50R,0.07874X0.07874*%
%ADD51R,0.09449X0.09449*%
%ADD52C,0.09449*%
%ADD53O,0.06299X0.03543*%
G36*
X486314Y607193D02*
X487602Y606660D01*
X488760Y605886D01*
X489745Y604901D01*
X490518Y603743D01*
X491051Y602456D01*
X491323Y601090D01*
Y600394D01*
X491323Y446063D01*
X481466D01*
X481066Y446414D01*
X479263Y447619D01*
X477319Y448577D01*
X475267Y449274D01*
X473141Y449697D01*
X470978Y449839D01*
X457463D01*
X456068Y450312D01*
X453841Y450755D01*
X451575Y450904D01*
X449309Y450755D01*
X447082Y450312D01*
X444931Y449582D01*
X442895Y448578D01*
X441007Y447316D01*
X439577Y446063D01*
X256708D01*
X256708Y524910D01*
Y525606D01*
X256980Y526972D01*
X257513Y528260D01*
X258287Y529418D01*
X259272Y530403D01*
X260430Y531176D01*
X261717Y531709D01*
X263083Y531981D01*
X277953D01*
X277972Y531985D01*
X277992Y531982D01*
X278378Y532001D01*
X278436Y532016D01*
X278495D01*
X279252Y532166D01*
X279325Y532197D01*
X279403Y532212D01*
X280116Y532507D01*
X280182Y532551D01*
X280255Y532581D01*
X280896Y533010D01*
X280929Y533043D01*
X281890D01*
X282202Y533105D01*
X282467Y533282D01*
X282643Y533546D01*
X282705Y533858D01*
Y603639D01*
X282858Y604408D01*
X283184Y605194D01*
X283656Y605900D01*
X284257Y606501D01*
X284964Y606974D01*
X285749Y607299D01*
X286583Y607465D01*
X287008Y607465D01*
X304227D01*
X304276Y606965D01*
X304259Y606962D01*
X303829Y606674D01*
X300244Y603089D01*
X299956Y602659D01*
X299856Y602152D01*
Y596379D01*
X299785Y596350D01*
X299207Y595906D01*
X298763Y595328D01*
X298484Y594654D01*
X298389Y593932D01*
X298484Y593209D01*
X298763Y592535D01*
X299207Y591957D01*
X299785Y591513D01*
X300458Y591234D01*
X301181Y591139D01*
X301904Y591234D01*
X302577Y591513D01*
X303156Y591957D01*
X303534Y592450D01*
X303882Y592447D01*
X304078Y592385D01*
X304275Y591911D01*
X304718Y591333D01*
X305297Y590889D01*
X305970Y590610D01*
X306693Y590515D01*
X307416Y590610D01*
X308089Y590889D01*
X308667Y591333D01*
X309111Y591911D01*
X309390Y592584D01*
X309485Y593307D01*
X309390Y594030D01*
X309111Y594703D01*
X308667Y595282D01*
X308089Y595725D01*
X308018Y595755D01*
Y599845D01*
X310785Y602611D01*
X366480Y602611D01*
X366726Y602111D01*
X366479Y601790D01*
X366200Y601116D01*
X366105Y600394D01*
X366200Y599671D01*
X366230Y599600D01*
X360081Y593451D01*
X340243D01*
X340214Y593522D01*
X339770Y594101D01*
X339192Y594544D01*
X338518Y594823D01*
X337795Y594918D01*
X337073Y594823D01*
X336399Y594544D01*
X335821Y594101D01*
X335377Y593522D01*
X335098Y592849D01*
X335003Y592126D01*
X335098Y591403D01*
X335377Y590730D01*
X335821Y590152D01*
X336399Y589708D01*
X337073Y589429D01*
X337795Y589334D01*
X338518Y589429D01*
X339192Y589708D01*
X339770Y590152D01*
X340214Y590730D01*
X340243Y590801D01*
X360630D01*
X361137Y590901D01*
X361567Y591189D01*
X368104Y597726D01*
X368175Y597696D01*
X368898Y597601D01*
X369620Y597696D01*
X370294Y597975D01*
X370872Y598419D01*
X371316Y598997D01*
X371595Y599671D01*
X371690Y600394D01*
X371595Y601116D01*
X371316Y601790D01*
X371069Y602111D01*
X371316Y602611D01*
X387089D01*
X390643Y599057D01*
Y598511D01*
X390572Y598481D01*
X389994Y598037D01*
X389550Y597459D01*
X389271Y596786D01*
X389176Y596063D01*
X389271Y595340D01*
X389550Y594667D01*
X389994Y594089D01*
X390268Y593878D01*
Y593248D01*
X389994Y593038D01*
X389550Y592459D01*
X389271Y591786D01*
X389176Y591063D01*
X389271Y590340D01*
X389550Y589667D01*
X389994Y589088D01*
X390572Y588645D01*
X391246Y588366D01*
X391968Y588271D01*
X392691Y588366D01*
X393365Y588645D01*
X393943Y589088D01*
X394153Y589363D01*
X394783D01*
X394994Y589088D01*
X395572Y588645D01*
X396246Y588366D01*
X396568Y588323D01*
Y591063D01*
X397369D01*
Y588323D01*
X397691Y588366D01*
X398365Y588645D01*
X398943Y589088D01*
X399153Y589363D01*
X399783D01*
X399994Y589088D01*
X400572Y588645D01*
X401246Y588366D01*
X401968Y588271D01*
X415261D01*
X416499Y587032D01*
Y565727D01*
X415828Y565056D01*
X392876D01*
X391403Y566529D01*
X391528Y566879D01*
X391622Y567017D01*
X392298Y567106D01*
X392971Y567385D01*
X393549Y567829D01*
X393669Y567984D01*
X394481D01*
X394600Y567829D01*
X395179Y567385D01*
X395852Y567106D01*
X396175Y567063D01*
Y569803D01*
X396975D01*
Y567063D01*
X397298Y567106D01*
X397971Y567385D01*
X398549Y567829D01*
X398669Y567984D01*
X399481D01*
X399600Y567829D01*
X400179Y567385D01*
X400852Y567106D01*
X401175Y567063D01*
Y569803D01*
X401975D01*
Y567063D01*
X402297Y567106D01*
X402971Y567385D01*
X403549Y567829D01*
X403668Y567984D01*
X404481D01*
X404600Y567829D01*
X405179Y567385D01*
X405852Y567106D01*
X406175Y567063D01*
Y569803D01*
X406575D01*
Y570203D01*
X409314D01*
X409272Y570526D01*
X408993Y571199D01*
X408549Y571778D01*
X408275Y571988D01*
Y572618D01*
X408549Y572829D01*
X408993Y573407D01*
X409272Y574080D01*
X409367Y574803D01*
X409272Y575526D01*
X408993Y576199D01*
X408549Y576778D01*
X407971Y577221D01*
X407298Y577500D01*
X406575Y577596D01*
X405852Y577500D01*
X405179Y577221D01*
X404600Y576778D01*
X404390Y576503D01*
X403760D01*
X403549Y576778D01*
X402971Y577221D01*
X402297Y577500D01*
X401575Y577596D01*
X400852Y577500D01*
X400179Y577221D01*
X399600Y576778D01*
X399390Y576503D01*
X398760D01*
X398549Y576778D01*
X397971Y577221D01*
X397298Y577500D01*
X396575Y577596D01*
X395852Y577500D01*
X395179Y577221D01*
X394600Y576778D01*
X394390Y576503D01*
X393760D01*
X393549Y576778D01*
X392971Y577221D01*
X392298Y577500D01*
X391575Y577596D01*
X390852Y577500D01*
X390179Y577221D01*
X389600Y576778D01*
X389390Y576503D01*
X388760D01*
X388549Y576778D01*
X387971Y577221D01*
X387298Y577500D01*
X386575Y577596D01*
X385852Y577500D01*
X385179Y577221D01*
X384600Y576778D01*
X384156Y576199D01*
X383878Y575526D01*
X383782Y574803D01*
X383878Y574080D01*
X384156Y573407D01*
X384600Y572829D01*
X384875Y572618D01*
Y571988D01*
X384600Y571778D01*
X384156Y571199D01*
X383878Y570526D01*
X383782Y569803D01*
Y567408D01*
X383878Y566685D01*
X384156Y566012D01*
X384600Y565434D01*
X389744Y560289D01*
X390323Y559845D01*
X390996Y559566D01*
X391719Y559471D01*
X416985D01*
X417708Y559566D01*
X418381Y559845D01*
X418960Y560289D01*
X421266Y562596D01*
X421710Y563174D01*
X421989Y563847D01*
X422084Y564570D01*
Y588189D01*
X421989Y588912D01*
X421710Y589585D01*
X421266Y590164D01*
X418392Y593038D01*
X417813Y593481D01*
X417140Y593760D01*
X416417Y593855D01*
X404394D01*
X404148Y594355D01*
X404387Y594667D01*
X404666Y595340D01*
X404761Y596063D01*
X404666Y596786D01*
X404387Y597459D01*
X403943Y598037D01*
X403365Y598481D01*
X402691Y598760D01*
X401968Y598855D01*
X401246Y598760D01*
X400572Y598481D01*
X399994Y598037D01*
X399783Y597763D01*
X399153D01*
X398943Y598037D01*
X398365Y598481D01*
X398294Y598511D01*
Y599606D01*
X398193Y600113D01*
X397906Y600543D01*
X391775Y606674D01*
X391345Y606962D01*
X391328Y606965D01*
X391377Y607465D01*
X484252Y607465D01*
X484948D01*
X486314Y607193D01*
D02*
G37*
%LPC*%
G36*
X312890Y559869D02*
Y558530D01*
X314230D01*
X314171Y558826D01*
X313776Y559416D01*
X313186Y559811D01*
X312890Y559869D01*
D02*
G37*
G36*
X320114D02*
Y558530D01*
X321454D01*
X321395Y558826D01*
X321001Y559416D01*
X320411Y559811D01*
X320114Y559869D01*
D02*
G37*
G36*
X308478Y561342D02*
X307138D01*
X307197Y561046D01*
X307591Y560456D01*
X308182Y560061D01*
X308478Y560003D01*
Y561342D01*
D02*
G37*
G36*
X319314Y559870D02*
X319018Y559811D01*
X318428Y559416D01*
X318034Y558826D01*
X317975Y558530D01*
X319314D01*
Y559870D01*
D02*
G37*
G36*
X321454Y557730D02*
X320114D01*
Y556390D01*
X320411Y556449D01*
X321001Y556844D01*
X321395Y557434D01*
X321454Y557730D01*
D02*
G37*
G36*
X319314D02*
X317975D01*
X318034Y557434D01*
X318428Y556844D01*
X319018Y556449D01*
X319314Y556390D01*
Y557730D01*
D02*
G37*
G36*
X312090Y559870D02*
X311794Y559811D01*
X311204Y559416D01*
X310809Y558826D01*
X310750Y558530D01*
X312090D01*
Y559870D01*
D02*
G37*
G36*
X314230Y557730D02*
X312890D01*
Y556390D01*
X313186Y556449D01*
X313776Y556844D01*
X314171Y557434D01*
X314230Y557730D01*
D02*
G37*
G36*
X315702Y563482D02*
X315406Y563423D01*
X314816Y563028D01*
X314422Y562438D01*
X314363Y562142D01*
X315702D01*
Y563482D01*
D02*
G37*
G36*
X308478D02*
X308182Y563423D01*
X307591Y563028D01*
X307197Y562438D01*
X307138Y562142D01*
X308478D01*
Y563482D01*
D02*
G37*
G36*
X309278Y563482D02*
Y562142D01*
X310617D01*
X310559Y562438D01*
X310164Y563028D01*
X309574Y563423D01*
X309278Y563482D01*
D02*
G37*
G36*
X322927Y563482D02*
X322631Y563423D01*
X322040Y563028D01*
X321646Y562438D01*
X321587Y562142D01*
X322927D01*
Y563482D01*
D02*
G37*
G36*
X310617Y561342D02*
X309278D01*
Y560003D01*
X309574Y560061D01*
X310164Y560456D01*
X310559Y561046D01*
X310617Y561342D01*
D02*
G37*
G36*
X322927D02*
X321587D01*
X321646Y561046D01*
X322040Y560456D01*
X322631Y560061D01*
X322927Y560003D01*
Y561342D01*
D02*
G37*
G36*
X315702D02*
X314363D01*
X314422Y561046D01*
X314816Y560456D01*
X315406Y560061D01*
X315702Y560003D01*
Y561342D01*
D02*
G37*
G36*
X325066D02*
X323727D01*
Y560003D01*
X324023Y560061D01*
X324613Y560456D01*
X325008Y561046D01*
X325066Y561342D01*
D02*
G37*
G36*
X317842D02*
X316502D01*
Y560003D01*
X316798Y560061D01*
X317389Y560456D01*
X317783Y561046D01*
X317842Y561342D01*
D02*
G37*
G36*
X457094Y504246D02*
X451975D01*
Y499126D01*
X453017Y499263D01*
X454361Y499820D01*
X455515Y500706D01*
X456400Y501860D01*
X456957Y503203D01*
X457094Y504246D01*
D02*
G37*
G36*
X338189Y525233D02*
X337466Y525138D01*
X336793Y524859D01*
X336214Y524415D01*
X335771Y523837D01*
X335492Y523164D01*
X335397Y522441D01*
X335492Y521718D01*
X335771Y521045D01*
X336214Y520466D01*
X336793Y520023D01*
X337466Y519744D01*
X338189Y519649D01*
X338912Y519744D01*
X338982Y519773D01*
X351425Y507331D01*
X351855Y507043D01*
X352362Y506942D01*
X421892D01*
X430846Y497988D01*
X430817Y497918D01*
X430721Y497195D01*
X430817Y496472D01*
X431096Y495799D01*
X431539Y495220D01*
X432118Y494777D01*
X432791Y494498D01*
X433514Y494403D01*
X434236Y494498D01*
X434910Y494777D01*
X435488Y495220D01*
X435932Y495799D01*
X436211Y496472D01*
X436306Y497195D01*
X436211Y497918D01*
X435932Y498591D01*
X435488Y499169D01*
X434910Y499613D01*
X434236Y499892D01*
X433514Y499987D01*
X432791Y499892D01*
X432720Y499863D01*
X423378Y509205D01*
X422948Y509492D01*
X422441Y509593D01*
X352911D01*
X340857Y521648D01*
X340886Y521718D01*
X340981Y522441D01*
X340886Y523164D01*
X340607Y523837D01*
X340163Y524415D01*
X339585Y524859D01*
X338912Y525138D01*
X338189Y525233D01*
D02*
G37*
G36*
X451575Y504646D02*
D01*
D01*
D01*
D02*
G37*
G36*
X451175Y504246D02*
X446056D01*
X446193Y503203D01*
X446749Y501860D01*
X447635Y500706D01*
X448789Y499820D01*
X450133Y499263D01*
X451175Y499126D01*
Y504246D01*
D02*
G37*
G36*
X269094Y493932D02*
X266339D01*
X265667Y493844D01*
X265042Y493585D01*
X264505Y493173D01*
X264092Y492635D01*
X263833Y492010D01*
X263745Y491339D01*
X263833Y490667D01*
X264092Y490042D01*
X264505Y489504D01*
X265042Y489092D01*
X265667Y488833D01*
X266339Y488745D01*
X269094D01*
X269766Y488833D01*
X270391Y489092D01*
X270929Y489504D01*
X271341Y490042D01*
X271600Y490667D01*
X271688Y491339D01*
X271600Y492010D01*
X271341Y492635D01*
X270929Y493173D01*
X270391Y493585D01*
X269766Y493844D01*
X269094Y493932D01*
D02*
G37*
G36*
Y467948D02*
X266339D01*
X265667Y467860D01*
X265042Y467601D01*
X264505Y467188D01*
X264092Y466651D01*
X263833Y466026D01*
X263745Y465354D01*
X263833Y464683D01*
X264092Y464057D01*
X264505Y463520D01*
X265042Y463108D01*
X265667Y462849D01*
X266339Y462760D01*
X269094D01*
X269766Y462849D01*
X270391Y463108D01*
X270929Y463520D01*
X271341Y464057D01*
X271600Y464683D01*
X271688Y465354D01*
X271600Y466026D01*
X271341Y466651D01*
X270929Y467188D01*
X270391Y467601D01*
X269766Y467860D01*
X269094Y467948D01*
D02*
G37*
G36*
X457099Y470170D02*
X446051D01*
Y459121D01*
X457099D01*
Y470170D01*
D02*
G37*
G36*
X321614Y526060D02*
X320891Y525965D01*
X320218Y525686D01*
X319640Y525242D01*
X319196Y524664D01*
X318917Y523990D01*
X318822Y523268D01*
X318917Y522545D01*
X319196Y521872D01*
X319640Y521293D01*
X320218Y520849D01*
X320289Y520820D01*
Y514606D01*
X320390Y514099D01*
X320677Y513669D01*
X351374Y482972D01*
X351804Y482685D01*
X352311Y482584D01*
X367288D01*
X367318Y482513D01*
X367761Y481935D01*
X368340Y481491D01*
X369013Y481212D01*
X369736Y481117D01*
X370459Y481212D01*
X371132Y481491D01*
X371711Y481935D01*
X372154Y482513D01*
X372433Y483187D01*
X372449Y483310D01*
X372923Y483470D01*
X373078Y483315D01*
X373509Y483027D01*
X374016Y482927D01*
X385848D01*
X385877Y482856D01*
X386321Y482277D01*
X386899Y481834D01*
X387572Y481555D01*
X388295Y481460D01*
X389018Y481555D01*
X389691Y481834D01*
X390270Y482277D01*
X390714Y482856D01*
X390992Y483529D01*
X391088Y484252D01*
X390992Y484975D01*
X390714Y485648D01*
X390270Y486227D01*
X389691Y486670D01*
X389018Y486949D01*
X388295Y487044D01*
X387572Y486949D01*
X386899Y486670D01*
X386321Y486227D01*
X385877Y485648D01*
X385848Y485577D01*
X374565D01*
X357911Y502231D01*
X357481Y502518D01*
X356974Y502619D01*
X346106D01*
X330621Y518104D01*
X330650Y518175D01*
X330745Y518898D01*
X330650Y519620D01*
X330371Y520294D01*
X329927Y520872D01*
X329349Y521316D01*
X328676Y521595D01*
X327953Y521690D01*
X327230Y521595D01*
X326557Y521316D01*
X325978Y520872D01*
X325535Y520294D01*
X325255Y519620D01*
X325160Y518898D01*
X325255Y518175D01*
X325535Y517501D01*
X325978Y516923D01*
X326557Y516479D01*
X327230Y516200D01*
X327953Y516105D01*
X328676Y516200D01*
X328746Y516230D01*
X344619Y500357D01*
X345049Y500069D01*
X345557Y499968D01*
X345557Y499968D01*
X356425D01*
X369297Y487096D01*
X369136Y486623D01*
X369013Y486607D01*
X368340Y486328D01*
X367761Y485884D01*
X367318Y485306D01*
X367288Y485235D01*
X352860D01*
X322940Y515155D01*
Y520820D01*
X323010Y520849D01*
X323589Y521293D01*
X324032Y521872D01*
X324311Y522545D01*
X324407Y523268D01*
X324311Y523990D01*
X324032Y524664D01*
X323589Y525242D01*
X323010Y525686D01*
X322337Y525965D01*
X321614Y526060D01*
D02*
G37*
G36*
X451575Y490218D02*
X450133Y490028D01*
X448789Y489471D01*
X447635Y488586D01*
X446749Y487432D01*
X446193Y486088D01*
X446003Y484646D01*
X446193Y483204D01*
X446749Y481860D01*
X447635Y480706D01*
X448789Y479820D01*
X450133Y479263D01*
X451575Y479074D01*
X453017Y479263D01*
X454361Y479820D01*
X455515Y480706D01*
X456400Y481860D01*
X456957Y483204D01*
X457147Y484646D01*
X456957Y486088D01*
X456400Y487432D01*
X455515Y488586D01*
X454361Y489471D01*
X453017Y490028D01*
X451575Y490218D01*
D02*
G37*
G36*
X433514Y550873D02*
X432791Y550778D01*
X432118Y550499D01*
X431539Y550055D01*
X431096Y549477D01*
X430817Y548803D01*
X430721Y548081D01*
X430817Y547358D01*
X430846Y547287D01*
X406538Y522979D01*
X349692D01*
X349662Y523050D01*
X349219Y523628D01*
X348640Y524072D01*
X347967Y524351D01*
X347244Y524446D01*
X346521Y524351D01*
X345848Y524072D01*
X345270Y523628D01*
X344826Y523050D01*
X344547Y522376D01*
X344452Y521654D01*
X344547Y520931D01*
X344826Y520257D01*
X345270Y519679D01*
X345848Y519235D01*
X346521Y518956D01*
X347244Y518861D01*
X347967Y518956D01*
X348640Y519235D01*
X349219Y519679D01*
X349662Y520257D01*
X349692Y520328D01*
X407087D01*
X407594Y520429D01*
X408024Y520716D01*
X432720Y545413D01*
X432791Y545384D01*
X433514Y545288D01*
X434236Y545384D01*
X434910Y545662D01*
X435488Y546106D01*
X435932Y546685D01*
X436211Y547358D01*
X436306Y548081D01*
X436211Y548803D01*
X435932Y549477D01*
X435488Y550055D01*
X434910Y550499D01*
X434236Y550778D01*
X433514Y550873D01*
D02*
G37*
G36*
X299606Y587438D02*
X298884Y587343D01*
X298210Y587064D01*
X297632Y586620D01*
X297188Y586042D01*
X296909Y585368D01*
X296814Y584646D01*
X296909Y583923D01*
X297188Y583250D01*
X297632Y582671D01*
X298210Y582227D01*
X298884Y581948D01*
X299606Y581853D01*
X300329Y581948D01*
X301003Y582227D01*
X301581Y582671D01*
X302025Y583250D01*
X302054Y583320D01*
X320317D01*
X344942Y558696D01*
X345372Y558408D01*
X345879Y558307D01*
X345879Y558307D01*
X366590D01*
X378828Y546069D01*
X378799Y545998D01*
X378704Y545275D01*
X378799Y544553D01*
X379078Y543879D01*
X379522Y543301D01*
X380100Y542857D01*
X380773Y542578D01*
X381496Y542483D01*
X382219Y542578D01*
X382892Y542857D01*
X383471Y543301D01*
X383914Y543879D01*
X384193Y544553D01*
X384289Y545275D01*
X384193Y545998D01*
X383914Y546672D01*
X383471Y547250D01*
X382892Y547694D01*
X382219Y547973D01*
X381496Y548068D01*
X380773Y547973D01*
X380703Y547943D01*
X368076Y560570D01*
X367646Y560857D01*
X367139Y560958D01*
X346428D01*
X321803Y585583D01*
X321373Y585870D01*
X320866Y585971D01*
X302054D01*
X302025Y586042D01*
X301581Y586620D01*
X301003Y587064D01*
X300329Y587343D01*
X299606Y587438D01*
D02*
G37*
G36*
X312090Y557730D02*
X310750D01*
X310809Y557434D01*
X311204Y556844D01*
X311794Y556449D01*
X312090Y556390D01*
Y557730D01*
D02*
G37*
G36*
X451575Y560690D02*
X450133Y560500D01*
X448789Y559944D01*
X447635Y559058D01*
X446749Y557904D01*
X446193Y556560D01*
X446003Y555118D01*
X446193Y553676D01*
X446749Y552332D01*
X447635Y551178D01*
X448789Y550293D01*
X450133Y549736D01*
X451575Y549546D01*
X453017Y549736D01*
X454361Y550293D01*
X455515Y551178D01*
X456400Y552332D01*
X456957Y553676D01*
X457147Y555118D01*
X456957Y556560D01*
X456400Y557904D01*
X455515Y559058D01*
X454361Y559944D01*
X453017Y560500D01*
X451575Y560690D01*
D02*
G37*
G36*
X331496Y547674D02*
X330773Y547579D01*
X330100Y547300D01*
X329521Y546856D01*
X329402Y546701D01*
X322716D01*
X322020Y546563D01*
X321430Y546168D01*
X321430Y546168D01*
X295585Y520323D01*
X280047D01*
X279927Y520478D01*
X279349Y520922D01*
X278676Y521201D01*
X277953Y521296D01*
X277230Y521201D01*
X276557Y520922D01*
X275978Y520478D01*
X275535Y519900D01*
X275255Y519227D01*
X275160Y518504D01*
X275255Y517781D01*
X275535Y517108D01*
X275978Y516529D01*
X276557Y516086D01*
X277230Y515807D01*
X277953Y515711D01*
X278676Y515807D01*
X279349Y516086D01*
X279927Y516529D01*
X280047Y516685D01*
X296339D01*
X296339Y516685D01*
X297035Y516823D01*
X297625Y517218D01*
X323470Y543063D01*
X329402D01*
X329521Y542907D01*
X330100Y542464D01*
X330773Y542185D01*
X331496Y542090D01*
X332219Y542185D01*
X332892Y542464D01*
X333471Y542907D01*
X333914Y543486D01*
X334193Y544159D01*
X334289Y544882D01*
X334193Y545605D01*
X333914Y546278D01*
X333471Y546856D01*
X332892Y547300D01*
X332219Y547579D01*
X331496Y547674D01*
D02*
G37*
G36*
X451975Y510165D02*
Y505046D01*
X457094D01*
X456957Y506088D01*
X456400Y507432D01*
X455515Y508586D01*
X454361Y509471D01*
X453017Y510028D01*
X451975Y510165D01*
D02*
G37*
G36*
X451175D02*
X450133Y510028D01*
X448789Y509471D01*
X447635Y508586D01*
X446749Y507432D01*
X446193Y506088D01*
X446056Y505046D01*
X451175D01*
Y510165D01*
D02*
G37*
G36*
X457099Y540643D02*
X446051D01*
Y529594D01*
X457099D01*
Y540643D01*
D02*
G37*
G36*
X333465Y564210D02*
X332742Y564115D01*
X332068Y563836D01*
X331490Y563392D01*
X331046Y562814D01*
X330767Y562140D01*
X330672Y561417D01*
X330767Y560695D01*
X331046Y560021D01*
X331490Y559443D01*
X332068Y558999D01*
X332742Y558720D01*
X333465Y558625D01*
X334187Y558720D01*
X334258Y558749D01*
X364417Y528590D01*
X364847Y528303D01*
X365354Y528202D01*
X379482D01*
X379511Y528131D01*
X379955Y527553D01*
X380533Y527109D01*
X381206Y526830D01*
X381929Y526735D01*
X382652Y526830D01*
X383325Y527109D01*
X383904Y527553D01*
X384347Y528131D01*
X384626Y528805D01*
X384721Y529528D01*
X384626Y530250D01*
X384347Y530924D01*
X383904Y531502D01*
X383325Y531946D01*
X382652Y532225D01*
X381929Y532320D01*
X381206Y532225D01*
X380533Y531946D01*
X379955Y531502D01*
X379511Y530924D01*
X379482Y530853D01*
X365903D01*
X336133Y560624D01*
X336162Y560695D01*
X336257Y561417D01*
X336162Y562140D01*
X335883Y562814D01*
X335439Y563392D01*
X334861Y563836D01*
X334187Y564115D01*
X333465Y564210D01*
D02*
G37*
G36*
X457094Y574718D02*
X451975D01*
Y569599D01*
X453017Y569736D01*
X454361Y570293D01*
X455515Y571178D01*
X456400Y572332D01*
X456957Y573676D01*
X457094Y574718D01*
D02*
G37*
G36*
X323727Y570706D02*
Y569367D01*
X325066D01*
X325008Y569663D01*
X324613Y570253D01*
X324023Y570647D01*
X323727Y570706D01*
D02*
G37*
G36*
X312090Y572179D02*
X310750D01*
X310809Y571882D01*
X311204Y571292D01*
X311794Y570898D01*
X312090Y570839D01*
Y572179D01*
D02*
G37*
G36*
X451175Y574718D02*
X446056D01*
X446193Y573676D01*
X446749Y572332D01*
X447635Y571178D01*
X448789Y570293D01*
X450133Y569736D01*
X451175Y569599D01*
Y574718D01*
D02*
G37*
G36*
X322927Y570706D02*
X322631Y570647D01*
X322040Y570253D01*
X321646Y569663D01*
X321587Y569367D01*
X322927D01*
Y570706D01*
D02*
G37*
G36*
X315702D02*
X315406Y570647D01*
X314816Y570253D01*
X314422Y569663D01*
X314363Y569367D01*
X315702D01*
Y570706D01*
D02*
G37*
G36*
X316502Y570706D02*
Y569367D01*
X317842D01*
X317783Y569663D01*
X317389Y570253D01*
X316798Y570647D01*
X316502Y570706D01*
D02*
G37*
G36*
X309278D02*
Y569367D01*
X310617D01*
X310559Y569663D01*
X310164Y570253D01*
X309574Y570647D01*
X309278Y570706D01*
D02*
G37*
G36*
X319314Y572179D02*
X317975D01*
X318034Y571882D01*
X318428Y571292D01*
X319018Y570898D01*
X319314Y570839D01*
Y572179D01*
D02*
G37*
G36*
X320114Y574318D02*
Y572979D01*
X321454D01*
X321395Y573275D01*
X321001Y573865D01*
X320411Y574259D01*
X320114Y574318D01*
D02*
G37*
G36*
X312890D02*
Y572979D01*
X314230D01*
X314171Y573275D01*
X313776Y573865D01*
X313186Y574259D01*
X312890Y574318D01*
D02*
G37*
G36*
X451975Y580638D02*
Y575518D01*
X457094D01*
X456957Y576560D01*
X456400Y577904D01*
X455515Y579058D01*
X454361Y579944D01*
X453017Y580500D01*
X451975Y580638D01*
D02*
G37*
G36*
X451175D02*
X450133Y580500D01*
X448789Y579944D01*
X447635Y579058D01*
X446749Y577904D01*
X446193Y576560D01*
X446056Y575518D01*
X451175D01*
Y580638D01*
D02*
G37*
G36*
X314230Y572179D02*
X312890D01*
Y570839D01*
X313186Y570898D01*
X313776Y571292D01*
X314171Y571882D01*
X314230Y572179D01*
D02*
G37*
G36*
X321454D02*
X320114D01*
Y570839D01*
X320411Y570898D01*
X321001Y571292D01*
X321395Y571882D01*
X321454Y572179D01*
D02*
G37*
G36*
X319314Y574318D02*
X319018Y574259D01*
X318428Y573865D01*
X318034Y573275D01*
X317975Y572979D01*
X319314D01*
Y574318D01*
D02*
G37*
G36*
X312090D02*
X311794Y574259D01*
X311204Y573865D01*
X310809Y573275D01*
X310750Y572979D01*
X312090D01*
Y574318D01*
D02*
G37*
G36*
X308478Y570706D02*
X308182Y570647D01*
X307591Y570253D01*
X307197Y569663D01*
X307138Y569367D01*
X308478D01*
Y570706D01*
D02*
G37*
G36*
X314230Y564954D02*
X312890D01*
Y563615D01*
X313186Y563674D01*
X313776Y564068D01*
X314171Y564658D01*
X314230Y564954D01*
D02*
G37*
G36*
X321454D02*
X320114D01*
Y563615D01*
X320411Y563674D01*
X321001Y564068D01*
X321395Y564658D01*
X321454Y564954D01*
D02*
G37*
G36*
X319314Y567094D02*
X319018Y567035D01*
X318428Y566641D01*
X318034Y566050D01*
X317975Y565754D01*
X319314D01*
Y567094D01*
D02*
G37*
G36*
X312090D02*
X311794Y567035D01*
X311204Y566641D01*
X310809Y566050D01*
X310750Y565754D01*
X312090D01*
Y567094D01*
D02*
G37*
G36*
X323727Y563482D02*
Y562142D01*
X325066D01*
X325008Y562438D01*
X324613Y563028D01*
X324023Y563423D01*
X323727Y563482D01*
D02*
G37*
G36*
X316502D02*
Y562142D01*
X317842D01*
X317783Y562438D01*
X317389Y563028D01*
X316798Y563423D01*
X316502Y563482D01*
D02*
G37*
G36*
X319314Y564954D02*
X317975D01*
X318034Y564658D01*
X318428Y564068D01*
X319018Y563674D01*
X319314Y563615D01*
Y564954D01*
D02*
G37*
G36*
X312090D02*
X310750D01*
X310809Y564658D01*
X311204Y564068D01*
X311794Y563674D01*
X312090Y563615D01*
Y564954D01*
D02*
G37*
G36*
X312890Y567094D02*
Y565754D01*
X314230D01*
X314171Y566050D01*
X313776Y566641D01*
X313186Y567035D01*
X312890Y567094D01*
D02*
G37*
G36*
X317842Y568567D02*
X316502D01*
Y567227D01*
X316798Y567286D01*
X317389Y567680D01*
X317783Y568270D01*
X317842Y568567D01*
D02*
G37*
G36*
X322927D02*
X321587D01*
X321646Y568270D01*
X322040Y567680D01*
X322631Y567286D01*
X322927Y567227D01*
Y568567D01*
D02*
G37*
G36*
X310617D02*
X309278D01*
Y567227D01*
X309574Y567286D01*
X310164Y567680D01*
X310559Y568270D01*
X310617Y568567D01*
D02*
G37*
G36*
X325066D02*
X323727D01*
Y567227D01*
X324023Y567286D01*
X324613Y567680D01*
X325008Y568270D01*
X325066Y568567D01*
D02*
G37*
G36*
X409314Y569403D02*
X406975D01*
Y567063D01*
X407298Y567106D01*
X407971Y567385D01*
X408549Y567829D01*
X408993Y568407D01*
X409272Y569080D01*
X409314Y569403D01*
D02*
G37*
G36*
X320114Y567094D02*
Y565754D01*
X321454D01*
X321395Y566050D01*
X321001Y566641D01*
X320411Y567035D01*
X320114Y567094D01*
D02*
G37*
G36*
X315702Y568567D02*
X314363D01*
X314422Y568270D01*
X314816Y567680D01*
X315406Y567286D01*
X315702Y567227D01*
Y568567D01*
D02*
G37*
G36*
X308478D02*
X307138D01*
X307197Y568270D01*
X307591Y567680D01*
X308182Y567286D01*
X308478Y567227D01*
Y568567D01*
D02*
G37*
%LPD*%
D39*
X416417Y591063D02*
X419291Y588189D01*
X401968Y591063D02*
X416417D01*
X386575Y567408D02*
Y569803D01*
X419291Y564570D02*
Y588189D01*
X416985Y562264D02*
X419291Y564570D01*
X391719Y562264D02*
X416985D01*
X386575Y567408D02*
X391719Y562264D01*
D40*
X428740Y367126D02*
Y396654D01*
X296260Y314764D02*
Y332874D01*
Y357323D01*
X296260Y357323D02*
X296260Y357323D01*
X409055Y306102D02*
Y367126D01*
Y368110D01*
Y396654D01*
X450787Y372756D02*
X451575Y373544D01*
X435039Y372756D02*
X450787D01*
X429409Y367126D02*
X435039Y372756D01*
X428740Y367126D02*
X429409D01*
X450787Y280237D02*
X451575Y281024D01*
X435039Y280237D02*
X450787D01*
X431377Y276575D02*
X435039Y280237D01*
X428740Y276575D02*
X431377D01*
X428740D02*
Y306102D01*
X451575Y433544D02*
X451851Y433268D01*
X296260Y262402D02*
Y280512D01*
X368110Y273622D02*
X406102D01*
X409055Y276575D01*
Y306102D01*
X451851Y433268D02*
X470978D01*
X475591Y428655D01*
Y345637D02*
Y428655D01*
X470978Y341024D02*
X475591Y345637D01*
X451575Y341024D02*
X470978D01*
X451149Y433544D02*
X451575D01*
X446739Y429134D02*
X451149Y433544D01*
X302644Y429134D02*
X446739D01*
X298031Y424521D02*
X302644Y429134D01*
X298031Y418188D02*
Y424521D01*
X297244Y417401D02*
X298031Y418188D01*
X349213Y254724D02*
X368110Y273622D01*
X296260Y262402D02*
X303937Y254724D01*
X349213D01*
D41*
X391575Y569803D02*
X396575D01*
X401575D01*
X406575D01*
X277953Y518504D02*
X296339D01*
X322716Y544882D01*
X331496D01*
D43*
X387638Y603937D02*
X391968Y599606D01*
X310236Y603937D02*
X387638Y603937D01*
X390838Y605737D02*
X396969Y599606D01*
X304766Y605737D02*
X390838D01*
X301181Y602152D02*
X304766Y605737D01*
X306693Y600394D02*
X310236Y603937D01*
X306693Y593307D02*
Y600394D01*
X301181Y593932D02*
Y602152D01*
X365354Y529528D02*
X381929D01*
X333465Y561417D02*
X365354Y529528D01*
X360630Y592126D02*
X368898Y600394D01*
X337795Y592126D02*
X360630D01*
X321614Y514606D02*
Y523268D01*
X352311Y483909D02*
X369736D01*
X321614Y514606D02*
X352311Y483909D01*
X374016Y484252D02*
X388295D01*
X338189Y522441D02*
X352362Y508268D01*
X356974Y501294D02*
X374016Y484252D01*
X345557Y501294D02*
X356974D01*
X327953Y518898D02*
X345557Y501294D01*
X352362Y508268D02*
X422441D01*
X433514Y497195D01*
X407087Y521654D02*
X433514Y548081D01*
X347244Y521654D02*
X407087D01*
X299606Y584646D02*
X320866D01*
X367139Y559633D02*
X381496Y545275D01*
X345879Y559633D02*
X367139D01*
X381496Y545275D02*
X381496D01*
X320866Y584646D02*
X345879Y559633D01*
X396969Y597126D02*
Y599606D01*
X391968Y597126D02*
Y599606D01*
D46*
X287008Y608268D02*
X286009Y608169D01*
X285049Y607878D01*
X284164Y607405D01*
X283389Y606769D01*
X282752Y605993D01*
X282279Y605108D01*
X281988Y604148D01*
X281890Y603150D01*
X277953Y532784D02*
X278972Y532918D01*
X279921Y533312D01*
X280737Y533937D01*
X281362Y534753D01*
X281756Y535702D01*
X281890Y536721D01*
X263780Y532784D02*
X262752Y532717D01*
X261742Y532516D01*
X260766Y532185D01*
X259843Y531729D01*
X258986Y531157D01*
X258212Y530478D01*
X257533Y529703D01*
X256961Y528847D01*
X256505Y527923D01*
X256174Y526948D01*
X255973Y525938D01*
X255906Y524910D01*
X255905Y226378D02*
X255973Y225350D01*
X256174Y224340D01*
X256505Y223365D01*
X256960Y222441D01*
X257533Y221585D01*
X258212Y220810D01*
X258986Y220131D01*
X259842Y219559D01*
X260766Y219103D01*
X261742Y218772D01*
X262752Y218571D01*
X263779Y218504D01*
X484252D02*
X485280Y218571D01*
X486290Y218772D01*
X487265Y219103D01*
X488189Y219559D01*
X489045Y220131D01*
X489820Y220810D01*
X490499Y221585D01*
X491071Y222441D01*
X491527Y223365D01*
X491858Y224340D01*
X492059Y225350D01*
X492126Y226378D01*
X492126Y600394D02*
X492059Y601421D01*
X491858Y602432D01*
X491527Y603407D01*
X491071Y604331D01*
X490499Y605187D01*
X489820Y605962D01*
X489045Y606641D01*
X488189Y607213D01*
X487265Y607668D01*
X486290Y608000D01*
X485280Y608200D01*
X484252Y608268D01*
X255905Y226378D02*
X255905Y524910D01*
X287008Y608268D02*
X484252Y608268D01*
X281890Y536684D02*
Y603150D01*
X263780Y532784D02*
X277953D01*
X492126Y226378D02*
X492126Y600394D01*
X263779Y218504D02*
X484252D01*
D47*
X406575Y574803D02*
D03*
X401575D02*
D03*
X406575Y569803D02*
D03*
X401575D02*
D03*
X396575Y574803D02*
D03*
X391575D02*
D03*
X396575Y569803D02*
D03*
X391575D02*
D03*
X386575Y574803D02*
D03*
Y569803D02*
D03*
X391968Y591063D02*
D03*
X396969D02*
D03*
X391968Y596063D02*
D03*
X396969D02*
D03*
X401968Y591063D02*
D03*
Y596063D02*
D03*
X295336Y450078D02*
D03*
Y455984D02*
D03*
X304331Y455905D02*
D03*
Y462205D02*
D03*
Y467717D02*
D03*
Y450000D02*
D03*
X376522Y471510D02*
D03*
X358805Y471735D02*
D03*
X416832Y555415D02*
D03*
X261811Y522047D02*
D03*
X274410Y499606D02*
D03*
X286465Y476884D02*
D03*
X316831Y506398D02*
D03*
X381496Y545275D02*
D03*
X381929Y529528D02*
D03*
X306693Y593307D02*
D03*
X301181Y593932D02*
D03*
X299606Y584646D02*
D03*
X333465Y561417D02*
D03*
X337795Y592126D02*
D03*
X368898Y600394D02*
D03*
X433514Y548081D02*
D03*
Y497195D02*
D03*
X388295Y484252D02*
D03*
X321614Y523268D02*
D03*
X327953Y518898D02*
D03*
X369736Y483909D02*
D03*
X347244Y521654D02*
D03*
X338189Y522441D02*
D03*
X277953Y518504D02*
D03*
X364931Y546821D02*
D03*
X286791Y584075D02*
D03*
X337795Y454724D02*
D03*
X331496Y544882D02*
D03*
D48*
X323327Y568966D02*
D03*
Y561742D02*
D03*
X319714Y572579D02*
D03*
Y565354D02*
D03*
Y558130D02*
D03*
X316102Y568966D02*
D03*
Y561742D02*
D03*
X312490Y572579D02*
D03*
Y565354D02*
D03*
Y558130D02*
D03*
X308878Y568966D02*
D03*
Y561742D02*
D03*
D49*
X296260Y262402D02*
D03*
Y280512D02*
D03*
X428740Y306102D02*
D03*
Y276575D02*
D03*
X409055Y306102D02*
D03*
Y276575D02*
D03*
X330315Y306102D02*
D03*
X428740Y396654D02*
D03*
Y367126D02*
D03*
X409055Y396654D02*
D03*
Y367126D02*
D03*
X330315Y396654D02*
D03*
X296260Y314764D02*
D03*
Y332874D02*
D03*
D50*
X330315Y276575D02*
D03*
Y367126D02*
D03*
D51*
X297244Y417401D02*
D03*
X451575Y535118D02*
D03*
Y464646D02*
D03*
X451575Y373544D02*
D03*
Y281024D02*
D03*
D52*
X297244Y387401D02*
D03*
Y357401D02*
D03*
X451575Y555118D02*
D03*
Y575118D02*
D03*
Y484646D02*
D03*
Y504646D02*
D03*
X451575Y433544D02*
D03*
Y403544D02*
D03*
Y341024D02*
D03*
Y311024D02*
D03*
D53*
X267717Y491339D02*
D03*
Y465354D02*
D03*
M02*
