G04 Layer_Color=128*
%FSLAX25Y25*%
%MOIN*%
G70*
G01*
G75*
%ADD46C,0.00787*%
%ADD88C,0.00200*%
%ADD90C,0.00100*%
%ADD91C,0.00039*%
D46*
X287008Y608268D02*
X286009Y608169D01*
X285049Y607878D01*
X284164Y607405D01*
X283389Y606769D01*
X282752Y605993D01*
X282279Y605108D01*
X281988Y604148D01*
X281890Y603150D01*
X277953Y532784D02*
X278972Y532918D01*
X279921Y533312D01*
X280737Y533937D01*
X281362Y534753D01*
X281756Y535702D01*
X281890Y536721D01*
X263780Y532784D02*
X262752Y532717D01*
X261742Y532516D01*
X260766Y532185D01*
X259843Y531729D01*
X258986Y531157D01*
X258212Y530478D01*
X257533Y529703D01*
X256961Y528847D01*
X256505Y527923D01*
X256174Y526948D01*
X255973Y525938D01*
X255906Y524910D01*
X255905Y226378D02*
X255973Y225350D01*
X256174Y224340D01*
X256505Y223365D01*
X256960Y222441D01*
X257533Y221585D01*
X258212Y220810D01*
X258986Y220131D01*
X259842Y219559D01*
X260766Y219103D01*
X261742Y218772D01*
X262752Y218571D01*
X263779Y218504D01*
X484252D02*
X485280Y218571D01*
X486290Y218772D01*
X487265Y219103D01*
X488189Y219559D01*
X489045Y220131D01*
X489820Y220810D01*
X490499Y221585D01*
X491071Y222441D01*
X491527Y223365D01*
X491858Y224340D01*
X492059Y225350D01*
X492126Y226378D01*
X492126Y600394D02*
X492059Y601421D01*
X491858Y602432D01*
X491527Y603407D01*
X491071Y604331D01*
X490499Y605187D01*
X489820Y605962D01*
X489045Y606641D01*
X488189Y607213D01*
X487265Y607668D01*
X486290Y608000D01*
X485280Y608200D01*
X484252Y608268D01*
X255905Y226378D02*
X255905Y524910D01*
X287008Y608268D02*
X484252Y608268D01*
X281890Y536684D02*
Y603150D01*
X263780Y532784D02*
X277953D01*
X492126Y226378D02*
X492126Y600394D01*
X263779Y218504D02*
X484252D01*
D88*
X405197Y574803D02*
X407953D01*
X406575Y573425D02*
Y576181D01*
X400197Y574803D02*
X402953D01*
X401575Y573425D02*
Y576181D01*
X405197Y569803D02*
X407953D01*
X406575Y568425D02*
Y571181D01*
X400197Y569803D02*
X402953D01*
X401575Y568425D02*
Y571181D01*
X395197Y574803D02*
X397953D01*
X396575Y573425D02*
Y576181D01*
X390197Y574803D02*
X392953D01*
X391575Y573425D02*
Y576181D01*
X395197Y569803D02*
X397953D01*
X396575Y568425D02*
Y571181D01*
X390197Y569803D02*
X392953D01*
X391575Y568425D02*
Y571181D01*
X385197Y574803D02*
X387953D01*
X386575Y573425D02*
Y576181D01*
X385197Y569803D02*
X387953D01*
X386575Y568425D02*
Y571181D01*
X322736Y568966D02*
X323917D01*
X323327Y568376D02*
Y569557D01*
X322736Y561742D02*
X323917D01*
X323327Y561152D02*
Y562333D01*
X319124Y572579D02*
X320305D01*
X319714Y571988D02*
Y573169D01*
X319124Y565354D02*
X320305D01*
X319714Y564764D02*
Y565945D01*
X319124Y558130D02*
X320305D01*
X319714Y557539D02*
Y558720D01*
X315512Y568966D02*
X316693D01*
X316102Y568376D02*
Y569557D01*
X315512Y561742D02*
X316693D01*
X316102Y561152D02*
Y562333D01*
X311899Y572579D02*
X313081D01*
X312490Y571988D02*
Y573169D01*
X311899Y565354D02*
X313081D01*
X312490Y564764D02*
Y565945D01*
X311899Y558130D02*
X313081D01*
X312490Y557539D02*
Y558720D01*
X308287Y568966D02*
X309468D01*
X308878Y568376D02*
Y569557D01*
X308287Y561742D02*
X309468D01*
X308878Y561152D02*
Y562333D01*
X293701Y262402D02*
X298819D01*
X296260Y259842D02*
Y264961D01*
X293701Y280512D02*
X298819D01*
X296260Y277953D02*
Y283071D01*
X426181Y306102D02*
X431299D01*
X428740Y303543D02*
Y308662D01*
X426181Y276575D02*
X431299D01*
X428740Y274016D02*
Y279134D01*
X406496Y306102D02*
X411614D01*
X409055Y303543D02*
Y308662D01*
X406496Y276575D02*
X411614D01*
X409055Y274016D02*
Y279134D01*
X327756Y306102D02*
X332874D01*
X330315Y303543D02*
Y308662D01*
X327756Y276575D02*
X332874D01*
X330315Y274016D02*
Y279134D01*
X426181Y396654D02*
X431299D01*
X428740Y394094D02*
Y399213D01*
X426181Y367126D02*
X431299D01*
X428740Y364567D02*
Y369685D01*
X406496Y396654D02*
X411614D01*
X409055Y394094D02*
Y399213D01*
X406496Y367126D02*
X411614D01*
X409055Y364567D02*
Y369685D01*
X327756Y396654D02*
X332874D01*
X330315Y394094D02*
Y399213D01*
X327756Y367126D02*
X332874D01*
X330315Y364567D02*
Y369685D01*
X390591Y591063D02*
X393347D01*
X391968Y589685D02*
Y592441D01*
X395590Y591063D02*
X398346D01*
X396969Y589685D02*
Y592441D01*
X390591Y596063D02*
X393347D01*
X391968Y594685D02*
Y597441D01*
X395590Y596063D02*
X398346D01*
X396969Y594685D02*
Y597441D01*
X400591Y591063D02*
X403346D01*
X401968Y589685D02*
Y592441D01*
X400591Y596063D02*
X403346D01*
X401968Y594685D02*
Y597441D01*
X293701Y314764D02*
X298819D01*
X296260Y312205D02*
Y317323D01*
X293701Y332874D02*
X298819D01*
X296260Y330315D02*
Y335433D01*
X294094Y417401D02*
X300394D01*
X297244Y414251D02*
Y420551D01*
X294094Y387401D02*
X300394D01*
X297244Y384251D02*
Y390551D01*
X294094Y357401D02*
X300394D01*
X297244Y354251D02*
Y360551D01*
X266732Y491339D02*
X268701D01*
X267717Y490354D02*
Y492323D01*
X266732Y465354D02*
X268701D01*
X267717Y464370D02*
Y466339D01*
X448425Y535118D02*
X454725D01*
X451575Y531969D02*
Y538268D01*
X448425Y555118D02*
X454725D01*
X451575Y551969D02*
Y558268D01*
X448425Y575118D02*
X454725D01*
X451575Y571969D02*
Y578268D01*
X448425Y464646D02*
X454725D01*
X451575Y461496D02*
Y467795D01*
X448425Y484646D02*
X454725D01*
X451575Y481496D02*
Y487795D01*
X448425Y504646D02*
X454725D01*
X451575Y501496D02*
Y507795D01*
X448425Y433544D02*
X454724D01*
X451575Y430394D02*
Y436693D01*
X448425Y403544D02*
X454724D01*
X451575Y400394D02*
Y406693D01*
X448425Y373544D02*
X454724D01*
X451575Y370394D02*
Y376693D01*
X448425Y341024D02*
X454724D01*
X451575Y337875D02*
Y344174D01*
X448425Y311024D02*
X454724D01*
X451575Y307875D02*
Y314174D01*
X448425Y281024D02*
X454724D01*
X451575Y277875D02*
Y284174D01*
X294352Y450078D02*
X296321D01*
X295336Y449094D02*
Y451062D01*
X294352Y455984D02*
X296321D01*
X295336Y454999D02*
Y456968D01*
X303346Y455905D02*
X305315D01*
X304331Y454921D02*
Y456890D01*
X303346Y462205D02*
X305315D01*
X304331Y461221D02*
Y463189D01*
X303346Y467717D02*
X305315D01*
X304331Y466732D02*
Y468701D01*
X303346Y450000D02*
X305315D01*
X304331Y449016D02*
Y450984D01*
X375537Y471510D02*
X377506D01*
X376522Y470526D02*
Y472494D01*
X357821Y471735D02*
X359789D01*
X358805Y470750D02*
Y472719D01*
X415848Y555415D02*
X417817D01*
X416832Y554431D02*
Y556399D01*
X260827Y522047D02*
X262795D01*
X261811Y521063D02*
Y523032D01*
X273425Y499606D02*
X275394D01*
X274410Y498622D02*
Y500591D01*
X285481Y476884D02*
X287449D01*
X286465Y475900D02*
Y477868D01*
X315846Y506398D02*
X317815D01*
X316831Y505413D02*
Y507382D01*
X380512Y545275D02*
X382480D01*
X381496Y544291D02*
Y546260D01*
X380945Y529528D02*
X382913D01*
X381929Y528543D02*
Y530512D01*
X305709Y593307D02*
X307677D01*
X306693Y592323D02*
Y594291D01*
X300197Y593932D02*
X302165D01*
X301181Y592947D02*
Y594916D01*
X298622Y584646D02*
X300590D01*
X299606Y583661D02*
Y585630D01*
X332480Y561417D02*
X334449D01*
X333465Y560433D02*
Y562402D01*
X336811Y592126D02*
X338779D01*
X337795Y591142D02*
Y593110D01*
X367913Y600394D02*
X369882D01*
X368898Y599409D02*
Y601378D01*
X432529Y548081D02*
X434498D01*
X433514Y547096D02*
Y549065D01*
X432529Y497195D02*
X434498D01*
X433514Y496211D02*
Y498179D01*
X387311Y484252D02*
X389279D01*
X388295Y483268D02*
Y485236D01*
X320630Y523268D02*
X322598D01*
X321614Y522284D02*
Y524252D01*
X326969Y518898D02*
X328937D01*
X327953Y517913D02*
Y519882D01*
X368752Y483909D02*
X370720D01*
X369736Y482925D02*
Y484894D01*
X346260Y521654D02*
X348228D01*
X347244Y520669D02*
Y522638D01*
X337205Y522441D02*
X339173D01*
X338189Y521457D02*
Y523425D01*
X276969Y518504D02*
X278937D01*
X277953Y517520D02*
Y519488D01*
X363947Y546821D02*
X365915D01*
X364931Y545837D02*
Y547805D01*
X285807Y584075D02*
X287776D01*
X286791Y583091D02*
Y585059D01*
X336811Y454724D02*
X338779D01*
X337795Y453740D02*
Y455709D01*
X330512Y544882D02*
X332480D01*
X331496Y543898D02*
Y545866D01*
D90*
X399792Y545276D02*
X399673Y546262D01*
X399320Y547192D01*
X398756Y548010D01*
X398011Y548669D01*
X397131Y549131D01*
X396166Y549369D01*
X395172D01*
X394207Y549131D01*
X393327Y548669D01*
X392583Y548010D01*
X392019Y547192D01*
X391666Y546262D01*
X391546Y545276D01*
X391666Y544289D01*
X392019Y543360D01*
X392583Y542542D01*
X393327Y541882D01*
X394207Y541420D01*
X395172Y541183D01*
X396166D01*
X397131Y541420D01*
X398011Y541882D01*
X398756Y542542D01*
X399320Y543360D01*
X399673Y544289D01*
X399792Y545276D01*
X405020Y538779D02*
Y537780D01*
X404520D01*
X404353Y537947D01*
Y538280D01*
X404520Y538446D01*
X405020D01*
X404686D02*
X404353Y538779D01*
X403520D02*
X403853D01*
X404020Y538613D01*
Y538280D01*
X403853Y538113D01*
X403520D01*
X403354Y538280D01*
Y538446D01*
X404020D01*
X402354Y539113D02*
Y538113D01*
X402854D01*
X403020Y538280D01*
Y538613D01*
X402854Y538779D01*
X402354D01*
X402021Y538113D02*
Y538613D01*
X401854Y538779D01*
X401354D01*
Y538113D01*
X401021Y538779D02*
X400688D01*
X400854D01*
Y538113D01*
X401021D01*
X400188D02*
Y538779D01*
Y538446D01*
X400021Y538280D01*
X399855Y538113D01*
X399688D01*
X398688Y538779D02*
X399022D01*
X399188Y538613D01*
Y538280D01*
X399022Y538113D01*
X398688D01*
X398522Y538280D01*
Y538446D01*
X399188D01*
X396522Y538113D02*
X397022D01*
X397189Y538280D01*
Y538613D01*
X397022Y538779D01*
X396522D01*
X396189Y538113D02*
Y538613D01*
X396023Y538779D01*
X395523D01*
Y538113D01*
X395023Y537947D02*
Y538113D01*
X395189D01*
X394856D01*
X395023D01*
Y538613D01*
X394856Y538779D01*
X394190D02*
X393857D01*
X393690Y538613D01*
Y538280D01*
X393857Y538113D01*
X394190D01*
X394356Y538280D01*
Y538613D01*
X394190Y538779D01*
X393357Y538113D02*
Y538613D01*
X393190Y538779D01*
X392690D01*
Y538113D01*
X392191Y537947D02*
Y538113D01*
X392357D01*
X392024D01*
X392191D01*
Y538613D01*
X392024Y538779D01*
X390524D02*
X390191D01*
X390358D01*
Y538113D01*
X390524D01*
X389691Y538779D02*
Y538113D01*
X389191D01*
X389025Y538280D01*
Y538779D01*
X387692Y539113D02*
Y538113D01*
X387192D01*
X387025Y538280D01*
Y538613D01*
X387192Y538779D01*
X387692D01*
X386026Y538113D02*
X386526D01*
X386692Y538280D01*
Y538613D01*
X386526Y538779D01*
X386026D01*
X385693Y537780D02*
Y538779D01*
X385193D01*
X385026Y538613D01*
Y538446D01*
Y538280D01*
X385193Y538113D01*
X385693D01*
D91*
X394516Y540775D02*
X394869D01*
Y540465D02*
Y540775D01*
X391369Y539076D02*
X393169D01*
X394869Y540775D01*
M02*
