G04 Layer_Color=255*
%FSLAX25Y25*%
%MOIN*%
G70*
G01*
G75*
%ADD10R,0.09843X0.09055*%
%ADD11R,0.03347X0.02756*%
%ADD12R,0.07480X0.03937*%
%ADD13R,0.03150X0.03740*%
%ADD14R,0.03937X0.02756*%
%ADD15R,0.02985X0.03197*%
%ADD16R,0.05236X0.05236*%
%ADD17R,0.03543X0.07874*%
%ADD18R,0.07874X0.03543*%
%ADD19R,0.07500X0.10984*%
%ADD20R,0.03937X0.02953*%
%ADD21R,0.05512X0.05906*%
%ADD22R,0.02362X0.05512*%
%ADD23R,0.03175X0.05151*%
%ADD24R,0.05906X0.05512*%
%ADD25R,0.03543X0.04134*%
%ADD26R,0.03740X0.02756*%
%ADD27R,0.04331X0.06299*%
%ADD28R,0.01575X0.03150*%
%ADD29R,0.02559X0.04488*%
%ADD30R,0.05512X0.04331*%
%ADD31R,0.02953X0.10630*%
%ADD32R,0.05719X0.10646*%
%ADD33R,0.03740X0.04134*%
%ADD34R,0.05512X0.06299*%
%ADD35R,0.07480X0.07480*%
%ADD36R,0.05315X0.01575*%
%ADD37R,0.04940X0.05733*%
%ADD38R,0.04152X0.05339*%
%ADD46C,0.00787*%
%ADD47C,0.03937*%
%ADD48C,0.01969*%
%ADD49C,0.07874*%
%ADD50R,0.07874X0.07874*%
%ADD51R,0.09449X0.09449*%
%ADD52C,0.09449*%
%ADD53O,0.06299X0.03543*%
D10*
X372638Y416929D02*
D03*
X355709D02*
D03*
X373032Y324803D02*
D03*
X356102D02*
D03*
D11*
X278346Y514468D02*
D03*
Y509941D02*
D03*
D12*
X289370Y482677D02*
D03*
Y494488D02*
D03*
D13*
X428642Y555118D02*
D03*
X433563D02*
D03*
X428642Y484252D02*
D03*
X433563D02*
D03*
D14*
X307478Y474606D02*
D03*
Y478346D02*
D03*
Y482087D02*
D03*
X298821Y474606D02*
D03*
Y478346D02*
D03*
Y482087D02*
D03*
D15*
X365642Y476378D02*
D03*
X370579D02*
D03*
X383358Y476378D02*
D03*
X388295D02*
D03*
D16*
X323327Y572579D02*
D03*
Y565354D02*
D03*
Y558130D02*
D03*
X316102Y572579D02*
D03*
Y565354D02*
D03*
Y558130D02*
D03*
X308878Y572579D02*
D03*
Y565354D02*
D03*
Y558130D02*
D03*
D17*
X286575Y602756D02*
D03*
X291575D02*
D03*
X296575D02*
D03*
X301575D02*
D03*
X306575D02*
D03*
X311575D02*
D03*
X316575D02*
D03*
X321575D02*
D03*
X326575D02*
D03*
X331575D02*
D03*
X336575D02*
D03*
X341575D02*
D03*
X346575D02*
D03*
X351575D02*
D03*
Y535827D02*
D03*
X346575D02*
D03*
X341575D02*
D03*
X336575D02*
D03*
X331575D02*
D03*
X326575D02*
D03*
X321575D02*
D03*
X316575D02*
D03*
X311575D02*
D03*
X306575D02*
D03*
X301575D02*
D03*
X296575D02*
D03*
X291575D02*
D03*
X286575D02*
D03*
D18*
X355512Y591791D02*
D03*
Y586791D02*
D03*
Y581791D02*
D03*
Y576791D02*
D03*
Y571791D02*
D03*
Y566791D02*
D03*
Y561791D02*
D03*
Y556791D02*
D03*
Y551791D02*
D03*
Y546791D02*
D03*
D19*
X336321Y484252D02*
D03*
X317222D02*
D03*
D20*
X348425Y456693D02*
D03*
Y462598D02*
D03*
D21*
X344488Y414961D02*
D03*
X332677D02*
D03*
X401575Y529528D02*
D03*
X389764D02*
D03*
X342913Y322835D02*
D03*
X331102D02*
D03*
D22*
X371850Y464173D02*
D03*
X364370D02*
D03*
X368110Y456693D02*
D03*
X385827Y456890D02*
D03*
X382086Y464370D02*
D03*
X389567D02*
D03*
D23*
X410036Y529528D02*
D03*
X416736D02*
D03*
X410036Y545275D02*
D03*
X416736D02*
D03*
D24*
X348425Y472441D02*
D03*
Y484252D02*
D03*
D25*
X334350Y330709D02*
D03*
X339665D02*
D03*
X335925Y424803D02*
D03*
X341240D02*
D03*
D26*
X300000Y512106D02*
D03*
Y506791D02*
D03*
D27*
X402362Y545275D02*
D03*
X388976D02*
D03*
D28*
X262402Y507480D02*
D03*
Y516929D02*
D03*
D29*
X258090Y516260D02*
D03*
Y508150D02*
D03*
D30*
X271260Y515158D02*
D03*
Y509252D02*
D03*
X307874Y506496D02*
D03*
Y512402D02*
D03*
D31*
X310728Y464567D02*
D03*
X323130D02*
D03*
X310728Y450787D02*
D03*
X323130D02*
D03*
D32*
X296162Y464567D02*
D03*
X286515D02*
D03*
D33*
X307972Y490157D02*
D03*
X302264D02*
D03*
D34*
X277362Y465748D02*
D03*
Y490945D02*
D03*
D35*
X267717Y473622D02*
D03*
Y483071D02*
D03*
D36*
X278248Y473228D02*
D03*
Y475787D02*
D03*
Y478346D02*
D03*
Y480905D02*
D03*
Y483465D02*
D03*
D37*
X284938Y507480D02*
D03*
X291440D02*
D03*
D38*
X285332Y515354D02*
D03*
X291046D02*
D03*
D46*
X287008Y608268D02*
X286009Y608169D01*
X285049Y607878D01*
X284164Y607405D01*
X283389Y606769D01*
X282752Y605993D01*
X282279Y605108D01*
X281988Y604148D01*
X281890Y603150D01*
X277953Y532784D02*
X278972Y532918D01*
X279921Y533312D01*
X280737Y533937D01*
X281362Y534753D01*
X281756Y535702D01*
X281890Y536721D01*
X263780Y532784D02*
X262752Y532717D01*
X261742Y532516D01*
X260766Y532185D01*
X259843Y531729D01*
X258986Y531157D01*
X258212Y530478D01*
X257533Y529703D01*
X256961Y528847D01*
X256505Y527923D01*
X256174Y526948D01*
X255973Y525938D01*
X255906Y524910D01*
X255905Y226378D02*
X255973Y225350D01*
X256174Y224340D01*
X256505Y223365D01*
X256960Y222441D01*
X257533Y221585D01*
X258212Y220810D01*
X258986Y220131D01*
X259842Y219559D01*
X260766Y219103D01*
X261742Y218772D01*
X262752Y218571D01*
X263779Y218504D01*
X484252D02*
X485280Y218571D01*
X486290Y218772D01*
X487265Y219103D01*
X488189Y219559D01*
X489045Y220131D01*
X489820Y220810D01*
X490499Y221585D01*
X491071Y222441D01*
X491527Y223365D01*
X491858Y224340D01*
X492059Y225350D01*
X492126Y226378D01*
X492126Y600394D02*
X492059Y601421D01*
X491858Y602432D01*
X491527Y603407D01*
X491071Y604331D01*
X490499Y605187D01*
X489820Y605962D01*
X489045Y606641D01*
X488189Y607213D01*
X487265Y607668D01*
X486290Y608000D01*
X485280Y608200D01*
X484252Y608268D01*
X255905Y226378D02*
X255905Y524910D01*
X287008Y608268D02*
X484252Y608268D01*
X281890Y536684D02*
Y603150D01*
X263780Y532784D02*
X277953D01*
X492126Y226378D02*
X492126Y600394D01*
X263779Y218504D02*
X484252D01*
D47*
X406575Y574803D02*
D03*
X401575D02*
D03*
X406575Y569803D02*
D03*
X401575D02*
D03*
X396575Y574803D02*
D03*
X391575D02*
D03*
X396575Y569803D02*
D03*
X391575D02*
D03*
X386575Y574803D02*
D03*
Y569803D02*
D03*
X391968Y591063D02*
D03*
X396969D02*
D03*
X391968Y596063D02*
D03*
X396969D02*
D03*
X401968Y591063D02*
D03*
Y596063D02*
D03*
D48*
X323327Y568966D02*
D03*
Y561742D02*
D03*
X319714Y572579D02*
D03*
Y565354D02*
D03*
Y558130D02*
D03*
X316102Y568966D02*
D03*
Y561742D02*
D03*
X312490Y572579D02*
D03*
Y565354D02*
D03*
Y558130D02*
D03*
X308878Y568966D02*
D03*
Y561742D02*
D03*
D49*
X296260Y262402D02*
D03*
Y280512D02*
D03*
X428740Y306102D02*
D03*
Y276575D02*
D03*
X409055Y306102D02*
D03*
Y276575D02*
D03*
X330315Y306102D02*
D03*
X428740Y396654D02*
D03*
Y367126D02*
D03*
X409055Y396654D02*
D03*
Y367126D02*
D03*
X330315Y396654D02*
D03*
X296260Y314764D02*
D03*
Y332874D02*
D03*
D50*
X330315Y276575D02*
D03*
Y367126D02*
D03*
D51*
X297244Y417401D02*
D03*
X451575Y535118D02*
D03*
Y464646D02*
D03*
X451575Y373544D02*
D03*
Y281024D02*
D03*
D52*
X297244Y387401D02*
D03*
Y357401D02*
D03*
X451575Y555118D02*
D03*
Y575118D02*
D03*
Y484646D02*
D03*
Y504646D02*
D03*
X451575Y433544D02*
D03*
Y403544D02*
D03*
Y341024D02*
D03*
Y311024D02*
D03*
D53*
X267717Y491339D02*
D03*
Y465354D02*
D03*
M02*
