G04*
G04 #@! TF.GenerationSoftware,Altium Limited,Altium Designer,20.0.13 (296)*
G04*
G04 Layer_Color=65535*
%FSLAX25Y25*%
%MOIN*%
G70*
G01*
G75*
%ADD10C,0.00787*%
%ADD11C,0.01000*%
D10*
X559055Y314961D02*
X559049Y315961D01*
X559032Y316961D01*
X559003Y317961D01*
X558963Y318961D01*
X558911Y319960D01*
X558847Y320958D01*
X558772Y321956D01*
X558686Y322952D01*
X558588Y323948D01*
X558478Y324942D01*
X558357Y325935D01*
X558224Y326927D01*
X558081Y327917D01*
X557925Y328905D01*
X557759Y329891D01*
X557580Y330876D01*
X557391Y331858D01*
X557190Y332838D01*
X556978Y333816D01*
X556754Y334791D01*
X556520Y335764D01*
X556274Y336733D01*
X556017Y337700D01*
X555749Y338664D01*
X555469Y339624D01*
X555179Y340582D01*
X554878Y341535D01*
X554565Y342486D01*
X554242Y343432D01*
X553907Y344375D01*
X553562Y345314D01*
X553206Y346249D01*
X552840Y347180D01*
X552462Y348106D01*
X552074Y349028D01*
X551675Y349946D01*
X551266Y350859D01*
X550846Y351767D01*
X550416Y352670D01*
X549975Y353568D01*
X549524Y354461D01*
X549062Y355348D01*
X548591Y356231D01*
X548109Y357107D01*
X547617Y357979D01*
X547115Y358844D01*
X546603Y359703D01*
X546082Y360557D01*
X545550Y361405D01*
X545009Y362246D01*
X544458Y363081D01*
X543897Y363909D01*
X543327Y364732D01*
X542748Y365547D01*
X542159Y366355D01*
X541561Y367157D01*
X540953Y367952D01*
X540337Y368740D01*
X539711Y369520D01*
X539076Y370294D01*
X538433Y371060D01*
X537780Y371818D01*
X537119Y372569D01*
X536450Y373312D01*
X535771Y374048D01*
X535085Y374775D01*
X534390Y375495D01*
X533686Y376206D01*
X532975Y376909D01*
X532255Y377604D01*
X531528Y378291D01*
X530793Y378969D01*
X530049Y379639D01*
X529298Y380300D01*
X528540Y380952D01*
X527774Y381596D01*
X527001Y382230D01*
X526220Y382856D01*
X525432Y383473D01*
X524638Y384080D01*
X523836Y384679D01*
X523027Y385267D01*
X522212Y385847D01*
X521390Y386417D01*
X520561Y386978D01*
X519726Y387529D01*
X518885Y388070D01*
X518037Y388601D01*
X517184Y389123D01*
X516324Y389635D01*
X515459Y390137D01*
X514588Y390629D01*
X513711Y391110D01*
X512829Y391582D01*
X511941Y392043D01*
X511048Y392495D01*
X510150Y392935D01*
X509247Y393366D01*
X508339Y393785D01*
X507426Y394195D01*
X506509Y394594D01*
X505587Y394982D01*
X504660Y395359D01*
X503729Y395726D01*
X502795Y396082D01*
X501856Y396427D01*
X500913Y396761D01*
X499966Y397085D01*
X499016Y397397D01*
X498062Y397699D01*
X497105Y397989D01*
X496144Y398268D01*
X495180Y398537D01*
X494213Y398794D01*
X493244Y399040D01*
X492271Y399274D01*
X491296Y399498D01*
X490318Y399710D01*
X489338Y399911D01*
X488356Y400100D01*
X487372Y400278D01*
X486385Y400445D01*
X485397Y400600D01*
X484407Y400744D01*
X483416Y400877D01*
X482422Y400998D01*
X481428Y401107D01*
X480433Y401205D01*
X479436Y401292D01*
X478438Y401367D01*
X477440Y401430D01*
X476441Y401482D01*
X475441Y401523D01*
X474441Y401552D01*
X473441Y401569D01*
X472441Y401575D01*
X471440Y401569D01*
X470440Y401552D01*
X469440Y401523D01*
X468441Y401482D01*
X467442Y401430D01*
X466443Y401367D01*
X465446Y401292D01*
X464449Y401205D01*
X463453Y401107D01*
X462459Y400998D01*
X461466Y400877D01*
X460474Y400744D01*
X459484Y400600D01*
X458496Y400445D01*
X457510Y400278D01*
X456525Y400100D01*
X455543Y399910D01*
X454563Y399710D01*
X453585Y399498D01*
X452610Y399274D01*
X451638Y399039D01*
X450668Y398794D01*
X449701Y398536D01*
X448738Y398268D01*
X447777Y397989D01*
X446820Y397699D01*
X445866Y397397D01*
X444915Y397085D01*
X443969Y396761D01*
X443026Y396427D01*
X442087Y396082D01*
X441152Y395726D01*
X440221Y395359D01*
X439295Y394982D01*
X438373Y394593D01*
X437455Y394195D01*
X436543Y393785D01*
X435635Y393365D01*
X434731Y392935D01*
X433834Y392494D01*
X432940Y392043D01*
X432053Y391582D01*
X431171Y391110D01*
X430294Y390629D01*
X429423Y390137D01*
X428557Y389635D01*
X427698Y389123D01*
X426844Y388601D01*
X425997Y388070D01*
X425155Y387528D01*
X424321Y386978D01*
X423492Y386417D01*
X422670Y385847D01*
X421854Y385267D01*
X421046Y384678D01*
X420244Y384080D01*
X419449Y383473D01*
X418661Y382856D01*
X417881Y382230D01*
X417107Y381596D01*
X416342Y380952D01*
X415583Y380300D01*
X414832Y379639D01*
X414089Y378969D01*
X413354Y378291D01*
X412626Y377604D01*
X411907Y376909D01*
X411195Y376206D01*
X410492Y375495D01*
X409797Y374775D01*
X409110Y374047D01*
X408432Y373312D01*
X407762Y372569D01*
X407101Y371818D01*
X406449Y371060D01*
X405806Y370294D01*
X405171Y369520D01*
X404545Y368740D01*
X403929Y367952D01*
X403321Y367157D01*
X402723Y366355D01*
X402134Y365547D01*
X401555Y364731D01*
X400984Y363909D01*
X400424Y363081D01*
X399873Y362246D01*
X399332Y361405D01*
X398800Y360557D01*
X398278Y359704D01*
X397767Y358844D01*
X397265Y357979D01*
X396773Y357107D01*
X396291Y356231D01*
X395820Y355348D01*
X395358Y354461D01*
X394907Y353568D01*
X394466Y352670D01*
X394036Y351767D01*
X393616Y350859D01*
X393207Y349946D01*
X392808Y349029D01*
X392420Y348107D01*
X392042Y347180D01*
X391676Y346249D01*
X391320Y345315D01*
X390974Y344376D01*
X390640Y343433D01*
X390317Y342486D01*
X390004Y341536D01*
X389703Y340582D01*
X389413Y339625D01*
X389133Y338664D01*
X388865Y337700D01*
X388608Y336733D01*
X388362Y335764D01*
X388127Y334791D01*
X387904Y333816D01*
X387692Y332839D01*
X387491Y331858D01*
X387302Y330876D01*
X387123Y329892D01*
X386957Y328906D01*
X386801Y327917D01*
X386657Y326927D01*
X386525Y325936D01*
X386404Y324943D01*
X386294Y323948D01*
X386196Y322953D01*
X386110Y321956D01*
X386035Y320959D01*
X385971Y319960D01*
X385919Y318961D01*
X385879Y317962D01*
X385850Y316962D01*
X385833Y315962D01*
X385827Y314961D01*
X385833Y313961D01*
X385850Y312961D01*
X385879Y311961D01*
X385919Y310961D01*
X385971Y309962D01*
X386035Y308964D01*
X386110Y307966D01*
X386196Y306969D01*
X386294Y305974D01*
X386404Y304979D01*
X386525Y303987D01*
X386657Y302995D01*
X386801Y302005D01*
X386957Y301017D01*
X387123Y300030D01*
X387301Y299046D01*
X387491Y298064D01*
X387692Y297084D01*
X387904Y296106D01*
X388127Y295131D01*
X388362Y294158D01*
X388608Y293189D01*
X388865Y292222D01*
X389133Y291258D01*
X389412Y290298D01*
X389703Y289340D01*
X390004Y288386D01*
X390317Y287436D01*
X390640Y286489D01*
X390974Y285546D01*
X391319Y284608D01*
X391675Y283673D01*
X392042Y282742D01*
X392420Y281816D01*
X392808Y280893D01*
X393207Y279976D01*
X393616Y279063D01*
X394036Y278155D01*
X394466Y277252D01*
X394907Y276354D01*
X395358Y275461D01*
X395819Y274574D01*
X396291Y273691D01*
X396772Y272815D01*
X397264Y271943D01*
X397766Y271078D01*
X398278Y270218D01*
X398800Y269365D01*
X399331Y268517D01*
X399872Y267676D01*
X400423Y266841D01*
X400984Y266013D01*
X401554Y265191D01*
X402134Y264375D01*
X402723Y263566D01*
X403321Y262765D01*
X403928Y261970D01*
X404545Y261182D01*
X405170Y260402D01*
X405805Y259628D01*
X406449Y258862D01*
X407101Y258104D01*
X407762Y257353D01*
X408432Y256610D01*
X409110Y255874D01*
X409796Y255147D01*
X410491Y254427D01*
X411195Y253716D01*
X411906Y253013D01*
X412626Y252318D01*
X413353Y251631D01*
X414088Y250953D01*
X414832Y250283D01*
X415583Y249622D01*
X416341Y248970D01*
X417107Y248326D01*
X417880Y247691D01*
X418661Y247066D01*
X419448Y246449D01*
X420243Y245842D01*
X421045Y245244D01*
X421854Y244655D01*
X422669Y244075D01*
X423491Y243505D01*
X424320Y242944D01*
X425155Y242393D01*
X425996Y241852D01*
X426843Y241320D01*
X427697Y240799D01*
X428556Y240287D01*
X429422Y239785D01*
X430293Y239293D01*
X431170Y238811D01*
X432052Y238340D01*
X432939Y237878D01*
X433832Y237427D01*
X434730Y236987D01*
X435634Y236556D01*
X436542Y236137D01*
X437454Y235727D01*
X438372Y235328D01*
X439294Y234940D01*
X440220Y234563D01*
X441151Y234196D01*
X442086Y233840D01*
X443025Y233495D01*
X443968Y233160D01*
X444914Y232837D01*
X445865Y232524D01*
X446818Y232223D01*
X447776Y231933D01*
X448736Y231653D01*
X449700Y231385D01*
X450667Y231128D01*
X451637Y230882D01*
X452609Y230647D01*
X453584Y230424D01*
X454562Y230212D01*
X455542Y230011D01*
X456524Y229821D01*
X457509Y229643D01*
X458495Y229477D01*
X459483Y229321D01*
X460473Y229177D01*
X461465Y229045D01*
X462458Y228924D01*
X463452Y228814D01*
X464448Y228716D01*
X465445Y228629D01*
X466442Y228554D01*
X467440Y228491D01*
X468439Y228439D01*
X469439Y228398D01*
X470439Y228370D01*
X471439Y228352D01*
X472440Y228346D01*
X473440Y228352D01*
X474440Y228369D01*
X475440Y228398D01*
X476440Y228439D01*
X477439Y228491D01*
X478437Y228554D01*
X479435Y228629D01*
X480432Y228716D01*
X481427Y228814D01*
X482421Y228923D01*
X483415Y229044D01*
X484406Y229177D01*
X485396Y229321D01*
X486384Y229476D01*
X487371Y229643D01*
X488355Y229821D01*
X489337Y230011D01*
X490318Y230211D01*
X491295Y230423D01*
X492270Y230647D01*
X493243Y230882D01*
X494213Y231127D01*
X495179Y231384D01*
X496143Y231653D01*
X497104Y231932D01*
X498061Y232222D01*
X499015Y232524D01*
X499965Y232836D01*
X500912Y233160D01*
X501855Y233494D01*
X502794Y233839D01*
X503729Y234195D01*
X504660Y234562D01*
X505586Y234939D01*
X506508Y235327D01*
X507425Y235726D01*
X508338Y236136D01*
X509246Y236555D01*
X510149Y236986D01*
X511048Y237426D01*
X511940Y237878D01*
X512828Y238339D01*
X513710Y238810D01*
X514587Y239292D01*
X515458Y239784D01*
X516324Y240286D01*
X517183Y240798D01*
X518037Y241319D01*
X518884Y241851D01*
X519726Y242392D01*
X520561Y242943D01*
X521389Y243504D01*
X522211Y244074D01*
X523027Y244654D01*
X523835Y245243D01*
X524637Y245841D01*
X525432Y246448D01*
X526220Y247065D01*
X527001Y247691D01*
X527774Y248325D01*
X528540Y248969D01*
X529298Y249621D01*
X530049Y250282D01*
X530792Y250952D01*
X531528Y251630D01*
X532255Y252317D01*
X532975Y253012D01*
X533686Y253715D01*
X534389Y254426D01*
X535084Y255146D01*
X535771Y255873D01*
X536449Y256609D01*
X537119Y257352D01*
X537780Y258103D01*
X538433Y258861D01*
X539076Y259627D01*
X539711Y260401D01*
X540336Y261181D01*
X540953Y261969D01*
X541560Y262764D01*
X542159Y263566D01*
X542748Y264374D01*
X543327Y265190D01*
X543897Y266012D01*
X544458Y266840D01*
X545009Y267675D01*
X545550Y268517D01*
X546082Y269364D01*
X546603Y270218D01*
X547115Y271077D01*
X547617Y271943D01*
X548109Y272814D01*
X548591Y273691D01*
X549062Y274573D01*
X549524Y275461D01*
X549975Y276353D01*
X550416Y277252D01*
X550846Y278155D01*
X551266Y279063D01*
X551675Y279976D01*
X552074Y280893D01*
X552462Y281815D01*
X552840Y282741D01*
X553206Y283672D01*
X553562Y284607D01*
X553907Y285546D01*
X554242Y286489D01*
X554565Y287436D01*
X554878Y288386D01*
X555179Y289340D01*
X555469Y290297D01*
X555749Y291258D01*
X556017Y292222D01*
X556274Y293188D01*
X556520Y294158D01*
X556754Y295131D01*
X556978Y296106D01*
X557190Y297083D01*
X557391Y298063D01*
X557580Y299046D01*
X557759Y300030D01*
X557925Y301016D01*
X558081Y302005D01*
X558225Y302995D01*
X558357Y303986D01*
X558478Y304979D01*
X558588Y305974D01*
X558686Y306969D01*
X558772Y307966D01*
X558847Y308964D01*
X558911Y309962D01*
X558963Y310961D01*
X559003Y311961D01*
X559032Y312961D01*
X559049Y313961D01*
X559055Y314961D01*
X352362D02*
X352356Y315961D01*
X352339Y316961D01*
X352310Y317961D01*
X352270Y318961D01*
X352218Y319960D01*
X352154Y320958D01*
X352079Y321956D01*
X351993Y322952D01*
X351895Y323948D01*
X351785Y324942D01*
X351664Y325935D01*
X351532Y326927D01*
X351388Y327917D01*
X351232Y328905D01*
X351066Y329891D01*
X350887Y330876D01*
X350698Y331858D01*
X350497Y332838D01*
X350285Y333816D01*
X350062Y334791D01*
X349827Y335764D01*
X349581Y336733D01*
X349324Y337700D01*
X349056Y338664D01*
X348776Y339624D01*
X348486Y340582D01*
X348185Y341535D01*
X347872Y342486D01*
X347549Y343432D01*
X347215Y344375D01*
X346869Y345314D01*
X346513Y346249D01*
X346147Y347180D01*
X345769Y348106D01*
X345381Y349028D01*
X344982Y349946D01*
X344573Y350859D01*
X344153Y351767D01*
X343723Y352670D01*
X343282Y353568D01*
X342831Y354461D01*
X342369Y355348D01*
X341898Y356231D01*
X341416Y357107D01*
X340924Y357979D01*
X340422Y358844D01*
X339911Y359703D01*
X339389Y360557D01*
X338857Y361405D01*
X338316Y362246D01*
X337765Y363081D01*
X337205Y363909D01*
X336634Y364732D01*
X336055Y365547D01*
X335466Y366355D01*
X334868Y367157D01*
X334260Y367952D01*
X333644Y368740D01*
X333018Y369520D01*
X332383Y370294D01*
X331740Y371060D01*
X331087Y371818D01*
X330426Y372569D01*
X329757Y373312D01*
X329079Y374048D01*
X328392Y374775D01*
X327697Y375495D01*
X326993Y376206D01*
X326282Y376909D01*
X325563Y377604D01*
X324835Y378291D01*
X324100Y378969D01*
X323356Y379639D01*
X322606Y380300D01*
X321847Y380952D01*
X321081Y381596D01*
X320308Y382230D01*
X319527Y382856D01*
X318740Y383473D01*
X317945Y384080D01*
X317143Y384679D01*
X316334Y385267D01*
X315519Y385847D01*
X314697Y386417D01*
X313868Y386978D01*
X313033Y387529D01*
X312192Y388070D01*
X311345Y388601D01*
X310491Y389123D01*
X309631Y389635D01*
X308766Y390137D01*
X307895Y390629D01*
X307018Y391110D01*
X306136Y391582D01*
X305248Y392043D01*
X304355Y392495D01*
X303457Y392935D01*
X302554Y393366D01*
X301646Y393785D01*
X300733Y394195D01*
X299816Y394594D01*
X298894Y394982D01*
X297967Y395359D01*
X297037Y395726D01*
X296102Y396082D01*
X295163Y396427D01*
X294220Y396761D01*
X293273Y397085D01*
X292323Y397397D01*
X291369Y397699D01*
X290412Y397989D01*
X289451Y398268D01*
X288487Y398537D01*
X287520Y398794D01*
X286551Y399040D01*
X285578Y399274D01*
X284603Y399498D01*
X283626Y399710D01*
X282646Y399911D01*
X281663Y400100D01*
X280679Y400278D01*
X279692Y400445D01*
X278704Y400600D01*
X277714Y400744D01*
X276723Y400877D01*
X275730Y400998D01*
X274735Y401107D01*
X273740Y401205D01*
X272743Y401292D01*
X271745Y401367D01*
X270747Y401430D01*
X269748Y401482D01*
X268748Y401523D01*
X267748Y401552D01*
X266748Y401569D01*
X265748Y401575D01*
X264748Y401569D01*
X263747Y401552D01*
X262747Y401523D01*
X261748Y401482D01*
X260749Y401430D01*
X259750Y401367D01*
X258753Y401292D01*
X257756Y401205D01*
X256761Y401107D01*
X255766Y400998D01*
X254773Y400877D01*
X253782Y400744D01*
X252792Y400600D01*
X251803Y400445D01*
X250817Y400278D01*
X249833Y400100D01*
X248850Y399910D01*
X247870Y399710D01*
X246893Y399498D01*
X245918Y399274D01*
X244945Y399039D01*
X243975Y398794D01*
X243008Y398536D01*
X242045Y398268D01*
X241084Y397989D01*
X240127Y397699D01*
X239173Y397397D01*
X238223Y397085D01*
X237276Y396761D01*
X236333Y396427D01*
X235394Y396082D01*
X234459Y395726D01*
X233528Y395359D01*
X232602Y394982D01*
X231680Y394593D01*
X230763Y394195D01*
X229850Y393785D01*
X228942Y393365D01*
X228039Y392935D01*
X227140Y392494D01*
X226248Y392043D01*
X225360Y391582D01*
X224478Y391110D01*
X223601Y390629D01*
X222730Y390137D01*
X221864Y389635D01*
X221005Y389123D01*
X220151Y388601D01*
X219304Y388070D01*
X218462Y387528D01*
X217628Y386978D01*
X216799Y386417D01*
X215977Y385847D01*
X215161Y385267D01*
X214353Y384678D01*
X213551Y384080D01*
X212756Y383473D01*
X211968Y382856D01*
X211188Y382230D01*
X210415Y381596D01*
X209649Y380952D01*
X208890Y380300D01*
X208139Y379639D01*
X207396Y378969D01*
X206661Y378291D01*
X205933Y377604D01*
X205214Y376909D01*
X204502Y376206D01*
X203799Y375495D01*
X203104Y374775D01*
X202417Y374047D01*
X201739Y373312D01*
X201070Y372569D01*
X200409Y371818D01*
X199756Y371060D01*
X199113Y370294D01*
X198478Y369520D01*
X197852Y368740D01*
X197236Y367952D01*
X196628Y367157D01*
X196030Y366355D01*
X195441Y365547D01*
X194862Y364731D01*
X194291Y363909D01*
X193731Y363081D01*
X193180Y362246D01*
X192639Y361405D01*
X192107Y360557D01*
X191586Y359704D01*
X191074Y358844D01*
X190572Y357979D01*
X190080Y357107D01*
X189598Y356231D01*
X189127Y355348D01*
X188665Y354461D01*
X188214Y353568D01*
X187774Y352670D01*
X187343Y351767D01*
X186923Y350859D01*
X186514Y349946D01*
X186115Y349029D01*
X185727Y348107D01*
X185350Y347180D01*
X184983Y346249D01*
X184627Y345315D01*
X184282Y344376D01*
X183947Y343433D01*
X183624Y342486D01*
X183311Y341536D01*
X183010Y340582D01*
X182720Y339625D01*
X182440Y338664D01*
X182172Y337700D01*
X181915Y336733D01*
X181669Y335764D01*
X181435Y334791D01*
X181211Y333816D01*
X180999Y332839D01*
X180798Y331858D01*
X180609Y330876D01*
X180430Y329892D01*
X180264Y328906D01*
X180108Y327917D01*
X179964Y326927D01*
X179832Y325936D01*
X179711Y324943D01*
X179601Y323948D01*
X179503Y322953D01*
X179417Y321956D01*
X179342Y320959D01*
X179278Y319960D01*
X179226Y318961D01*
X179186Y317962D01*
X179157Y316962D01*
X179140Y315962D01*
X179134Y314961D01*
X179140Y313961D01*
X179157Y312961D01*
X179186Y311961D01*
X179226Y310961D01*
X179278Y309962D01*
X179342Y308964D01*
X179417Y307966D01*
X179503Y306969D01*
X179601Y305974D01*
X179711Y304979D01*
X179832Y303987D01*
X179964Y302995D01*
X180108Y302005D01*
X180264Y301017D01*
X180430Y300030D01*
X180608Y299046D01*
X180798Y298064D01*
X180999Y297084D01*
X181211Y296106D01*
X181434Y295131D01*
X181669Y294158D01*
X181915Y293189D01*
X182172Y292222D01*
X182440Y291258D01*
X182719Y290298D01*
X183010Y289340D01*
X183311Y288386D01*
X183624Y287436D01*
X183947Y286489D01*
X184281Y285546D01*
X184626Y284608D01*
X184982Y283673D01*
X185349Y282742D01*
X185727Y281816D01*
X186115Y280893D01*
X186514Y279976D01*
X186923Y279063D01*
X187343Y278155D01*
X187773Y277252D01*
X188214Y276354D01*
X188665Y275461D01*
X189126Y274574D01*
X189598Y273691D01*
X190079Y272815D01*
X190571Y271943D01*
X191073Y271078D01*
X191585Y270218D01*
X192107Y269365D01*
X192638Y268517D01*
X193180Y267676D01*
X193730Y266841D01*
X194291Y266013D01*
X194861Y265191D01*
X195441Y264375D01*
X196030Y263566D01*
X196628Y262765D01*
X197235Y261970D01*
X197852Y261182D01*
X198477Y260402D01*
X199112Y259628D01*
X199756Y258862D01*
X200408Y258104D01*
X201069Y257353D01*
X201739Y256610D01*
X202417Y255874D01*
X203103Y255147D01*
X203799Y254427D01*
X204502Y253716D01*
X205213Y253013D01*
X205933Y252318D01*
X206660Y251631D01*
X207396Y250953D01*
X208139Y250283D01*
X208890Y249622D01*
X209648Y248970D01*
X210414Y248326D01*
X211187Y247691D01*
X211968Y247066D01*
X212755Y246449D01*
X213550Y245842D01*
X214352Y245244D01*
X215161Y244655D01*
X215976Y244075D01*
X216798Y243505D01*
X217627Y242944D01*
X218462Y242393D01*
X219303Y241852D01*
X220150Y241320D01*
X221004Y240799D01*
X221864Y240287D01*
X222729Y239785D01*
X223600Y239293D01*
X224477Y238811D01*
X225359Y238340D01*
X226247Y237878D01*
X227139Y237427D01*
X228038Y236987D01*
X228941Y236556D01*
X229849Y236137D01*
X230762Y235727D01*
X231679Y235328D01*
X232601Y234940D01*
X233527Y234563D01*
X234458Y234196D01*
X235393Y233840D01*
X236332Y233495D01*
X237275Y233160D01*
X238221Y232837D01*
X239172Y232524D01*
X240126Y232223D01*
X241083Y231933D01*
X242043Y231653D01*
X243007Y231385D01*
X243974Y231128D01*
X244944Y230882D01*
X245916Y230647D01*
X246891Y230424D01*
X247869Y230212D01*
X248849Y230011D01*
X249831Y229821D01*
X250816Y229643D01*
X251802Y229477D01*
X252790Y229321D01*
X253780Y229177D01*
X254772Y229045D01*
X255765Y228924D01*
X256759Y228814D01*
X257755Y228716D01*
X258752Y228629D01*
X259749Y228554D01*
X260748Y228491D01*
X261747Y228439D01*
X262746Y228398D01*
X263746Y228370D01*
X264746Y228352D01*
X265747Y228346D01*
X266747Y228352D01*
X267747Y228369D01*
X268747Y228398D01*
X269747Y228439D01*
X270746Y228491D01*
X271744Y228554D01*
X272742Y228629D01*
X273739Y228716D01*
X274734Y228814D01*
X275729Y228923D01*
X276722Y229044D01*
X277713Y229177D01*
X278703Y229321D01*
X279692Y229476D01*
X280678Y229643D01*
X281662Y229821D01*
X282645Y230011D01*
X283625Y230211D01*
X284602Y230423D01*
X285577Y230647D01*
X286550Y230882D01*
X287520Y231127D01*
X288487Y231384D01*
X289450Y231653D01*
X290411Y231932D01*
X291368Y232222D01*
X292322Y232524D01*
X293272Y232836D01*
X294219Y233160D01*
X295162Y233494D01*
X296101Y233839D01*
X297036Y234195D01*
X297967Y234562D01*
X298893Y234939D01*
X299815Y235327D01*
X300733Y235726D01*
X301645Y236136D01*
X302554Y236555D01*
X303457Y236986D01*
X304355Y237426D01*
X305248Y237878D01*
X306135Y238339D01*
X307017Y238810D01*
X307894Y239292D01*
X308766Y239784D01*
X309631Y240286D01*
X310490Y240798D01*
X311344Y241319D01*
X312192Y241851D01*
X313033Y242392D01*
X313868Y242943D01*
X314696Y243504D01*
X315518Y244074D01*
X316334Y244654D01*
X317143Y245243D01*
X317944Y245841D01*
X318739Y246448D01*
X319527Y247065D01*
X320308Y247691D01*
X321081Y248325D01*
X321847Y248969D01*
X322605Y249621D01*
X323356Y250282D01*
X324099Y250952D01*
X324835Y251630D01*
X325562Y252317D01*
X326282Y253012D01*
X326993Y253715D01*
X327697Y254426D01*
X328392Y255146D01*
X329078Y255873D01*
X329756Y256609D01*
X330426Y257352D01*
X331087Y258103D01*
X331740Y258861D01*
X332383Y259627D01*
X333018Y260401D01*
X333643Y261181D01*
X334260Y261969D01*
X334868Y262764D01*
X335466Y263566D01*
X336055Y264374D01*
X336634Y265190D01*
X337204Y266012D01*
X337765Y266840D01*
X338316Y267675D01*
X338857Y268517D01*
X339389Y269364D01*
X339911Y270218D01*
X340422Y271077D01*
X340924Y271943D01*
X341416Y272814D01*
X341898Y273691D01*
X342369Y274573D01*
X342831Y275461D01*
X343282Y276353D01*
X343723Y277252D01*
X344153Y278155D01*
X344573Y279063D01*
X344982Y279976D01*
X345381Y280893D01*
X345769Y281815D01*
X346147Y282741D01*
X346513Y283672D01*
X346869Y284607D01*
X347215Y285546D01*
X347549Y286489D01*
X347872Y287436D01*
X348185Y288386D01*
X348486Y289340D01*
X348777Y290297D01*
X349056Y291258D01*
X349324Y292222D01*
X349581Y293188D01*
X349827Y294158D01*
X350062Y295131D01*
X350285Y296106D01*
X350497Y297083D01*
X350698Y298063D01*
X350887Y299046D01*
X351066Y300030D01*
X351232Y301016D01*
X351388Y302005D01*
X351532Y302995D01*
X351664Y303986D01*
X351785Y304979D01*
X351895Y305974D01*
X351993Y306969D01*
X352079Y307966D01*
X352154Y308964D01*
X352218Y309962D01*
X352270Y310961D01*
X352310Y311961D01*
X352339Y312961D01*
X352356Y313961D01*
X352362Y314961D01*
X183465Y415354D02*
X182476Y415323D01*
X181491Y415230D01*
X180514Y415075D01*
X179548Y414860D01*
X178598Y414584D01*
X177667Y414248D01*
X176759Y413856D01*
X175878Y413406D01*
X175026Y412903D01*
X174208Y412347D01*
X173426Y411740D01*
X172684Y411086D01*
X171985Y410387D01*
X171330Y409645D01*
X170724Y408863D01*
X170168Y408044D01*
X169665Y407193D01*
X169215Y406312D01*
X168822Y405404D01*
X168487Y404473D01*
X168211Y403523D01*
X167996Y402557D01*
X167841Y401580D01*
X167748Y400595D01*
X167717Y399606D01*
Y222441D02*
X167748Y221452D01*
X167841Y220467D01*
X167996Y219490D01*
X168211Y218525D01*
X168487Y217575D01*
X168822Y216644D01*
X169215Y215736D01*
X169665Y214854D01*
X170168Y214003D01*
X170724Y213184D01*
X171330Y212403D01*
X171985Y211661D01*
X172684Y210961D01*
X173426Y210307D01*
X174208Y209700D01*
X175026Y209144D01*
X175878Y208641D01*
X176759Y208192D01*
X177667Y207799D01*
X178598Y207464D01*
X179548Y207188D01*
X180514Y206972D01*
X181491Y206817D01*
X182476Y206724D01*
X183465Y206693D01*
X557480D02*
X558469Y206724D01*
X559454Y206817D01*
X560431Y206972D01*
X561397Y207188D01*
X562347Y207464D01*
X563278Y207799D01*
X564185Y208192D01*
X565067Y208641D01*
X565918Y209144D01*
X566737Y209700D01*
X567519Y210307D01*
X568261Y210961D01*
X568960Y211661D01*
X569614Y212403D01*
X570221Y213184D01*
X570777Y214003D01*
X571280Y214854D01*
X571730Y215736D01*
X572122Y216644D01*
X572458Y217575D01*
X572734Y218525D01*
X572949Y219490D01*
X573104Y220467D01*
X573197Y221452D01*
X573228Y222441D01*
Y399606D02*
X573197Y400595D01*
X573104Y401580D01*
X572949Y402557D01*
X572734Y403523D01*
X572458Y404473D01*
X572122Y405404D01*
X571730Y406312D01*
X571280Y407193D01*
X570777Y408044D01*
X570221Y408863D01*
X569614Y409645D01*
X568960Y410387D01*
X568261Y411086D01*
X567519Y411740D01*
X566737Y412347D01*
X565918Y412903D01*
X565067Y413406D01*
X564185Y413856D01*
X563277Y414248D01*
X562347Y414584D01*
X561397Y414860D01*
X560431Y415075D01*
X559454Y415230D01*
X558469Y415323D01*
X557480Y415354D01*
X183465D02*
X557480D01*
X167717Y222441D02*
Y399606D01*
X183465Y206693D02*
X557480D01*
X573228Y222441D02*
Y399606D01*
D11*
X208329Y407361D02*
X207330Y408360D01*
X205330D01*
X204331Y407361D01*
Y403362D01*
X205330Y402362D01*
X207330D01*
X208329Y403362D01*
X213328Y408360D02*
X211329D01*
X210329Y407361D01*
Y403362D01*
X211329Y402362D01*
X213328D01*
X214328Y403362D01*
Y407361D01*
X213328Y408360D01*
X216327Y402362D02*
Y408360D01*
X220325Y402362D01*
Y408360D01*
X222325Y402362D02*
X224324D01*
X223325D01*
Y408360D01*
X222325Y407361D01*
X246063Y222140D02*
Y216142D01*
Y219141D01*
X250062D01*
Y222140D01*
Y216142D01*
X255060D02*
X253061D01*
X252061Y217141D01*
Y219141D01*
X253061Y220140D01*
X255060D01*
X256060Y219141D01*
Y218141D01*
X252061D01*
X259059Y220140D02*
X261058D01*
X262058Y219141D01*
Y216142D01*
X259059D01*
X258059Y217141D01*
X259059Y218141D01*
X262058D01*
X265057Y221140D02*
Y220140D01*
X264057D01*
X266056D01*
X265057D01*
Y217141D01*
X266056Y216142D01*
X269056D02*
Y220140D01*
X270055D01*
X271055Y219141D01*
Y216142D01*
Y219141D01*
X272055Y220140D01*
X273054Y219141D01*
Y216142D01*
X276053Y220140D02*
X278053D01*
X279052Y219141D01*
Y216142D01*
X276053D01*
X275054Y217141D01*
X276053Y218141D01*
X279052D01*
X282051Y221140D02*
Y220140D01*
X281052D01*
X283051D01*
X282051D01*
Y217141D01*
X283051Y216142D01*
X390399Y409998D02*
X389399Y410998D01*
X387400D01*
X386400Y409998D01*
Y406000D01*
X387400Y405000D01*
X389399D01*
X390399Y406000D01*
X395397Y410998D02*
X393398D01*
X392398Y409998D01*
Y406000D01*
X393398Y405000D01*
X395397D01*
X396397Y406000D01*
Y409998D01*
X395397Y410998D01*
X398396Y405000D02*
Y410998D01*
X402395Y405000D01*
Y410998D01*
X408393Y405000D02*
X404394D01*
X408393Y408999D01*
Y409998D01*
X407393Y410998D01*
X405394D01*
X404394Y409998D01*
X464629Y222140D02*
X460630D01*
Y219141D01*
X462629D01*
X460630D01*
Y216142D01*
X466628Y220140D02*
Y216142D01*
Y218141D01*
X467628Y219141D01*
X468627Y220140D01*
X469627D01*
X472626Y216142D02*
X474625D01*
X473626D01*
Y220140D01*
X472626D01*
X481623Y222140D02*
Y216142D01*
X478624D01*
X477624Y217141D01*
Y219141D01*
X478624Y220140D01*
X481623D01*
X485622Y214142D02*
X486622D01*
X487621Y215142D01*
Y220140D01*
X484622D01*
X483623Y219141D01*
Y217141D01*
X484622Y216142D01*
X487621D01*
X492620D02*
X490620D01*
X489620Y217141D01*
Y219141D01*
X490620Y220140D01*
X492620D01*
X493619Y219141D01*
Y218141D01*
X489620D01*
M02*
