G04*
G04 #@! TF.GenerationSoftware,Altium Limited,Altium Designer,20.0.13 (296)*
G04*
G04 Layer_Color=32896*
%FSLAX44Y44*%
%MOMM*%
G71*
G01*
G75*
%ADD10C,0.2000*%
%ADD11C,0.2540*%
D10*
X920000Y887000D02*
X922509Y887132D01*
X924990Y887524D01*
X927416Y888175D01*
X929762Y889075D01*
X932000Y890215D01*
X934107Y891584D01*
X936059Y893165D01*
X937835Y894941D01*
X939416Y896893D01*
X940785Y899000D01*
X941925Y901238D01*
X942825Y903584D01*
X943476Y906010D01*
X943868Y908491D01*
X944000Y911000D01*
X944000Y1139000D02*
X943869Y1141509D01*
X943476Y1143990D01*
X942825Y1146416D01*
X941925Y1148762D01*
X940785Y1151000D01*
X939417Y1153107D01*
X937835Y1155059D01*
X936059Y1156835D01*
X934107Y1158416D01*
X932000Y1159785D01*
X929762Y1160925D01*
X927417Y1161825D01*
X924990Y1162476D01*
X922509Y1162868D01*
X920000Y1163000D01*
X652000Y1163000D02*
X649491Y1162869D01*
X647010Y1162476D01*
X644584Y1161825D01*
X642238Y1160925D01*
X640000Y1159785D01*
X637893Y1158417D01*
X635941Y1156835D01*
X634165Y1155059D01*
X632584Y1153107D01*
X631215Y1151000D01*
X630075Y1148762D01*
X629175Y1146416D01*
X628525Y1143990D01*
X628131Y1141509D01*
X628000Y1139000D01*
X628000Y911000D02*
X628131Y908491D01*
X628524Y906010D01*
X629175Y903584D01*
X630075Y901238D01*
X631215Y899000D01*
X632584Y896893D01*
X634165Y894941D01*
X635941Y893165D01*
X637893Y891584D01*
X640000Y890215D01*
X642238Y889075D01*
X644584Y888175D01*
X647010Y887524D01*
X649491Y887132D01*
X652000Y887000D01*
X1630000Y1240000D02*
X1629921Y1242512D01*
X1629685Y1245013D01*
X1629292Y1247495D01*
X1628743Y1249948D01*
X1628042Y1252361D01*
X1627191Y1254725D01*
X1626193Y1257031D01*
X1625052Y1259270D01*
X1623773Y1261433D01*
X1622361Y1263511D01*
X1620820Y1265497D01*
X1619159Y1267382D01*
X1617382Y1269159D01*
X1615497Y1270820D01*
X1613511Y1272361D01*
X1611433Y1273773D01*
X1609270Y1275052D01*
X1607031Y1276193D01*
X1604725Y1277191D01*
X1602361Y1278042D01*
X1599948Y1278743D01*
X1597495Y1279292D01*
X1595013Y1279685D01*
X1592512Y1279921D01*
X1590000Y1280000D01*
X1590000Y750000D02*
X1592512Y750079D01*
X1595013Y750315D01*
X1597495Y750708D01*
X1599948Y751257D01*
X1602361Y751958D01*
X1604725Y752809D01*
X1607031Y753807D01*
X1609270Y754948D01*
X1611433Y756227D01*
X1613511Y757639D01*
X1615497Y759180D01*
X1617382Y760841D01*
X1619159Y762618D01*
X1620821Y764503D01*
X1622361Y766489D01*
X1623773Y768567D01*
X1625052Y770730D01*
X1626193Y772969D01*
X1627191Y775275D01*
X1628042Y777639D01*
X1628743Y780052D01*
X1629292Y782505D01*
X1629685Y784987D01*
X1629921Y787488D01*
X1630000Y790000D01*
X600000D02*
X600079Y787488D01*
X600315Y784987D01*
X600709Y782505D01*
X601257Y780052D01*
X601958Y777639D01*
X602809Y775275D01*
X603807Y772969D01*
X604948Y770730D01*
X606227Y768567D01*
X607639Y766489D01*
X609179Y764503D01*
X610841Y762618D01*
X612618Y760841D01*
X614503Y759179D01*
X616489Y757639D01*
X618567Y756227D01*
X620730Y754948D01*
X622969Y753807D01*
X625275Y752809D01*
X627639Y751958D01*
X630052Y751257D01*
X632505Y750708D01*
X634987Y750315D01*
X637489Y750079D01*
X640000Y750000D01*
Y1280000D02*
X637488Y1279921D01*
X634987Y1279685D01*
X632505Y1279292D01*
X630052Y1278743D01*
X627639Y1278042D01*
X625275Y1277191D01*
X622969Y1276193D01*
X620730Y1275052D01*
X618567Y1273773D01*
X616489Y1272361D01*
X614503Y1270820D01*
X612618Y1269159D01*
X610841Y1267382D01*
X609179Y1265497D01*
X607639Y1263511D01*
X606227Y1261433D01*
X604948Y1259270D01*
X603807Y1257031D01*
X602809Y1254725D01*
X601958Y1252361D01*
X601257Y1249948D01*
X600709Y1247495D01*
X600315Y1245013D01*
X600079Y1242512D01*
X600000Y1240000D01*
X944000Y911000D02*
Y1139000D01*
X652000Y1163000D02*
X920000D01*
X652000Y887000D02*
X920000D01*
X628000Y911000D02*
Y1139000D01*
X1630000Y790000D02*
Y1240000D01*
X640000Y750000D02*
X1590000D01*
X600000Y790000D02*
Y1240000D01*
X640000Y1280000D02*
X1590000D01*
D11*
X699697Y1043236D02*
X697158Y1045775D01*
X692079D01*
X689540Y1043236D01*
Y1033079D01*
X692079Y1030540D01*
X697158D01*
X699697Y1033079D01*
X704775Y1045775D02*
Y1033079D01*
X707314Y1030540D01*
X712393D01*
X714932Y1033079D01*
Y1045775D01*
X720010D02*
X730167D01*
X725089D01*
Y1030540D01*
X742863Y1045775D02*
X737784D01*
X735245Y1043236D01*
Y1033079D01*
X737784Y1030540D01*
X742863D01*
X745402Y1033079D01*
Y1043236D01*
X742863Y1045775D01*
X750480D02*
Y1033079D01*
X753019Y1030540D01*
X758098D01*
X760637Y1033079D01*
Y1045775D01*
X765715D02*
X775872D01*
X770794D01*
Y1030540D01*
X796186D02*
Y1045775D01*
X803803D01*
X806342Y1043236D01*
Y1038158D01*
X803803Y1035618D01*
X796186D01*
X801264D02*
X806342Y1030540D01*
X821577Y1045775D02*
X811421D01*
Y1030540D01*
X821577D01*
X811421Y1038158D02*
X816499D01*
X836812Y1043236D02*
X834273Y1045775D01*
X829195D01*
X826656Y1043236D01*
Y1033079D01*
X829195Y1030540D01*
X834273D01*
X836812Y1033079D01*
Y1038158D01*
X831734D01*
X841891Y1045775D02*
X846969D01*
X844430D01*
Y1030540D01*
X841891D01*
X846969D01*
X862204Y1045775D02*
X857126D01*
X854587Y1043236D01*
Y1033079D01*
X857126Y1030540D01*
X862204D01*
X864743Y1033079D01*
Y1043236D01*
X862204Y1045775D01*
X869822Y1030540D02*
Y1045775D01*
X879978Y1030540D01*
Y1045775D01*
M02*
